<svg width="1223" height="830" viewBox="0 0 1223 830" fill="none" xmlns="http://www.w3.org/2000/svg">
<path d="M146.625 393.625V460.958C146.625 463.191 147.512 465.331 149.09 466.91C150.669 468.488 152.809 469.375 155.042 469.375H222.375" stroke="url(#paint0_linear_521_541)" stroke-width="6" stroke-linecap="round" stroke-linejoin="round"/>
<path d="M163.458 428.163C163.458 427.606 163.679 427.072 164.072 426.677L172.489 418.261C172.685 418.065 172.917 417.909 173.172 417.803C173.428 417.697 173.702 417.642 173.979 417.642C174.256 417.642 174.53 417.697 174.785 417.803C175.041 417.909 175.273 418.065 175.469 418.261L189.322 432.114C189.518 432.31 189.75 432.466 190.006 432.572C190.261 432.678 190.535 432.733 190.812 432.733C191.089 432.733 191.363 432.678 191.619 432.572C191.874 432.466 192.106 432.31 192.302 432.114L210.364 414.052C210.658 413.757 211.033 413.557 211.441 413.475C211.85 413.393 212.273 413.435 212.658 413.594C213.042 413.753 213.371 414.022 213.603 414.368C213.834 414.714 213.958 415.121 213.958 415.538V448.333C213.958 449.449 213.515 450.52 212.725 451.309C211.936 452.098 210.866 452.542 209.75 452.542H167.666C166.55 452.542 165.48 452.098 164.691 451.309C163.901 450.52 163.458 449.449 163.458 448.333V428.163Z" stroke="url(#paint1_linear_521_541)" stroke-width="6" stroke-linecap="round" stroke-linejoin="round"/>
<path d="M357.666 681.875V673.792C357.666 669.504 355.963 665.392 352.931 662.36C349.899 659.328 345.787 657.625 341.5 657.625H317.25C312.962 657.625 308.85 659.328 305.818 662.36C302.786 665.392 301.083 669.504 301.083 673.792V681.875" stroke="url(#paint2_linear_521_541)" stroke-width="6" stroke-linecap="round" stroke-linejoin="round"/>
<path d="M329.375 641.458C338.303 641.458 345.541 634.22 345.541 625.292C345.541 616.363 338.303 609.125 329.375 609.125C320.446 609.125 313.208 616.363 313.208 625.292C313.208 634.22 320.446 641.458 329.375 641.458Z" stroke="url(#paint3_linear_521_541)" stroke-width="6" stroke-linecap="round" stroke-linejoin="round"/>
<path d="M381.917 681.875V673.792C381.914 670.21 380.722 666.73 378.528 663.899C376.333 661.068 373.26 659.046 369.792 658.15" stroke="url(#paint4_linear_521_541)" stroke-width="6" stroke-linecap="round" stroke-linejoin="round"/>
<path d="M357.667 609.65C361.145 610.541 364.227 612.563 366.428 615.399C368.629 618.235 369.824 621.722 369.824 625.312C369.824 628.902 368.629 632.389 366.428 635.225C364.227 638.06 361.145 640.083 357.667 640.973" stroke="url(#paint5_linear_521_541)" stroke-width="6" stroke-linecap="round" stroke-linejoin="round"/>
<path d="M712 685.37H673.065C665.915 685.37 660.39 691.48 656.945 697.72C654.218 702.837 649.859 706.896 644.56 709.251C639.261 711.606 633.328 712.122 627.702 710.718C622.076 709.313 617.081 706.068 613.512 701.499C609.942 696.93 608.002 691.298 608 685.5C608.065 680.95 609.3 676.4 611.705 672.5" stroke="url(#paint6_linear_521_541)" stroke-width="6" stroke-linecap="round" stroke-linejoin="round"/>
<path d="M634 685.5L654.345 647.93C657.79 641.625 654.995 633.76 651.095 627.78C649.254 624.836 648.022 621.553 647.47 618.126C646.919 614.698 647.059 611.194 647.884 607.821C648.708 604.449 650.2 601.276 652.271 598.489C654.341 595.702 656.949 593.358 659.941 591.595C662.932 589.833 666.246 588.687 669.687 588.226C673.128 587.765 676.627 587.998 679.977 588.91C683.326 589.823 686.459 591.398 689.191 593.541C691.922 595.685 694.197 598.353 695.88 601.39" stroke="url(#paint7_linear_521_541)" stroke-width="6" stroke-linecap="round" stroke-linejoin="round"/>
<path d="M673 614L693.345 651.245C696.79 657.55 704.85 659.5 712 659.5C718.896 659.5 725.509 662.239 730.385 667.115C735.261 671.991 738 678.604 738 685.5C738 692.396 735.261 699.009 730.385 703.885C725.509 708.761 718.896 711.5 712 711.5" stroke="url(#paint8_linear_521_541)" stroke-width="6" stroke-linecap="round" stroke-linejoin="round"/>
<path d="M317 239C324.956 239 332.587 235.839 338.213 230.213C343.839 224.587 347 216.956 347 209C347 201.044 343.839 193.413 338.213 187.787C332.587 182.161 324.956 179 317 179C309.044 179 301.413 182.161 295.787 187.787C290.161 193.413 287 201.044 287 209C287 216.956 290.161 224.587 295.787 230.213C301.413 235.839 309.044 239 317 239Z" stroke="url(#paint9_linear_521_541)" stroke-width="6" stroke-linecap="round" stroke-linejoin="round"/>
<path d="M317 216.5C318.989 216.5 320.897 215.71 322.303 214.303C323.71 212.897 324.5 210.989 324.5 209C324.5 207.011 323.71 205.103 322.303 203.697C320.897 202.29 318.989 201.5 317 201.5C315.011 201.5 313.103 202.29 311.697 203.697C310.29 205.103 309.5 207.011 309.5 209C309.5 210.989 310.29 212.897 311.697 214.303C313.103 215.71 315.011 216.5 317 216.5Z" stroke="url(#paint10_linear_521_541)" stroke-width="6" stroke-linecap="round" stroke-linejoin="round"/>
<path d="M317 171.5V179" stroke="url(#paint11_linear_521_541)" stroke-width="6" stroke-linecap="round" stroke-linejoin="round"/>
<path d="M317 246.5V239" stroke="url(#paint12_linear_521_541)" stroke-width="6" stroke-linecap="round" stroke-linejoin="round"/>
<path d="M335.75 241.475L332 234.988" stroke="url(#paint13_linear_521_541)" stroke-width="6" stroke-linecap="round" stroke-linejoin="round"/>
<path d="M313.25 202.512L298.25 176.525" stroke="url(#paint14_linear_521_541)" stroke-width="6" stroke-linecap="round" stroke-linejoin="round"/>
<path d="M349.475 227.75L342.987 224" stroke="url(#paint15_linear_521_541)" stroke-width="6" stroke-linecap="round" stroke-linejoin="round"/>
<path d="M284.525 190.25L291.013 194" stroke="url(#paint16_linear_521_541)" stroke-width="6" stroke-linecap="round" stroke-linejoin="round"/>
<path d="M324.5 209H354.5" stroke="url(#paint17_linear_521_541)" stroke-width="6" stroke-linecap="round" stroke-linejoin="round"/>
<path d="M279.5 209H287" stroke="url(#paint18_linear_521_541)" stroke-width="6" stroke-linecap="round" stroke-linejoin="round"/>
<path d="M349.475 190.25L342.987 194" stroke="url(#paint19_linear_521_541)" stroke-width="6" stroke-linecap="round" stroke-linejoin="round"/>
<path d="M284.525 227.75L291.013 224" stroke="url(#paint20_linear_521_541)" stroke-width="6" stroke-linecap="round" stroke-linejoin="round"/>
<path d="M335.75 176.525L332 183.012" stroke="url(#paint21_linear_521_541)" stroke-width="6" stroke-linecap="round" stroke-linejoin="round"/>
<path d="M313.25 215.488L298.25 241.475" stroke="url(#paint22_linear_521_541)" stroke-width="6" stroke-linecap="round" stroke-linejoin="round"/>
<path d="M534.625 405.5C535.483 401.208 537.629 398.204 541.062 394.771C545.354 390.908 547.5 385.329 547.5 379.75C547.5 372.921 544.787 366.371 539.958 361.542C535.129 356.713 528.579 354 521.75 354C514.921 354 508.371 356.713 503.542 361.542C498.713 366.371 496 372.921 496 379.75C496 384.042 496.858 389.192 502.437 394.771C505.442 397.775 508.017 401.208 508.875 405.5" stroke="url(#paint23_linear_521_541)" stroke-width="6" stroke-linecap="round" stroke-linejoin="round"/>
<path d="M508.875 422.667H534.625" stroke="url(#paint24_linear_521_541)" stroke-width="6" stroke-linecap="round" stroke-linejoin="round"/>
<path d="M539.167 316.833H556.334" stroke="url(#paint25_linear_521_541)" stroke-width="6" stroke-linecap="round" stroke-linejoin="round"/>
<path d="M488.098 518H486.712C485.042 518 483.439 518.664 482.258 519.845C481.076 521.027 480.412 522.629 480.412 524.3V524.867C480.411 525.972 480.12 527.057 479.567 528.013C479.014 528.97 478.219 529.764 477.262 530.316L475.908 531.104C474.95 531.657 473.864 531.948 472.758 531.948C471.652 531.948 470.566 531.657 469.608 531.104L469.135 530.852C467.69 530.018 465.972 529.792 464.36 530.223C462.748 530.654 461.372 531.707 460.536 533.152L459.843 534.349C459.009 535.794 458.783 537.512 459.214 539.124C459.645 540.736 460.698 542.112 462.142 542.948L462.615 543.263C463.567 543.813 464.359 544.602 464.911 545.553C465.464 546.503 465.758 547.582 465.765 548.681V550.288C465.769 551.398 465.48 552.489 464.927 553.452C464.374 554.414 463.576 555.213 462.615 555.769L462.142 556.052C460.698 556.888 459.645 558.264 459.214 559.876C458.783 561.488 459.009 563.206 459.843 564.651L460.536 565.849C461.372 567.293 462.748 568.346 464.36 568.777C465.972 569.208 467.69 568.982 469.135 568.148L469.608 567.896C470.566 567.343 471.652 567.052 472.758 567.052C473.864 567.052 474.95 567.343 475.908 567.896L477.262 568.684C478.219 569.236 479.014 570.03 479.567 570.987C480.12 571.943 480.411 573.028 480.412 574.133V574.7C480.412 576.371 481.076 577.973 482.258 579.155C483.439 580.336 485.042 581 486.712 581H488.098C489.769 581 491.372 580.336 492.553 579.155C493.735 577.973 494.398 576.371 494.398 574.7V574.133C494.4 573.028 494.691 571.943 495.244 570.987C495.797 570.03 496.592 569.236 497.548 568.684L498.903 567.896C499.861 567.343 500.947 567.052 502.053 567.052C503.159 567.052 504.245 567.343 505.203 567.896L505.675 568.148C507.121 568.982 508.838 569.208 510.451 568.777C512.063 568.346 513.438 567.293 514.275 565.849L514.968 564.62C515.802 563.174 516.028 561.457 515.597 559.845C515.166 558.232 514.113 556.857 512.668 556.021L512.196 555.769C511.234 555.213 510.437 554.414 509.884 553.452C509.33 552.489 509.041 551.398 509.046 550.288V548.713C509.041 547.602 509.33 546.511 509.884 545.548C510.437 544.586 511.234 543.787 512.196 543.232L512.668 542.948C514.113 542.112 515.166 540.736 515.597 539.124C516.028 537.512 515.802 535.794 514.968 534.349L514.275 533.152C513.438 531.707 512.063 530.654 510.451 530.223C508.838 529.792 507.121 530.018 505.675 530.852L505.203 531.104C504.245 531.657 503.159 531.948 502.053 531.948C500.947 531.948 499.861 531.657 498.903 531.104L497.548 530.316C496.592 529.764 495.797 528.97 495.244 528.013C494.691 527.057 494.4 525.972 494.398 524.867V524.3C494.398 522.629 493.735 521.027 492.553 519.845C491.372 518.664 489.769 518 488.098 518Z" stroke="url(#paint26_linear_521_541)" stroke-width="6" stroke-linecap="round" stroke-linejoin="round"/>
<path d="M487.406 558.95C492.625 558.95 496.856 554.719 496.856 549.5C496.856 544.281 492.625 540.05 487.406 540.05C482.187 540.05 477.956 544.281 477.956 549.5C477.956 554.719 482.187 558.95 487.406 558.95Z" stroke="url(#paint27_linear_521_541)" stroke-width="6" stroke-linecap="round" stroke-linejoin="round"/>
<path d="M83.0984 314H81.7124C80.0415 314 78.4391 314.664 77.2576 315.845C76.0761 317.027 75.4124 318.629 75.4124 320.3V320.867C75.4112 321.972 75.1196 323.057 74.5667 324.013C74.0138 324.97 73.2191 325.764 72.2624 326.316L70.9079 327.104C69.9502 327.657 68.8638 327.948 67.7579 327.948C66.652 327.948 65.5656 327.657 64.6079 327.104L64.1354 326.852C62.6897 326.018 60.9723 325.792 59.36 326.223C57.7477 326.654 56.3724 327.707 55.5359 329.152L54.8429 330.349C54.009 331.794 53.7827 333.512 54.2138 335.124C54.645 336.736 55.6982 338.112 57.1424 338.948L57.6149 339.263C58.567 339.813 59.3588 340.602 59.9114 341.553C60.464 342.503 60.7582 343.582 60.7649 344.681V346.288C60.7693 347.398 60.4803 348.489 59.9271 349.452C59.374 350.414 58.5763 351.213 57.6149 351.769L57.1424 352.052C55.6982 352.888 54.645 354.264 54.2138 355.876C53.7827 357.488 54.009 359.206 54.8429 360.651L55.5359 361.849C56.3724 363.293 57.7477 364.346 59.36 364.777C60.9723 365.208 62.6897 364.982 64.1354 364.148L64.6079 363.896C65.5656 363.343 66.652 363.052 67.7579 363.052C68.8638 363.052 69.9502 363.343 70.9079 363.896L72.2624 364.684C73.2191 365.236 74.0138 366.03 74.5667 366.987C75.1196 367.943 75.4112 369.028 75.4124 370.133V370.7C75.4124 372.371 76.0761 373.973 77.2576 375.155C78.4391 376.336 80.0415 377 81.7124 377H83.0984C84.7692 377 86.3717 376.336 87.5531 375.155C88.7346 373.973 89.3984 372.371 89.3984 370.7V370.133C89.3995 369.028 89.6911 367.943 90.244 366.987C90.7969 366.03 91.5916 365.236 92.5484 364.684L93.9029 363.896C94.8606 363.343 95.947 363.052 97.0529 363.052C98.1588 363.052 99.2452 363.343 100.203 363.896L100.675 364.148C102.121 364.982 103.838 365.208 105.451 364.777C107.063 364.346 108.438 363.293 109.275 361.849L109.968 360.62C110.802 359.174 111.028 357.457 110.597 355.845C110.166 354.232 109.113 352.857 107.668 352.021L107.196 351.769C106.234 351.213 105.437 350.414 104.884 349.452C104.33 348.489 104.041 347.398 104.046 346.288V344.713C104.041 343.602 104.33 342.511 104.884 341.548C105.437 340.586 106.234 339.787 107.196 339.232L107.668 338.948C109.113 338.112 110.166 336.736 110.597 335.124C111.028 333.512 110.802 331.794 109.968 330.349L109.275 329.152C108.438 327.707 107.063 326.654 105.451 326.223C103.838 325.792 102.121 326.018 100.675 326.852L100.203 327.104C99.2452 327.657 98.1588 327.948 97.0529 327.948C95.947 327.948 94.8606 327.657 93.9029 327.104L92.5484 326.316C91.5916 325.764 90.7969 324.97 90.244 324.013C89.6911 323.057 89.3995 321.972 89.3984 320.867V320.3C89.3984 318.629 88.7346 317.027 87.5531 315.845C86.3717 314.664 84.7692 314 83.0984 314Z" stroke="url(#paint28_linear_521_541)" stroke-width="6" stroke-linecap="round" stroke-linejoin="round"/>
<path d="M82.4061 354.95C87.6251 354.95 91.8561 350.719 91.8561 345.5C91.8561 340.281 87.6251 336.05 82.4061 336.05C77.187 336.05 72.9561 340.281 72.9561 345.5C72.9561 350.719 77.187 354.95 82.4061 354.95Z" stroke="url(#paint29_linear_521_541)" stroke-width="6" stroke-linecap="round" stroke-linejoin="round"/>
<path d="M161.098 117H159.712C158.042 117 156.439 117.664 155.258 118.845C154.076 120.027 153.412 121.629 153.412 123.3V123.867C153.411 124.972 153.12 126.057 152.567 127.013C152.014 127.97 151.219 128.764 150.262 129.316L148.908 130.104C147.95 130.657 146.864 130.948 145.758 130.948C144.652 130.948 143.566 130.657 142.608 130.104L142.135 129.852C140.69 129.018 138.972 128.792 137.36 129.223C135.748 129.654 134.372 130.707 133.536 132.152L132.843 133.349C132.009 134.794 131.783 136.512 132.214 138.124C132.645 139.736 133.698 141.112 135.142 141.948L135.615 142.263C136.567 142.813 137.359 143.602 137.911 144.553C138.464 145.503 138.758 146.582 138.765 147.681V149.288C138.769 150.398 138.48 151.489 137.927 152.452C137.374 153.414 136.576 154.213 135.615 154.769L135.142 155.052C133.698 155.888 132.645 157.264 132.214 158.876C131.783 160.488 132.009 162.206 132.843 163.651L133.536 164.849C134.372 166.293 135.748 167.346 137.36 167.777C138.972 168.208 140.69 167.982 142.135 167.148L142.608 166.896C143.566 166.343 144.652 166.052 145.758 166.052C146.864 166.052 147.95 166.343 148.908 166.896L150.262 167.684C151.219 168.236 152.014 169.03 152.567 169.987C153.12 170.943 153.411 172.028 153.412 173.133V173.7C153.412 175.371 154.076 176.973 155.258 178.155C156.439 179.336 158.042 180 159.712 180H161.098C162.769 180 164.372 179.336 165.553 178.155C166.735 176.973 167.398 175.371 167.398 173.7V173.133C167.4 172.028 167.691 170.943 168.244 169.987C168.797 169.03 169.592 168.236 170.548 167.684L171.903 166.896C172.861 166.343 173.947 166.052 175.053 166.052C176.159 166.052 177.245 166.343 178.203 166.896L178.675 167.148C180.121 167.982 181.838 168.208 183.451 167.777C185.063 167.346 186.438 166.293 187.275 164.849L187.968 163.62C188.802 162.174 189.028 160.457 188.597 158.845C188.166 157.232 187.113 155.857 185.668 155.021L185.196 154.769C184.234 154.213 183.437 153.414 182.884 152.452C182.33 151.489 182.041 150.398 182.046 149.288V147.713C182.041 146.602 182.33 145.511 182.884 144.548C183.437 143.586 184.234 142.787 185.196 142.232L185.668 141.948C187.113 141.112 188.166 139.736 188.597 138.124C189.028 136.512 188.802 134.794 187.968 133.349L187.275 132.152C186.438 130.707 185.063 129.654 183.451 129.223C181.838 128.792 180.121 129.018 178.675 129.852L178.203 130.104C177.245 130.657 176.159 130.948 175.053 130.948C173.947 130.948 172.861 130.657 171.903 130.104L170.548 129.316C169.592 128.764 168.797 127.97 168.244 127.013C167.691 126.057 167.4 124.972 167.398 123.867V123.3C167.398 121.629 166.735 120.027 165.553 118.845C164.372 117.664 162.769 117 161.098 117Z" stroke="url(#paint30_linear_521_541)" stroke-width="6" stroke-linecap="round" stroke-linejoin="round"/>
<path d="M160.406 157.95C165.625 157.95 169.856 153.719 169.856 148.5C169.856 143.281 165.625 139.05 160.406 139.05C155.187 139.05 150.956 143.281 150.956 148.5C150.956 153.719 155.187 157.95 160.406 157.95Z" stroke="url(#paint31_linear_521_541)" stroke-width="6" stroke-linecap="round" stroke-linejoin="round"/>
<path d="M472.098 206H470.712C469.042 206 467.439 206.664 466.258 207.845C465.076 209.027 464.412 210.629 464.412 212.3V212.867C464.411 213.972 464.12 215.057 463.567 216.013C463.014 216.97 462.219 217.764 461.262 218.316L459.908 219.104C458.95 219.657 457.864 219.948 456.758 219.948C455.652 219.948 454.566 219.657 453.608 219.104L453.135 218.852C451.69 218.018 449.972 217.792 448.36 218.223C446.748 218.654 445.372 219.707 444.536 221.152L443.843 222.349C443.009 223.794 442.783 225.512 443.214 227.124C443.645 228.736 444.698 230.112 446.142 230.948L446.615 231.263C447.567 231.813 448.359 232.602 448.911 233.553C449.464 234.503 449.758 235.582 449.765 236.681V238.288C449.769 239.398 449.48 240.489 448.927 241.452C448.374 242.414 447.576 243.213 446.615 243.769L446.142 244.052C444.698 244.888 443.645 246.264 443.214 247.876C442.783 249.488 443.009 251.206 443.843 252.651L444.536 253.849C445.372 255.293 446.748 256.346 448.36 256.777C449.972 257.208 451.69 256.982 453.135 256.148L453.608 255.896C454.566 255.343 455.652 255.052 456.758 255.052C457.864 255.052 458.95 255.343 459.908 255.896L461.262 256.684C462.219 257.236 463.014 258.03 463.567 258.987C464.12 259.943 464.411 261.028 464.412 262.133V262.7C464.412 264.371 465.076 265.973 466.258 267.155C467.439 268.336 469.042 269 470.712 269H472.098C473.769 269 475.372 268.336 476.553 267.155C477.735 265.973 478.398 264.371 478.398 262.7V262.133C478.4 261.028 478.691 259.943 479.244 258.987C479.797 258.03 480.592 257.236 481.548 256.684L482.903 255.896C483.861 255.343 484.947 255.052 486.053 255.052C487.159 255.052 488.245 255.343 489.203 255.896L489.675 256.148C491.121 256.982 492.838 257.208 494.451 256.777C496.063 256.346 497.438 255.293 498.275 253.849L498.968 252.62C499.802 251.174 500.028 249.457 499.597 247.845C499.166 246.232 498.113 244.857 496.668 244.021L496.196 243.769C495.234 243.213 494.437 242.414 493.884 241.452C493.33 240.489 493.041 239.398 493.046 238.288V236.713C493.041 235.602 493.33 234.511 493.884 233.548C494.437 232.586 495.234 231.787 496.196 231.232L496.668 230.948C498.113 230.112 499.166 228.736 499.597 227.124C500.028 225.512 499.802 223.794 498.968 222.349L498.275 221.152C497.438 219.707 496.063 218.654 494.451 218.223C492.838 217.792 491.121 218.018 489.675 218.852L489.203 219.104C488.245 219.657 487.159 219.948 486.053 219.948C484.947 219.948 483.861 219.657 482.903 219.104L481.548 218.316C480.592 217.764 479.797 216.97 479.244 216.013C478.691 215.057 478.4 213.972 478.398 212.867V212.3C478.398 210.629 477.735 209.027 476.553 207.845C475.372 206.664 473.769 206 472.098 206Z" stroke="url(#paint32_linear_521_541)" stroke-width="6" stroke-linecap="round" stroke-linejoin="round"/>
<path d="M471.406 246.95C476.625 246.95 480.856 242.719 480.856 237.5C480.856 232.281 476.625 228.05 471.406 228.05C466.187 228.05 461.956 232.281 461.956 237.5C461.956 242.719 466.187 246.95 471.406 246.95Z" stroke="url(#paint33_linear_521_541)" stroke-width="6" stroke-linecap="round" stroke-linejoin="round"/>
<path d="M707.656 36H705.639C703.206 36 700.873 36.9663 699.153 38.6863C697.433 40.4063 696.467 42.7391 696.467 45.1716V45.997C696.465 47.6054 696.041 49.185 695.236 50.5774C694.431 51.9699 693.274 53.1262 691.881 53.9304L689.909 55.0768C688.515 55.8818 686.934 56.3056 685.324 56.3056C683.714 56.3056 682.132 55.8818 680.738 55.0768L680.05 54.71C677.945 53.496 675.445 53.1666 673.098 53.7942C670.751 54.4219 668.749 55.9552 667.531 58.0576L666.522 59.8002C665.308 61.9048 664.979 64.4051 665.606 66.7522C666.234 69.0994 667.767 71.1016 669.87 72.3194L670.557 72.778C671.944 73.5782 673.096 74.7273 673.901 76.111C674.705 77.4948 675.134 79.0649 675.143 80.6655V83.0042C675.15 84.6204 674.729 86.2095 673.924 87.6107C673.118 89.0119 671.957 90.1754 670.557 90.9835L669.87 91.3962C667.767 92.614 666.234 94.6162 665.606 96.9634C664.979 99.3105 665.308 101.811 666.522 103.915L667.531 105.658C668.749 107.76 670.751 109.294 673.098 109.921C675.445 110.549 677.945 110.22 680.05 109.006L680.738 108.639C682.132 107.834 683.714 107.41 685.324 107.41C686.934 107.41 688.515 107.834 689.909 108.639L691.881 109.785C693.274 110.589 694.431 111.746 695.236 113.138C696.041 114.531 696.465 116.11 696.467 117.719V118.544C696.467 120.976 697.433 123.309 699.153 125.029C700.873 126.749 703.206 127.716 705.639 127.716H707.656C710.089 127.716 712.422 126.749 714.142 125.029C715.862 123.309 716.828 120.976 716.828 118.544V117.719C716.83 116.11 717.254 114.531 718.059 113.138C718.864 111.746 720.021 110.589 721.414 109.785L723.386 108.639C724.78 107.834 726.361 107.41 727.971 107.41C729.581 107.41 731.163 107.834 732.557 108.639L733.245 109.006C735.35 110.22 737.85 110.549 740.197 109.921C742.544 109.294 744.547 107.76 745.764 105.658L746.773 103.87C747.987 101.765 748.317 99.2647 747.689 96.9175C747.061 94.5703 745.528 92.5681 743.426 91.3504L742.738 90.9835C741.338 90.1754 740.177 89.0119 739.371 87.6107C738.566 86.2095 738.145 84.6204 738.152 83.0042V80.7114C738.145 79.0952 738.566 77.5061 739.371 76.1049C740.177 74.7037 741.338 73.5402 742.738 72.7321L743.426 72.3194C745.528 71.1016 747.061 69.0994 747.689 66.7522C748.317 64.4051 747.987 61.9048 746.773 59.8002L745.764 58.0576C744.547 55.9552 742.544 54.4219 740.197 53.7942C737.85 53.1666 735.35 53.496 733.245 54.71L732.557 55.0768C731.163 55.8818 729.581 56.3056 727.971 56.3056C726.361 56.3056 724.78 55.8818 723.386 55.0768L721.414 53.9304C720.021 53.1262 718.864 51.9699 718.059 50.5774C717.254 49.185 716.83 47.6054 716.828 45.997V45.1716C716.828 42.7391 715.862 40.4063 714.142 38.6863C712.422 36.9663 710.089 36 707.656 36Z" stroke="url(#paint34_linear_521_541)" stroke-width="6" stroke-linecap="round" stroke-linejoin="round"/>
<path d="M706.648 95.6153C714.246 95.6153 720.405 89.4559 720.405 81.8579C720.405 74.26 714.246 68.1006 706.648 68.1006C699.05 68.1006 692.891 74.26 692.891 81.8579C692.891 89.4559 699.05 95.6153 706.648 95.6153Z" stroke="url(#paint35_linear_521_541)" stroke-width="6" stroke-linecap="round" stroke-linejoin="round"/>
<path d="M1179.36 682H1177.34C1174.91 682 1172.58 682.966 1170.86 684.686C1169.14 686.406 1168.17 688.739 1168.17 691.172V691.997C1168.17 693.605 1167.75 695.185 1166.94 696.577C1166.14 697.97 1164.98 699.126 1163.59 699.93L1161.61 701.077C1160.22 701.882 1158.64 702.306 1157.03 702.306C1155.42 702.306 1153.84 701.882 1152.44 701.077L1151.76 700.71C1149.65 699.496 1147.15 699.167 1144.8 699.794C1142.46 700.422 1140.45 701.955 1139.24 704.058L1138.23 705.8C1137.01 707.905 1136.68 710.405 1137.31 712.752C1137.94 715.099 1139.47 717.102 1141.57 718.319L1142.26 718.778C1143.65 719.578 1144.8 720.727 1145.61 722.111C1146.41 723.495 1146.84 725.065 1146.85 726.665V729.004C1146.85 730.62 1146.43 732.209 1145.63 733.611C1144.82 735.012 1143.66 736.175 1142.26 736.984L1141.57 737.396C1139.47 738.614 1137.94 740.616 1137.31 742.963C1136.68 745.311 1137.01 747.811 1138.23 749.915L1139.24 751.658C1140.45 753.76 1142.46 755.294 1144.8 755.921C1147.15 756.549 1149.65 756.22 1151.76 755.006L1152.44 754.639C1153.84 753.834 1155.42 753.41 1157.03 753.41C1158.64 753.41 1160.22 753.834 1161.61 754.639L1163.59 755.785C1164.98 756.589 1166.14 757.746 1166.94 759.138C1167.75 760.531 1168.17 762.11 1168.17 763.719V764.544C1168.17 766.976 1169.14 769.309 1170.86 771.029C1172.58 772.749 1174.91 773.716 1177.34 773.716H1179.36C1181.79 773.716 1184.13 772.749 1185.85 771.029C1187.57 769.309 1188.53 766.976 1188.53 764.544V763.719C1188.53 762.11 1188.96 760.531 1189.76 759.138C1190.57 757.746 1191.73 756.589 1193.12 755.785L1195.09 754.639C1196.48 753.834 1198.07 753.41 1199.68 753.41C1201.29 753.41 1202.87 753.834 1204.26 754.639L1204.95 755.006C1207.05 756.22 1209.56 756.549 1211.9 755.921C1214.25 755.294 1216.25 753.76 1217.47 751.658L1218.48 749.87C1219.69 747.765 1220.02 745.265 1219.39 742.918C1218.77 740.57 1217.23 738.568 1215.13 737.35L1214.44 736.984C1213.04 736.175 1211.88 735.012 1211.08 733.611C1210.27 732.209 1209.85 730.62 1209.86 729.004V726.711C1209.85 725.095 1210.27 723.506 1211.08 722.105C1211.88 720.704 1213.04 719.54 1214.44 718.732L1215.13 718.319C1217.23 717.102 1218.77 715.099 1219.39 712.752C1220.02 710.405 1219.69 707.905 1218.48 705.8L1217.47 704.058C1216.25 701.955 1214.25 700.422 1211.9 699.794C1209.56 699.167 1207.05 699.496 1204.95 700.71L1204.26 701.077C1202.87 701.882 1201.29 702.306 1199.68 702.306C1198.07 702.306 1196.48 701.882 1195.09 701.077L1193.12 699.93C1191.73 699.126 1190.57 697.97 1189.76 696.577C1188.96 695.185 1188.53 693.605 1188.53 691.997V691.172C1188.53 688.739 1187.57 686.406 1185.85 684.686C1184.13 682.966 1181.79 682 1179.36 682Z" stroke="url(#paint36_linear_521_541)" stroke-width="6" stroke-linecap="round" stroke-linejoin="round"/>
<path d="M1178.35 741.615C1185.95 741.615 1192.11 735.456 1192.11 727.858C1192.11 720.26 1185.95 714.101 1178.35 714.101C1170.76 714.101 1164.6 720.26 1164.6 727.858C1164.6 735.456 1170.76 741.615 1178.35 741.615Z" stroke="url(#paint37_linear_521_541)" stroke-width="6" stroke-linecap="round" stroke-linejoin="round"/>
<path d="M1043.36 374H1041.34C1038.91 374 1036.58 374.966 1034.86 376.686C1033.14 378.406 1032.17 380.739 1032.17 383.172V383.997C1032.17 385.605 1031.75 387.185 1030.94 388.577C1030.14 389.97 1028.98 391.126 1027.59 391.93L1025.61 393.077C1024.22 393.882 1022.64 394.306 1021.03 394.306C1019.42 394.306 1017.84 393.882 1016.44 393.077L1015.76 392.71C1013.65 391.496 1011.15 391.167 1008.8 391.794C1006.46 392.422 1004.45 393.955 1003.24 396.058L1002.23 397.8C1001.01 399.905 1000.68 402.405 1001.31 404.752C1001.94 407.099 1003.47 409.102 1005.57 410.319L1006.26 410.778C1007.65 411.578 1008.8 412.727 1009.61 414.111C1010.41 415.495 1010.84 417.065 1010.85 418.665V421.004C1010.85 422.62 1010.43 424.209 1009.63 425.611C1008.82 427.012 1007.66 428.175 1006.26 428.984L1005.57 429.396C1003.47 430.614 1001.94 432.616 1001.31 434.963C1000.68 437.311 1001.01 439.811 1002.23 441.915L1003.24 443.658C1004.45 445.76 1006.46 447.294 1008.8 447.921C1011.15 448.549 1013.65 448.22 1015.76 447.006L1016.44 446.639C1017.84 445.834 1019.42 445.41 1021.03 445.41C1022.64 445.41 1024.22 445.834 1025.61 446.639L1027.59 447.785C1028.98 448.589 1030.14 449.746 1030.94 451.138C1031.75 452.531 1032.17 454.11 1032.17 455.719V456.544C1032.17 458.976 1033.14 461.309 1034.86 463.029C1036.58 464.749 1038.91 465.716 1041.34 465.716H1043.36C1045.79 465.716 1048.13 464.749 1049.85 463.029C1051.57 461.309 1052.53 458.976 1052.53 456.544V455.719C1052.53 454.11 1052.96 452.531 1053.76 451.138C1054.57 449.746 1055.73 448.589 1057.12 447.785L1059.09 446.639C1060.48 445.834 1062.07 445.41 1063.68 445.41C1065.29 445.41 1066.87 445.834 1068.26 446.639L1068.95 447.006C1071.05 448.22 1073.56 448.549 1075.9 447.921C1078.25 447.294 1080.25 445.76 1081.47 443.658L1082.48 441.87C1083.69 439.765 1084.02 437.265 1083.39 434.918C1082.77 432.57 1081.23 430.568 1079.13 429.35L1078.44 428.984C1077.04 428.175 1075.88 427.012 1075.08 425.611C1074.27 424.209 1073.85 422.62 1073.86 421.004V418.711C1073.85 417.095 1074.27 415.506 1075.08 414.105C1075.88 412.704 1077.04 411.54 1078.44 410.732L1079.13 410.319C1081.23 409.102 1082.77 407.099 1083.39 404.752C1084.02 402.405 1083.69 399.905 1082.48 397.8L1081.47 396.058C1080.25 393.955 1078.25 392.422 1075.9 391.794C1073.56 391.167 1071.05 391.496 1068.95 392.71L1068.26 393.077C1066.87 393.882 1065.29 394.306 1063.68 394.306C1062.07 394.306 1060.48 393.882 1059.09 393.077L1057.12 391.93C1055.73 391.126 1054.57 389.97 1053.76 388.577C1052.96 387.185 1052.53 385.605 1052.53 383.997V383.172C1052.53 380.739 1051.57 378.406 1049.85 376.686C1048.13 374.966 1045.79 374 1043.36 374Z" stroke="url(#paint38_linear_521_541)" stroke-width="6" stroke-linecap="round" stroke-linejoin="round"/>
<path d="M1042.35 433.615C1049.95 433.615 1056.11 427.456 1056.11 419.858C1056.11 412.26 1049.95 406.101 1042.35 406.101C1034.76 406.101 1028.6 412.26 1028.6 419.858C1028.6 427.456 1034.76 433.615 1042.35 433.615Z" stroke="url(#paint39_linear_521_541)" stroke-width="6" stroke-linecap="round" stroke-linejoin="round"/>
<path d="M858.22 667H856.78C855.045 667 853.381 667.689 852.154 668.916C850.927 670.143 850.238 671.808 850.238 673.543V674.132C850.236 675.279 849.933 676.406 849.359 677.399C848.785 678.393 847.96 679.217 846.966 679.791L845.559 680.609C844.565 681.183 843.437 681.486 842.288 681.486C841.14 681.486 840.011 681.183 839.017 680.609L838.526 680.347C837.025 679.481 835.241 679.246 833.567 679.694C831.892 680.142 830.464 681.236 829.595 682.735L828.875 683.979C828.009 685.48 827.774 687.264 828.222 688.938C828.67 690.612 829.764 692.041 831.263 692.909L831.754 693.237C832.743 693.807 833.565 694.627 834.139 695.614C834.713 696.601 835.019 697.722 835.026 698.863V700.532C835.03 701.685 834.73 702.818 834.156 703.818C833.581 704.817 832.753 705.647 831.754 706.224L831.263 706.518C829.764 707.387 828.67 708.815 828.222 710.49C827.774 712.164 828.009 713.948 828.875 715.449L829.595 716.692C830.464 718.192 831.892 719.286 833.567 719.734C835.241 720.181 837.025 719.947 838.526 719.08L839.017 718.819C840.011 718.245 841.14 717.942 842.288 717.942C843.437 717.942 844.565 718.245 845.559 718.819L846.966 719.637C847.96 720.21 848.785 721.035 849.359 722.029C849.933 723.022 850.236 724.149 850.238 725.296V725.885C850.238 727.62 850.927 729.284 852.154 730.511C853.381 731.738 855.045 732.428 856.78 732.428H858.22C859.955 732.428 861.619 731.738 862.846 730.511C864.073 729.284 864.762 727.62 864.762 725.885V725.296C864.764 724.149 865.067 723.022 865.641 722.029C866.215 721.035 867.04 720.21 868.034 719.637L869.441 718.819C870.435 718.245 871.563 717.942 872.712 717.942C873.86 717.942 874.989 718.245 875.983 718.819L876.474 719.08C877.975 719.947 879.759 720.181 881.433 719.734C883.108 719.286 884.536 718.192 885.405 716.692L886.125 715.417C886.991 713.915 887.226 712.132 886.778 710.457C886.33 708.783 885.236 707.354 883.737 706.486L883.246 706.224C882.247 705.647 881.419 704.817 880.844 703.818C880.27 702.818 879.97 701.685 879.974 700.532V698.896C879.97 697.743 880.27 696.609 880.844 695.61C881.419 694.61 882.247 693.78 883.246 693.204L883.737 692.909C885.236 692.041 886.33 690.612 886.778 688.938C887.226 687.264 886.991 685.48 886.125 683.979L885.405 682.735C884.536 681.236 883.108 680.142 881.433 679.694C879.759 679.246 877.975 679.481 876.474 680.347L875.983 680.609C874.989 681.183 873.86 681.486 872.712 681.486C871.563 681.486 870.435 681.183 869.441 680.609L868.034 679.791C867.04 679.217 866.215 678.393 865.641 677.399C865.067 676.406 864.764 675.279 864.762 674.132V673.543C864.762 671.808 864.073 670.143 862.846 668.916C861.619 667.689 859.955 667 858.22 667Z" stroke="url(#paint40_linear_521_541)" stroke-width="6" stroke-linecap="round" stroke-linejoin="round"/>
<path d="M857.501 709.528C862.921 709.528 867.315 705.134 867.315 699.714C867.315 694.294 862.921 689.9 857.501 689.9C852.08 689.9 847.687 694.294 847.687 699.714C847.687 705.134 852.08 709.528 857.501 709.528Z" stroke="url(#paint41_linear_521_541)" stroke-width="6" stroke-linecap="round" stroke-linejoin="round"/>
<path d="M308.22 341H306.78C305.045 341 303.381 341.689 302.154 342.916C300.927 344.143 300.238 345.808 300.238 347.543V348.132C300.236 349.279 299.933 350.406 299.359 351.399C298.785 352.393 297.96 353.217 296.966 353.791L295.559 354.609C294.565 355.183 293.437 355.486 292.288 355.486C291.14 355.486 290.011 355.183 289.017 354.609L288.526 354.347C287.025 353.481 285.241 353.246 283.567 353.694C281.892 354.142 280.464 355.236 279.595 356.735L278.875 357.979C278.009 359.48 277.774 361.264 278.222 362.938C278.67 364.612 279.764 366.041 281.263 366.909L281.754 367.237C282.743 367.807 283.565 368.627 284.139 369.614C284.713 370.601 285.019 371.722 285.026 372.863V374.532C285.03 375.685 284.73 376.818 284.156 377.818C283.581 378.817 282.753 379.647 281.754 380.224L281.263 380.518C279.764 381.387 278.67 382.815 278.222 384.49C277.774 386.164 278.009 387.948 278.875 389.449L279.595 390.692C280.464 392.192 281.892 393.286 283.567 393.734C285.241 394.181 287.025 393.947 288.526 393.08L289.017 392.819C290.011 392.245 291.14 391.942 292.288 391.942C293.437 391.942 294.565 392.245 295.559 392.819L296.966 393.637C297.96 394.21 298.785 395.035 299.359 396.029C299.933 397.022 300.236 398.149 300.238 399.296V399.885C300.238 401.62 300.927 403.284 302.154 404.511C303.381 405.738 305.045 406.428 306.78 406.428H308.22C309.955 406.428 311.619 405.738 312.846 404.511C314.073 403.284 314.762 401.62 314.762 399.885V399.296C314.764 398.149 315.067 397.022 315.641 396.029C316.215 395.035 317.04 394.21 318.034 393.637L319.441 392.819C320.435 392.245 321.563 391.942 322.712 391.942C323.86 391.942 324.989 392.245 325.983 392.819L326.474 393.08C327.975 393.947 329.759 394.181 331.433 393.734C333.108 393.286 334.536 392.192 335.405 390.692L336.125 389.417C336.991 387.915 337.226 386.132 336.778 384.457C336.33 382.783 335.236 381.354 333.737 380.486L333.246 380.224C332.247 379.647 331.419 378.817 330.844 377.818C330.27 376.818 329.97 375.685 329.974 374.532V372.896C329.97 371.743 330.27 370.609 330.844 369.61C331.419 368.61 332.247 367.78 333.246 367.204L333.737 366.909C335.236 366.041 336.33 364.612 336.778 362.938C337.226 361.264 336.991 359.48 336.125 357.979L335.405 356.735C334.536 355.236 333.108 354.142 331.433 353.694C329.759 353.246 327.975 353.481 326.474 354.347L325.983 354.609C324.989 355.183 323.86 355.486 322.712 355.486C321.563 355.486 320.435 355.183 319.441 354.609L318.034 353.791C317.04 353.217 316.215 352.393 315.641 351.399C315.067 350.406 314.764 349.279 314.762 348.132V347.543C314.762 345.808 314.073 344.143 312.846 342.916C311.619 341.689 309.955 341 308.22 341Z" stroke="url(#paint42_linear_521_541)" stroke-width="6" stroke-linecap="round" stroke-linejoin="round"/>
<path d="M307.501 383.528C312.921 383.528 317.315 379.134 317.315 373.714C317.315 368.294 312.921 363.9 307.501 363.9C302.08 363.9 297.687 368.294 297.687 373.714C297.687 379.134 302.08 383.528 307.501 383.528Z" stroke="url(#paint43_linear_521_541)" stroke-width="6" stroke-linecap="round" stroke-linejoin="round"/>
<path d="M222.961 640.954L279.602 544.439C281.397 541.379 284.679 539.5 288.226 539.5H399.638C403.258 539.5 406.595 541.456 408.364 544.615L461.256 639.099C462.96 642.143 462.955 645.854 461.242 648.893L404.869 748.91C403.096 752.055 399.767 754 396.157 754H288.744C285.187 754 281.898 752.111 280.106 749.039L222.948 651.054C221.127 647.932 221.132 644.071 222.961 640.954Z" stroke="url(#paint44_linear_521_541)" stroke-width="4"/>
<path d="M522.883 647.935L592.78 525.137C594.584 521.969 597.969 520.033 601.615 520.085L741.588 522.101C745.026 522.15 748.197 523.962 749.985 526.899L821.927 645.046C823.823 648.159 823.874 652.057 822.062 655.219L749.994 780.972C748.211 784.082 744.901 786 741.317 786H605.022C601.501 786 598.239 784.148 596.434 781.123L522.986 658.005C521.141 654.912 521.101 651.065 522.883 647.935Z" stroke="url(#paint45_linear_521_541)" stroke-width="6"/>
<path d="M424.885 385.934L467.477 311.136C469.28 307.968 472.665 306.033 476.31 306.085L561.68 307.314C565.117 307.363 568.288 309.175 570.076 312.111L613.925 384.094C615.822 387.208 615.873 391.107 614.06 394.27L570.085 470.974C568.302 474.083 564.993 476 561.409 476H478.405C474.884 476 471.623 474.148 469.818 471.125L424.988 396.006C423.141 392.913 423.102 389.065 424.885 385.934Z" stroke="url(#paint46_linear_521_541)" stroke-width="6"/>
<path d="M203.872 201.943L257.151 108.145C258.954 104.972 262.342 103.033 265.991 103.085L372.692 104.625C376.133 104.675 379.307 106.49 381.094 109.431L435.938 199.688C437.827 202.797 437.879 206.687 436.073 209.845L381.102 305.965C379.321 309.079 376.008 311 372.421 311H268.599C265.074 311 261.809 309.144 260.006 306.115L203.975 211.997C202.136 208.908 202.097 205.069 203.872 201.943Z" stroke="url(#paint47_linear_521_541)" stroke-width="6"/>
<path d="M95.8701 430.945L139.472 354.147C141.274 350.973 144.662 349.033 148.312 349.085L235.65 350.346C239.092 350.396 242.266 352.212 244.053 355.154L288.941 429.061C290.828 432.169 290.88 436.058 289.075 439.215L244.061 517.963C242.28 521.078 238.967 523 235.379 523H150.455C146.929 523 143.664 521.143 141.861 518.114L95.9726 440.996C94.1348 437.907 94.0957 434.07 95.8701 430.945Z" stroke="url(#paint48_linear_521_541)" stroke-width="4"/>
<path d="M794.87 169.945L838.472 93.1472C840.274 89.9729 843.662 88.0328 847.312 88.0854L934.65 89.3464C938.092 89.3961 941.266 91.2123 943.053 94.1542L987.941 168.061C989.828 171.169 989.88 175.058 988.075 178.215L943.061 256.963C941.28 260.078 937.967 262 934.379 262H849.455C845.929 262 842.664 260.143 840.861 257.114L794.973 179.996C793.135 176.907 793.096 173.07 794.87 169.945Z" stroke="url(#paint49_linear_521_541)" stroke-width="6"/>
<path d="M993.847 217.462L1006.45 195.165C1008.25 191.981 1011.64 190.033 1015.3 190.086L1040.56 190.452C1044.01 190.502 1047.19 192.326 1048.97 195.278L1061.96 216.769C1063.84 219.869 1063.89 223.74 1062.1 226.889L1048.98 249.946C1047.2 253.07 1043.88 255 1040.29 255H1015.95C1012.42 255 1009.15 253.136 1007.35 250.096L993.949 227.479C992.125 224.399 992.086 220.579 993.847 217.462Z" stroke="url(#paint50_linear_521_541)" stroke-width="6"/>
<path d="M815.847 536.462L828.449 514.165C830.248 510.981 833.642 509.033 837.3 509.086L862.559 509.452C866.007 509.502 869.187 511.326 870.971 514.278L883.965 535.769C885.839 538.869 885.89 542.74 884.099 545.889L870.979 568.946C869.201 572.07 865.882 574 862.287 574H837.95C834.417 574 831.146 572.136 829.346 569.096L815.949 546.479C814.125 543.399 814.086 539.579 815.847 536.462Z" fill="#99C4B3" fill-opacity="0.4"/>
<path d="M427.854 754.957L450.376 715.16C452.176 711.978 455.569 710.033 459.224 710.086L504.348 710.739C507.794 710.789 510.972 712.611 512.757 715.559L535.958 753.882C537.836 756.984 537.887 760.86 536.092 764.011L512.765 804.951C510.986 808.072 507.669 810 504.076 810H460.352C456.821 810 453.552 808.138 451.751 805.101L427.956 764.984C426.128 761.901 426.089 758.076 427.854 754.957Z" fill="#99C4B3" fill-opacity="0.4"/>
<path d="M203.866 760.948L229.849 715.15C231.651 711.974 235.04 710.033 238.691 710.086L290.779 710.838C294.222 710.888 297.397 712.705 299.184 715.649L325.944 759.741C327.83 762.848 327.882 766.734 326.079 769.89L299.192 816.96C297.411 820.077 294.097 822 290.508 822H239.986C236.46 822 233.194 820.142 231.391 817.111L203.969 770.993C202.133 767.906 202.094 764.071 203.866 760.948Z" fill="#99C4B3" fill-opacity="0.4"/>
<path d="M84.8547 617.456L109.362 574.159C111.162 570.978 114.554 569.033 118.209 569.086L167.305 569.797C170.752 569.847 173.929 571.668 175.714 574.616L200.957 616.305C202.835 619.407 202.887 623.284 201.091 626.435L175.722 670.951C173.943 674.073 170.627 676 167.034 676H119.432C115.902 676 112.633 674.138 110.832 671.102L84.9568 627.484C83.1281 624.402 83.0891 620.576 84.8547 617.456Z" fill="#99C4B3" fill-opacity="0.4"/>
<path d="M2.84561 501.463L48.2126 421.166C50.0119 417.981 53.4066 416.033 57.0641 416.086L147.849 417.403C151.298 417.453 154.478 419.277 156.262 422.229L202.966 499.503C204.84 502.602 204.891 506.472 203.1 509.62L156.27 591.944C154.492 595.07 151.173 597 147.578 597H59.2897C55.7564 597 52.4854 595.135 50.6851 592.095L2.94751 511.478C1.12407 508.398 1.0852 504.579 2.84561 501.463Z" fill="#99C4B3" fill-opacity="0.4"/>
<path d="M496.84 296.968L544.695 212.17C546.494 208.983 549.89 207.033 553.55 207.086L649.292 208.477C652.743 208.527 655.924 210.353 657.708 213.307L706.972 294.908C708.842 298.006 708.893 301.871 707.106 305.017L657.715 391.94C655.938 395.068 652.618 397 649.021 397H555.894C552.359 397 549.087 395.134 547.287 392.091L496.942 306.974C495.122 303.896 495.083 300.081 496.84 296.968Z" fill="#99C4B3" fill-opacity="0.4"/>
<path d="M525.848 77.9619L566.993 5.16451C568.792 1.98055 572.186 0.0329895 575.843 0.0860235L658.191 1.28026C661.64 1.33027 664.819 3.15377 666.604 6.10512L708.964 76.1651C710.839 79.2651 710.89 83.1365 709.098 86.2851L666.611 160.946C664.833 164.07 661.515 166 657.92 166H577.866C574.333 166 571.063 164.136 569.262 161.097L525.949 87.979C524.125 84.899 524.086 81.0785 525.848 77.9619Z" fill="#99C4B3" fill-opacity="0.4"/>
<path d="M987.851 358.959L1016.58 308.162C1018.38 304.979 1021.78 303.033 1025.43 303.086L1082.96 303.92C1086.41 303.97 1089.59 305.792 1091.37 308.742L1120.96 357.643C1122.84 360.745 1122.89 364.619 1121.09 367.769L1091.38 419.949C1089.6 423.072 1086.28 425 1082.69 425H1026.86C1023.33 425 1020.06 423.137 1018.25 420.099L987.953 368.982C986.126 365.9 986.088 362.077 987.851 358.959Z" fill="#99C4B3" fill-opacity="0.4"/>
<path d="M987.821 85.4822L1005.42 54.185C1007.21 50.9896 1010.61 49.0333 1014.28 49.0867L1049.44 49.5993C1052.89 49.6497 1056.08 51.4818 1057.86 54.4442L1075.99 84.5917C1077.85 87.6819 1077.9 91.5335 1076.13 94.6718L1057.87 126.926C1056.09 130.062 1052.77 132 1049.16 132H1015.17C1011.63 132 1008.35 130.127 1006.55 127.077L987.922 95.4595C986.113 92.3893 986.075 88.5884 987.821 85.4822Z" fill="#99C4B3" fill-opacity="0.4"/>
<path d="M787.827 761.478L817.826 708.18C819.623 704.988 823.023 703.033 826.686 703.087L886.671 703.96C890.126 704.01 893.31 705.841 895.093 708.801L925.986 760.106C927.848 763.199 927.899 767.055 926.119 770.195L895.1 824.93C893.324 828.064 890.001 830 886.4 830H828.172C824.633 830 821.357 828.129 819.559 825.081L787.928 771.464C786.116 768.391 786.077 764.586 787.827 761.478Z" fill="#99C4B3" fill-opacity="0.4"/>
<path d="M1022.83 705.478L1052.83 652.18C1054.62 648.988 1058.02 647.033 1061.69 647.087L1121.67 647.96C1125.13 648.01 1128.31 649.841 1130.09 652.801L1160.99 704.106C1162.85 707.199 1162.9 711.055 1161.12 714.195L1130.1 768.93C1128.32 772.064 1125 774 1121.4 774H1063.17C1059.63 774 1056.36 772.129 1054.56 769.081L1022.93 715.464C1021.12 712.391 1021.08 708.586 1022.83 705.478Z" fill="#99C4B3" fill-opacity="0.4"/>
<path d="M120.782 279.512L139.912 245.215C141.704 242.003 145.114 240.034 148.792 240.088L186.882 240.647C190.351 240.698 193.545 242.543 195.323 245.522L215.033 278.555C216.868 281.631 216.919 285.453 215.165 288.576L195.329 323.897C193.559 327.049 190.225 329 186.61 329H149.752C146.198 329 142.912 327.114 141.119 324.047L120.882 289.43C119.096 286.375 119.058 282.603 120.782 279.512Z" fill="#99C4B3" fill-opacity="0.4"/>
<path d="M575.819 254.484L584.978 238.186C586.774 234.99 590.175 233.033 593.841 233.087L612.118 233.353C615.575 233.404 618.761 235.237 620.543 238.2L629.994 253.921C631.852 257.011 631.902 260.861 630.127 263.998L620.55 280.925C618.775 284.061 615.45 286 611.846 286H594.324C590.783 286 587.505 284.127 585.708 281.075L575.92 264.458C574.112 261.389 574.074 257.589 575.819 254.484Z" stroke="url(#paint51_linear_521_541)" stroke-width="6"/>
<path d="M522.819 44.4837L531.978 28.1865C533.774 24.9903 537.175 23.0333 540.841 23.0868L559.118 23.3533C562.575 23.4038 565.761 25.2365 567.543 28.1998L576.994 43.921C578.852 47.0105 578.902 50.8606 577.127 53.9981L567.55 70.9246C565.775 74.061 562.45 76 558.846 76H541.324C537.783 76 534.505 74.1267 532.708 71.0751L522.92 54.458C521.112 51.3886 521.074 47.5892 522.819 44.4837Z" stroke="url(#paint52_linear_521_541)" stroke-width="6"/>
<path d="M148.817 278.985L153.759 270.188C155.555 266.991 158.956 265.033 162.623 265.087L172.458 265.23C175.916 265.281 179.102 267.114 180.884 270.078L185.996 278.587C187.853 281.675 187.903 285.524 186.129 288.66L180.891 297.923C179.116 301.06 175.791 303 172.186 303H162.903C159.361 303 156.083 301.126 154.286 298.073L148.918 288.956C147.111 285.888 147.073 282.09 148.817 278.985Z" stroke="url(#paint53_linear_521_541)" stroke-width="4"/>
<path d="M655.976 320.999L728.993 196.928C730.79 193.875 734.069 192 737.612 192H881.302C884.917 192 888.251 193.952 890.021 197.105L958.242 318.626C959.954 321.676 959.949 325.398 958.228 328.442L885.609 456.921C883.835 460.059 880.508 462 876.903 462H738.26C734.708 462 731.422 460.116 729.629 457.049L655.963 331.12C654.133 327.993 654.138 324.121 655.976 320.999Z" stroke="url(#paint54_linear_521_541)" stroke-width="6"/>
<path d="M813 380.833C841.075 380.833 863.834 358.075 863.834 330C863.834 301.926 841.075 279.167 813 279.167C784.926 279.167 762.167 301.926 762.167 330C762.167 358.075 784.926 380.833 813 380.833Z" stroke="url(#paint55_linear_521_541)" stroke-width="6" stroke-linecap="round" stroke-linejoin="round"/>
<path d="M813 279.167C799.948 292.872 792.667 311.074 792.667 330C792.667 348.927 799.948 367.128 813 380.833C826.053 367.128 833.334 348.927 833.334 330C833.334 311.074 826.053 292.872 813 279.167Z" stroke="url(#paint56_linear_521_541)" stroke-width="6" stroke-linecap="round" stroke-linejoin="round"/>
<path d="M762.167 330H863.834" stroke="url(#paint57_linear_521_541)" stroke-width="6" stroke-linecap="round" stroke-linejoin="round"/>
<path d="M874.986 604.055L942.869 488.921C944.667 485.872 947.943 484 951.483 484H1085.1C1088.71 484 1092.05 485.949 1093.82 489.098L1157.23 601.85C1158.95 604.903 1158.95 608.632 1157.22 611.68L1089.69 730.928C1087.92 734.062 1084.59 736 1080.99 736H952.091C948.541 736 945.258 734.119 943.463 731.056L874.972 614.19C873.138 611.06 873.143 607.181 874.986 604.055Z" stroke="url(#paint58_linear_521_541)" stroke-width="6"/>
<path d="M1018.04 612.195C1017.86 611.754 1017.82 611.271 1017.92 610.806C1018.01 610.341 1018.24 609.915 1018.58 609.579C1018.91 609.244 1019.34 609.014 1019.81 608.918C1020.27 608.822 1020.75 608.865 1021.19 609.041L1065.07 626.103C1065.54 626.287 1065.94 626.612 1066.22 627.034C1066.5 627.456 1066.64 627.954 1066.62 628.459C1066.6 628.964 1066.43 629.45 1066.12 629.852C1065.81 630.253 1065.39 630.55 1064.91 630.7L1048.12 635.907C1047.36 636.141 1046.67 636.557 1046.11 637.117C1045.55 637.678 1045.14 638.367 1044.9 639.124L1039.7 655.909C1039.55 656.391 1039.25 656.815 1038.85 657.121C1038.45 657.427 1037.96 657.601 1037.46 657.619C1036.95 657.636 1036.46 657.497 1036.03 657.219C1035.61 656.942 1035.29 656.54 1035.1 656.07L1018.04 612.195Z" stroke="url(#paint59_linear_521_541)" stroke-width="6" stroke-linecap="round" stroke-linejoin="round"/>
<path d="M1061.75 604V574.75C1061.75 572.164 1060.72 569.684 1058.89 567.856C1057.07 566.027 1054.59 565 1052 565H983.75C981.164 565 978.684 566.027 976.856 567.856C975.027 569.684 974 572.164 974 574.75V643C974 645.586 975.027 648.066 976.856 649.894C978.684 651.723 981.164 652.75 983.75 652.75H1013" stroke="url(#paint60_linear_521_541)" stroke-width="6" stroke-linecap="round" stroke-linejoin="round"/>
<defs>
<linearGradient id="paint0_linear_521_541" x1="184.5" y1="393.625" x2="184.5" y2="469.375" gradientUnits="userSpaceOnUse">
<stop stop-color="#3BFD52"/>
<stop offset="1" stop-color="#D9F2DC"/>
</linearGradient>
<linearGradient id="paint1_linear_521_541" x1="188.708" y1="413.434" x2="188.708" y2="452.542" gradientUnits="userSpaceOnUse">
<stop stop-color="#3BFD52"/>
<stop offset="1" stop-color="#D9F2DC"/>
</linearGradient>
<linearGradient id="paint2_linear_521_541" x1="329.375" y1="657.625" x2="329.375" y2="681.875" gradientUnits="userSpaceOnUse">
<stop stop-color="#3BFD52"/>
<stop offset="1" stop-color="#D9F2DC"/>
</linearGradient>
<linearGradient id="paint3_linear_521_541" x1="329.375" y1="609.125" x2="329.375" y2="641.458" gradientUnits="userSpaceOnUse">
<stop stop-color="#3BFD52"/>
<stop offset="1" stop-color="#D9F2DC"/>
</linearGradient>
<linearGradient id="paint4_linear_521_541" x1="375.854" y1="658.15" x2="375.854" y2="681.875" gradientUnits="userSpaceOnUse">
<stop stop-color="#3BFD52"/>
<stop offset="1" stop-color="#D9F2DC"/>
</linearGradient>
<linearGradient id="paint5_linear_521_541" x1="363.745" y1="609.65" x2="363.745" y2="640.973" gradientUnits="userSpaceOnUse">
<stop stop-color="#3BFD52"/>
<stop offset="1" stop-color="#D9F2DC"/>
</linearGradient>
<linearGradient id="paint6_linear_521_541" x1="660" y1="672.5" x2="660" y2="711.492" gradientUnits="userSpaceOnUse">
<stop stop-color="#3BFD52"/>
<stop offset="1" stop-color="#D9F2DC"/>
</linearGradient>
<linearGradient id="paint7_linear_521_541" x1="664.94" y1="587.996" x2="664.94" y2="685.5" gradientUnits="userSpaceOnUse">
<stop stop-color="#3BFD52"/>
<stop offset="1" stop-color="#D9F2DC"/>
</linearGradient>
<linearGradient id="paint8_linear_521_541" x1="705.5" y1="614" x2="705.5" y2="711.5" gradientUnits="userSpaceOnUse">
<stop stop-color="#3BFD52"/>
<stop offset="1" stop-color="#D9F2DC"/>
</linearGradient>
<linearGradient id="paint9_linear_521_541" x1="317" y1="179" x2="317" y2="239" gradientUnits="userSpaceOnUse">
<stop stop-color="#3BFD52"/>
<stop offset="1" stop-color="#D9F2DC"/>
</linearGradient>
<linearGradient id="paint10_linear_521_541" x1="317" y1="201.5" x2="317" y2="216.5" gradientUnits="userSpaceOnUse">
<stop stop-color="#3BFD52"/>
<stop offset="1" stop-color="#D9F2DC"/>
</linearGradient>
<linearGradient id="paint11_linear_521_541" x1="317.5" y1="171.5" x2="317.5" y2="179" gradientUnits="userSpaceOnUse">
<stop stop-color="#3BFD52"/>
<stop offset="1" stop-color="#D9F2DC"/>
</linearGradient>
<linearGradient id="paint12_linear_521_541" x1="317.5" y1="239" x2="317.5" y2="246.5" gradientUnits="userSpaceOnUse">
<stop stop-color="#3BFD52"/>
<stop offset="1" stop-color="#D9F2DC"/>
</linearGradient>
<linearGradient id="paint13_linear_521_541" x1="333.875" y1="234.988" x2="333.875" y2="241.475" gradientUnits="userSpaceOnUse">
<stop stop-color="#3BFD52"/>
<stop offset="1" stop-color="#D9F2DC"/>
</linearGradient>
<linearGradient id="paint14_linear_521_541" x1="305.75" y1="176.525" x2="305.75" y2="202.512" gradientUnits="userSpaceOnUse">
<stop stop-color="#3BFD52"/>
<stop offset="1" stop-color="#D9F2DC"/>
</linearGradient>
<linearGradient id="paint15_linear_521_541" x1="346.231" y1="224" x2="346.231" y2="227.75" gradientUnits="userSpaceOnUse">
<stop stop-color="#3BFD52"/>
<stop offset="1" stop-color="#D9F2DC"/>
</linearGradient>
<linearGradient id="paint16_linear_521_541" x1="287.769" y1="190.25" x2="287.769" y2="194" gradientUnits="userSpaceOnUse">
<stop stop-color="#3BFD52"/>
<stop offset="1" stop-color="#D9F2DC"/>
</linearGradient>
<linearGradient id="paint17_linear_521_541" x1="339.5" y1="209" x2="339.5" y2="210" gradientUnits="userSpaceOnUse">
<stop stop-color="#3BFD52"/>
<stop offset="1" stop-color="#D9F2DC"/>
</linearGradient>
<linearGradient id="paint18_linear_521_541" x1="283.25" y1="209" x2="283.25" y2="210" gradientUnits="userSpaceOnUse">
<stop stop-color="#3BFD52"/>
<stop offset="1" stop-color="#D9F2DC"/>
</linearGradient>
<linearGradient id="paint19_linear_521_541" x1="346.231" y1="190.25" x2="346.231" y2="194" gradientUnits="userSpaceOnUse">
<stop stop-color="#3BFD52"/>
<stop offset="1" stop-color="#D9F2DC"/>
</linearGradient>
<linearGradient id="paint20_linear_521_541" x1="287.769" y1="224" x2="287.769" y2="227.75" gradientUnits="userSpaceOnUse">
<stop stop-color="#3BFD52"/>
<stop offset="1" stop-color="#D9F2DC"/>
</linearGradient>
<linearGradient id="paint21_linear_521_541" x1="333.875" y1="176.525" x2="333.875" y2="183.012" gradientUnits="userSpaceOnUse">
<stop stop-color="#3BFD52"/>
<stop offset="1" stop-color="#D9F2DC"/>
</linearGradient>
<linearGradient id="paint22_linear_521_541" x1="305.75" y1="215.488" x2="305.75" y2="241.475" gradientUnits="userSpaceOnUse">
<stop stop-color="#3BFD52"/>
<stop offset="1" stop-color="#D9F2DC"/>
</linearGradient>
<linearGradient id="paint23_linear_521_541" x1="521.75" y1="354" x2="521.75" y2="405.5" gradientUnits="userSpaceOnUse">
<stop stop-color="#3BFD52"/>
<stop offset="1" stop-color="#D9F2DC"/>
</linearGradient>
<linearGradient id="paint24_linear_521_541" x1="521.75" y1="422.667" x2="521.75" y2="423.667" gradientUnits="userSpaceOnUse">
<stop stop-color="#3BFD52"/>
<stop offset="1" stop-color="#D9F2DC"/>
</linearGradient>
<linearGradient id="paint25_linear_521_541" x1="547.75" y1="316.833" x2="547.75" y2="317.833" gradientUnits="userSpaceOnUse">
<stop stop-color="#3BFD52"/>
<stop offset="1" stop-color="#D9F2DC"/>
</linearGradient>
<linearGradient id="paint26_linear_521_541" x1="487.405" y1="518" x2="487.405" y2="581" gradientUnits="userSpaceOnUse">
<stop stop-color="#3BFD52"/>
<stop offset="1" stop-color="#D9F2DC"/>
</linearGradient>
<linearGradient id="paint27_linear_521_541" x1="487.406" y1="540.05" x2="487.406" y2="558.95" gradientUnits="userSpaceOnUse">
<stop stop-color="#3BFD52"/>
<stop offset="1" stop-color="#D9F2DC"/>
</linearGradient>
<linearGradient id="paint28_linear_521_541" x1="82.4054" y1="314" x2="82.4054" y2="377" gradientUnits="userSpaceOnUse">
<stop stop-color="#3BFD52"/>
<stop offset="1" stop-color="#D9F2DC"/>
</linearGradient>
<linearGradient id="paint29_linear_521_541" x1="82.4061" y1="336.05" x2="82.4061" y2="354.95" gradientUnits="userSpaceOnUse">
<stop stop-color="#3BFD52"/>
<stop offset="1" stop-color="#D9F2DC"/>
</linearGradient>
<linearGradient id="paint30_linear_521_541" x1="160.405" y1="117" x2="160.405" y2="180" gradientUnits="userSpaceOnUse">
<stop stop-color="#3BFD52"/>
<stop offset="1" stop-color="#D9F2DC"/>
</linearGradient>
<linearGradient id="paint31_linear_521_541" x1="160.406" y1="139.05" x2="160.406" y2="157.95" gradientUnits="userSpaceOnUse">
<stop stop-color="#3BFD52"/>
<stop offset="1" stop-color="#D9F2DC"/>
</linearGradient>
<linearGradient id="paint32_linear_521_541" x1="471.405" y1="206" x2="471.405" y2="269" gradientUnits="userSpaceOnUse">
<stop stop-color="#3BFD52"/>
<stop offset="1" stop-color="#D9F2DC"/>
</linearGradient>
<linearGradient id="paint33_linear_521_541" x1="471.406" y1="228.05" x2="471.406" y2="246.95" gradientUnits="userSpaceOnUse">
<stop stop-color="#3BFD52"/>
<stop offset="1" stop-color="#D9F2DC"/>
</linearGradient>
<linearGradient id="paint34_linear_521_541" x1="706.648" y1="36" x2="706.648" y2="127.716" gradientUnits="userSpaceOnUse">
<stop stop-color="#3BFD52"/>
<stop offset="1" stop-color="#D9F2DC"/>
</linearGradient>
<linearGradient id="paint35_linear_521_541" x1="706.648" y1="68.1006" x2="706.648" y2="95.6153" gradientUnits="userSpaceOnUse">
<stop stop-color="#3BFD52"/>
<stop offset="1" stop-color="#D9F2DC"/>
</linearGradient>
<linearGradient id="paint36_linear_521_541" x1="1178.35" y1="682" x2="1178.35" y2="773.716" gradientUnits="userSpaceOnUse">
<stop stop-color="#3BFD52"/>
<stop offset="1" stop-color="#D9F2DC"/>
</linearGradient>
<linearGradient id="paint37_linear_521_541" x1="1178.35" y1="714.101" x2="1178.35" y2="741.615" gradientUnits="userSpaceOnUse">
<stop stop-color="#3BFD52"/>
<stop offset="1" stop-color="#D9F2DC"/>
</linearGradient>
<linearGradient id="paint38_linear_521_541" x1="1042.35" y1="374" x2="1042.35" y2="465.716" gradientUnits="userSpaceOnUse">
<stop stop-color="#3BFD52"/>
<stop offset="1" stop-color="#D9F2DC"/>
</linearGradient>
<linearGradient id="paint39_linear_521_541" x1="1042.35" y1="406.101" x2="1042.35" y2="433.615" gradientUnits="userSpaceOnUse">
<stop stop-color="#3BFD52"/>
<stop offset="1" stop-color="#D9F2DC"/>
</linearGradient>
<linearGradient id="paint40_linear_521_541" x1="857.5" y1="667" x2="857.5" y2="732.428" gradientUnits="userSpaceOnUse">
<stop stop-color="#3BFD52"/>
<stop offset="1" stop-color="#D9F2DC"/>
</linearGradient>
<linearGradient id="paint41_linear_521_541" x1="857.501" y1="689.9" x2="857.501" y2="709.528" gradientUnits="userSpaceOnUse">
<stop stop-color="#3BFD52"/>
<stop offset="1" stop-color="#D9F2DC"/>
</linearGradient>
<linearGradient id="paint42_linear_521_541" x1="307.5" y1="341" x2="307.5" y2="406.428" gradientUnits="userSpaceOnUse">
<stop stop-color="#3BFD52"/>
<stop offset="1" stop-color="#D9F2DC"/>
</linearGradient>
<linearGradient id="paint43_linear_521_541" x1="307.501" y1="363.9" x2="307.501" y2="383.528" gradientUnits="userSpaceOnUse">
<stop stop-color="#3BFD52"/>
<stop offset="1" stop-color="#D9F2DC"/>
</linearGradient>
<linearGradient id="paint44_linear_521_541" x1="342" y1="539.5" x2="342" y2="754" gradientUnits="userSpaceOnUse">
<stop stop-color="#3BFD52"/>
<stop offset="1" stop-color="#D9F2DC"/>
</linearGradient>
<linearGradient id="paint45_linear_521_541" x1="672.5" y1="520" x2="672.5" y2="786" gradientUnits="userSpaceOnUse">
<stop stop-color="#3BFD52"/>
<stop offset="1" stop-color="#D9F2DC"/>
</linearGradient>
<linearGradient id="paint46_linear_521_541" x1="519.5" y1="306" x2="519.5" y2="476" gradientUnits="userSpaceOnUse">
<stop stop-color="#3BFD52"/>
<stop offset="1" stop-color="#D9F2DC"/>
</linearGradient>
<linearGradient id="paint47_linear_521_541" x1="320" y1="103" x2="320" y2="311" gradientUnits="userSpaceOnUse">
<stop stop-color="#3BFD52"/>
<stop offset="1" stop-color="#D9F2DC"/>
</linearGradient>
<linearGradient id="paint48_linear_521_541" x1="192.5" y1="349" x2="192.5" y2="523" gradientUnits="userSpaceOnUse">
<stop stop-color="#3BFD52"/>
<stop offset="1" stop-color="#D9F2DC"/>
</linearGradient>
<linearGradient id="paint49_linear_521_541" x1="891.5" y1="88" x2="891.5" y2="262" gradientUnits="userSpaceOnUse">
<stop stop-color="#3BFD52"/>
<stop offset="1" stop-color="#D9F2DC"/>
</linearGradient>
<linearGradient id="paint50_linear_521_541" x1="1028" y1="190" x2="1028" y2="255" gradientUnits="userSpaceOnUse">
<stop stop-color="#3BFD52"/>
<stop offset="1" stop-color="#D9F2DC"/>
</linearGradient>
<linearGradient id="paint51_linear_521_541" x1="603" y1="233" x2="603" y2="286" gradientUnits="userSpaceOnUse">
<stop stop-color="#3BFD52"/>
<stop offset="1" stop-color="#D9F2DC"/>
</linearGradient>
<linearGradient id="paint52_linear_521_541" x1="550" y1="23" x2="550" y2="76" gradientUnits="userSpaceOnUse">
<stop stop-color="#3BFD52"/>
<stop offset="1" stop-color="#D9F2DC"/>
</linearGradient>
<linearGradient id="paint53_linear_521_541" x1="167.5" y1="265" x2="167.5" y2="303" gradientUnits="userSpaceOnUse">
<stop stop-color="#3BFD52"/>
<stop offset="1" stop-color="#D9F2DC"/>
</linearGradient>
<linearGradient id="paint54_linear_521_541" x1="807" y1="192" x2="807" y2="462" gradientUnits="userSpaceOnUse">
<stop stop-color="#3BFD52"/>
<stop offset="1" stop-color="#D9F2DC"/>
</linearGradient>
<linearGradient id="paint55_linear_521_541" x1="813" y1="279.167" x2="813" y2="380.833" gradientUnits="userSpaceOnUse">
<stop stop-color="#3BFD52"/>
<stop offset="1" stop-color="#D9F2DC"/>
</linearGradient>
<linearGradient id="paint56_linear_521_541" x1="813" y1="279.167" x2="813" y2="380.833" gradientUnits="userSpaceOnUse">
<stop stop-color="#3BFD52"/>
<stop offset="1" stop-color="#D9F2DC"/>
</linearGradient>
<linearGradient id="paint57_linear_521_541" x1="813" y1="330" x2="813" y2="331" gradientUnits="userSpaceOnUse">
<stop stop-color="#3BFD52"/>
<stop offset="1" stop-color="#D9F2DC"/>
</linearGradient>
<linearGradient id="paint58_linear_521_541" x1="1016" y1="484" x2="1016" y2="736" gradientUnits="userSpaceOnUse">
<stop stop-color="#3BFD52"/>
<stop offset="1" stop-color="#D9F2DC"/>
</linearGradient>
<linearGradient id="paint59_linear_521_541" x1="1042.24" y1="608.868" x2="1042.24" y2="657.62" gradientUnits="userSpaceOnUse">
<stop stop-color="#3BFD52"/>
<stop offset="1" stop-color="#D9F2DC"/>
</linearGradient>
<linearGradient id="paint60_linear_521_541" x1="1017.88" y1="565" x2="1017.88" y2="652.75" gradientUnits="userSpaceOnUse">
<stop stop-color="#3BFD52"/>
<stop offset="1" stop-color="#D9F2DC"/>
</linearGradient>
</defs>
</svg>
