<svg width="1428" height="590" viewBox="0 0 1428 590" fill="none" xmlns="http://www.w3.org/2000/svg">
<g opacity="0.8">
<mask id="mask0_452_37831" style="mask-type:alpha" maskUnits="userSpaceOnUse" x="-16" y="-168" width="768" height="768">
<rect width="768" height="768" transform="translate(-16 -168)" fill="url(#paint0_radial_452_37831)"/>
</mask>
<g mask="url(#mask0_452_37831)">
<g clip-path="url(#clip0_452_37831)">
<g opacity="0.5">
<g clip-path="url(#clip1_452_37831)">
<line x1="42.3" y1="-228" x2="42.3" y2="540" stroke="#093725" stroke-opacity="0.63" stroke-width="0.6"/>
<line x1="90.3" y1="-228" x2="90.3" y2="540" stroke="#093725" stroke-opacity="0.63" stroke-width="0.6"/>
<line x1="138.3" y1="-228" x2="138.3" y2="540" stroke="#093725" stroke-opacity="0.63" stroke-width="0.6"/>
<line x1="186.3" y1="-228" x2="186.3" y2="540" stroke="#093725" stroke-opacity="0.63" stroke-width="0.6"/>
<line x1="234.3" y1="-228" x2="234.3" y2="540" stroke="#093725" stroke-opacity="0.63" stroke-width="0.6"/>
<line x1="282.3" y1="-228" x2="282.3" y2="540" stroke="#093725" stroke-opacity="0.63" stroke-width="0.6"/>
<line x1="330.3" y1="-228" x2="330.3" y2="540" stroke="#093725" stroke-opacity="0.63" stroke-width="0.6"/>
<line x1="378.3" y1="-228" x2="378.3" y2="540" stroke="#093725" stroke-opacity="0.63" stroke-width="0.6"/>
<line x1="426.3" y1="-228" x2="426.3" y2="540" stroke="#093725" stroke-opacity="0.63" stroke-width="0.6"/>
<line x1="474.3" y1="-228" x2="474.3" y2="540" stroke="#093725" stroke-opacity="0.63" stroke-width="0.6"/>
<line x1="522.3" y1="-228" x2="522.3" y2="540" stroke="#093725" stroke-opacity="0.63" stroke-width="0.6"/>
<line x1="570.3" y1="-228" x2="570.3" y2="540" stroke="#093725" stroke-opacity="0.63" stroke-width="0.6"/>
<line x1="618.3" y1="-228" x2="618.3" y2="540" stroke="#093725" stroke-opacity="0.63" stroke-width="0.6"/>
<line x1="666.3" y1="-228" x2="666.3" y2="540" stroke="#093725" stroke-opacity="0.63" stroke-width="0.6"/>
<line x1="714.3" y1="-228" x2="714.3" y2="540" stroke="#093725" stroke-opacity="0.63" stroke-width="0.6"/>
</g>
<rect x="-5.5" y="-227.5" width="767" height="767" stroke="#1F242F"/>
</g>
<g opacity="0.5">
<g clip-path="url(#clip2_452_37831)">
<line x1="-6" y1="11.7" x2="762" y2="11.7" stroke="#093725" stroke-opacity="0.63" stroke-width="0.6"/>
<line x1="-6" y1="59.7" x2="762" y2="59.7" stroke="#093725" stroke-opacity="0.63" stroke-width="0.6"/>
<line x1="-6" y1="107.7" x2="762" y2="107.7" stroke="#093725" stroke-opacity="0.63" stroke-width="0.6"/>
<line x1="-6" y1="155.7" x2="762" y2="155.7" stroke="#093725" stroke-opacity="0.63" stroke-width="0.6"/>
<line x1="-6" y1="203.7" x2="762" y2="203.7" stroke="#093725" stroke-opacity="0.63" stroke-width="0.6"/>
<line x1="-6" y1="251.7" x2="762" y2="251.7" stroke="#093725" stroke-opacity="0.63" stroke-width="0.6"/>
<line x1="-6" y1="299.7" x2="762" y2="299.7" stroke="#093725" stroke-opacity="0.63" stroke-width="0.6"/>
<line x1="-6" y1="347.7" x2="762" y2="347.7" stroke="#093725" stroke-opacity="0.63" stroke-width="0.6"/>
<line x1="-6" y1="395.7" x2="762" y2="395.7" stroke="#093725" stroke-opacity="0.63" stroke-width="0.6"/>
<line x1="-6" y1="443.7" x2="762" y2="443.7" stroke="#093725" stroke-opacity="0.63" stroke-width="0.6"/>
<line x1="-6" y1="491.7" x2="762" y2="491.7" stroke="#093725" stroke-opacity="0.63" stroke-width="0.6"/>
<line x1="-6" y1="539.7" x2="762" y2="539.7" stroke="#093725" stroke-opacity="0.63" stroke-width="0.6"/>
</g>
<rect x="-5.5" y="-227.5" width="767" height="767" stroke="#1F242F"/>
</g>
</g>
<path d="M378 48L378 72" stroke="url(#paint1_linear_452_37831)"/>
<path d="M390 60L366 60" stroke="url(#paint2_linear_452_37831)"/>
<path d="M234 148L234 164" stroke="url(#paint3_linear_452_37831)"/>
<path d="M246 156L222 156" stroke="url(#paint4_linear_452_37831)"/>
<path d="M619 290L619 308" stroke="url(#paint5_linear_452_37831)"/>
<path d="M628 299L610 299" stroke="url(#paint6_linear_452_37831)"/>
<path d="M570 148L570 164" stroke="url(#paint7_linear_452_37831)"/>
<path d="M578 156L562 156" stroke="url(#paint8_linear_452_37831)"/>
<path d="M187 243L187 261" stroke="url(#paint9_linear_452_37831)"/>
<path d="M196 252L178 252" stroke="url(#paint10_linear_452_37831)"/>
<path d="M571 0L571 24" stroke="url(#paint11_linear_452_37831)"/>
<path d="M583 12L559 12" stroke="url(#paint12_linear_452_37831)"/>
<path d="M474 95L474 119" stroke="url(#paint13_linear_452_37831)"/>
<path d="M486 107L462 107" stroke="url(#paint14_linear_452_37831)"/>
<circle cx="282" cy="108" r="2" fill="#093725" fill-opacity="0.63"/>
<circle cx="474" cy="12" r="2" fill="#093725" fill-opacity="0.63"/>
<circle cx="523" cy="204" r="2" fill="#093725" fill-opacity="0.63"/>
<circle cx="138" cy="156" r="2" fill="#093725" fill-opacity="0.63"/>
<rect x="522" y="60" width="49" height="48" fill="#0D8B06"/>
<rect x="90" y="204" width="49" height="48" fill="#0D8B06"/>
<rect x="619" y="204" width="49" height="48" fill="#0D8B06"/>
</g>
</g>
<g opacity="0.8">
<mask id="mask1_452_37831" style="mask-type:alpha" maskUnits="userSpaceOnUse" x="631" y="-218" width="768" height="768">
<rect width="768" height="768" transform="matrix(-1 0 0 1 1399 -218)" fill="url(#paint15_radial_452_37831)"/>
</mask>
<g mask="url(#mask1_452_37831)">
<g clip-path="url(#clip3_452_37831)">
<g opacity="0.5">
<g clip-path="url(#clip4_452_37831)">
<line y1="-0.3" x2="768" y2="-0.3" transform="matrix(0 1 1 0 1389 -278)" stroke="#093725" stroke-opacity="0.63" stroke-width="0.6"/>
<line y1="-0.3" x2="768" y2="-0.3" transform="matrix(0 1 1 0 1341 -278)" stroke="#093725" stroke-opacity="0.63" stroke-width="0.6"/>
<line y1="-0.3" x2="768" y2="-0.3" transform="matrix(0 1 1 0 1293 -278)" stroke="#093725" stroke-opacity="0.63" stroke-width="0.6"/>
<line y1="-0.3" x2="768" y2="-0.3" transform="matrix(0 1 1 0 1245 -278)" stroke="#093725" stroke-opacity="0.63" stroke-width="0.6"/>
<line y1="-0.3" x2="768" y2="-0.3" transform="matrix(0 1 1 0 1197 -278)" stroke="#093725" stroke-opacity="0.63" stroke-width="0.6"/>
<line y1="-0.3" x2="768" y2="-0.3" transform="matrix(0 1 1 0 1149 -278)" stroke="#093725" stroke-opacity="0.63" stroke-width="0.6"/>
<line y1="-0.3" x2="768" y2="-0.3" transform="matrix(0 1 1 0 1101 -278)" stroke="#093725" stroke-opacity="0.63" stroke-width="0.6"/>
<line y1="-0.3" x2="768" y2="-0.3" transform="matrix(0 1 1 0 1053 -278)" stroke="#093725" stroke-opacity="0.63" stroke-width="0.6"/>
<line y1="-0.3" x2="768" y2="-0.3" transform="matrix(0 1 1 0 1005 -278)" stroke="#093725" stroke-opacity="0.63" stroke-width="0.6"/>
<line y1="-0.3" x2="768" y2="-0.3" transform="matrix(0 1 1 0 957 -278)" stroke="#093725" stroke-opacity="0.63" stroke-width="0.6"/>
<line y1="-0.3" x2="768" y2="-0.3" transform="matrix(0 1 1 0 909 -278)" stroke="#093725" stroke-opacity="0.63" stroke-width="0.6"/>
<line y1="-0.3" x2="768" y2="-0.3" transform="matrix(0 1 1 0 861 -278)" stroke="#093725" stroke-opacity="0.63" stroke-width="0.6"/>
<line y1="-0.3" x2="768" y2="-0.3" transform="matrix(0 1 1 0 813 -278)" stroke="#093725" stroke-opacity="0.63" stroke-width="0.6"/>
<line y1="-0.3" x2="768" y2="-0.3" transform="matrix(0 1 1 0 765 -278)" stroke="#093725" stroke-opacity="0.63" stroke-width="0.6"/>
<line y1="-0.3" x2="768" y2="-0.3" transform="matrix(0 1 1 0 717 -278)" stroke="#093725" stroke-opacity="0.63" stroke-width="0.6"/>
<line y1="-0.3" x2="768" y2="-0.3" transform="matrix(0 1 1 0 669 -278)" stroke="#093725" stroke-opacity="0.63" stroke-width="0.6"/>
</g>
<rect x="-0.5" y="0.5" width="767" height="767" transform="matrix(-1 0 0 1 1388 -278)" stroke="#1F242F"/>
</g>
<g opacity="0.5">
<g clip-path="url(#clip5_452_37831)">
<line y1="-0.3" x2="768" y2="-0.3" transform="matrix(-1 0 0 1 1389 10)" stroke="#093725" stroke-opacity="0.63" stroke-width="0.6"/>
<line y1="-0.3" x2="768" y2="-0.3" transform="matrix(-1 0 0 1 1389 58)" stroke="#093725" stroke-opacity="0.63" stroke-width="0.6"/>
<line y1="-0.3" x2="768" y2="-0.3" transform="matrix(-1 0 0 1 1389 106)" stroke="#093725" stroke-opacity="0.63" stroke-width="0.6"/>
<line y1="-0.3" x2="768" y2="-0.3" transform="matrix(-1 0 0 1 1389 154)" stroke="#093725" stroke-opacity="0.63" stroke-width="0.6"/>
<line y1="-0.3" x2="768" y2="-0.3" transform="matrix(-1 0 0 1 1389 202)" stroke="#093725" stroke-opacity="0.63" stroke-width="0.6"/>
<line y1="-0.3" x2="768" y2="-0.3" transform="matrix(-1 0 0 1 1389 250)" stroke="#093725" stroke-opacity="0.63" stroke-width="0.6"/>
<line y1="-0.3" x2="768" y2="-0.3" transform="matrix(-1 0 0 1 1389 298)" stroke="#093725" stroke-opacity="0.63" stroke-width="0.6"/>
<line y1="-0.3" x2="768" y2="-0.3" transform="matrix(-1 0 0 1 1389 346)" stroke="#093725" stroke-opacity="0.63" stroke-width="0.6"/>
<line y1="-0.3" x2="768" y2="-0.3" transform="matrix(-1 0 0 1 1389 394)" stroke="#093725" stroke-opacity="0.63" stroke-width="0.6"/>
<line y1="-0.3" x2="768" y2="-0.3" transform="matrix(-1 0 0 1 1389 442)" stroke="#093725" stroke-opacity="0.63" stroke-width="0.6"/>
<line y1="-0.3" x2="768" y2="-0.3" transform="matrix(-1 0 0 1 1389 490)" stroke="#093725" stroke-opacity="0.63" stroke-width="0.6"/>
</g>
<rect x="-0.5" y="0.5" width="767" height="767" transform="matrix(-1 0 0 1 1388 -278)" stroke="#1F242F"/>
</g>
</g>
<path d="M1005 -2L1005 22" stroke="url(#paint16_linear_452_37831)"/>
<path d="M993 10L1017 10" stroke="url(#paint17_linear_452_37831)"/>
<path d="M1149 98L1149 114" stroke="url(#paint18_linear_452_37831)"/>
<path d="M1137 106L1161 106" stroke="url(#paint19_linear_452_37831)"/>
<path d="M764 240L764 258" stroke="url(#paint20_linear_452_37831)"/>
<path d="M755 249L773 249" stroke="url(#paint21_linear_452_37831)"/>
<path d="M813 98L813 114" stroke="url(#paint22_linear_452_37831)"/>
<path d="M805 106L821 106" stroke="url(#paint23_linear_452_37831)"/>
<path d="M1196 193L1196 211" stroke="url(#paint24_linear_452_37831)"/>
<path d="M1187 202L1205 202" stroke="url(#paint25_linear_452_37831)"/>
<path d="M909 45L909 69" stroke="url(#paint26_linear_452_37831)"/>
<path d="M897 57L921 57" stroke="url(#paint27_linear_452_37831)"/>
<circle cx="2" cy="2" r="2" transform="matrix(-1 0 0 1 1103 56)" fill="#093725" fill-opacity="0.63"/>
<circle cx="2" cy="2" r="2" transform="matrix(-1 0 0 1 862 152)" fill="#093725" fill-opacity="0.63"/>
<circle cx="2" cy="2" r="2" transform="matrix(-1 0 0 1 1247 104)" fill="#093725" fill-opacity="0.63"/>
<rect width="49" height="48" transform="matrix(-1 0 0 1 861 10)" fill="#0D8B06"/>
<rect width="49" height="48" transform="matrix(-1 0 0 1 1293 154)" fill="#0D8B06"/>
<rect width="49" height="48" transform="matrix(-1 0 0 1 764 154)" fill="#0D8B06"/>
</g>
</g>
<defs>
<radialGradient id="paint0_radial_452_37831" cx="0" cy="0" r="1" gradientUnits="userSpaceOnUse" gradientTransform="translate(384 384) rotate(90) scale(384 384)">
<stop/>
<stop offset="1" stop-opacity="0"/>
</radialGradient>
<linearGradient id="paint1_linear_452_37831" x1="378" y1="72" x2="378" y2="48" gradientUnits="userSpaceOnUse">
<stop stop-color="white" stop-opacity="0"/>
<stop offset="0.50284" stop-color="white"/>
<stop offset="1" stop-color="white" stop-opacity="0"/>
</linearGradient>
<linearGradient id="paint2_linear_452_37831" x1="366" y1="60" x2="390" y2="60" gradientUnits="userSpaceOnUse">
<stop stop-color="white" stop-opacity="0"/>
<stop offset="0.50284" stop-color="white"/>
<stop offset="1" stop-color="white" stop-opacity="0"/>
</linearGradient>
<linearGradient id="paint3_linear_452_37831" x1="234" y1="164" x2="234" y2="148" gradientUnits="userSpaceOnUse">
<stop stop-color="white" stop-opacity="0"/>
<stop offset="0.50284" stop-color="white"/>
<stop offset="1" stop-color="white" stop-opacity="0"/>
</linearGradient>
<linearGradient id="paint4_linear_452_37831" x1="222" y1="156" x2="246" y2="156" gradientUnits="userSpaceOnUse">
<stop stop-color="white" stop-opacity="0"/>
<stop offset="0.50284" stop-color="white"/>
<stop offset="1" stop-color="white" stop-opacity="0"/>
</linearGradient>
<linearGradient id="paint5_linear_452_37831" x1="619" y1="308" x2="619" y2="290" gradientUnits="userSpaceOnUse">
<stop stop-color="white" stop-opacity="0"/>
<stop offset="0.50284" stop-color="white"/>
<stop offset="1" stop-color="white" stop-opacity="0"/>
</linearGradient>
<linearGradient id="paint6_linear_452_37831" x1="610" y1="299" x2="628" y2="299" gradientUnits="userSpaceOnUse">
<stop stop-color="white" stop-opacity="0"/>
<stop offset="0.50284" stop-color="white"/>
<stop offset="1" stop-color="white" stop-opacity="0"/>
</linearGradient>
<linearGradient id="paint7_linear_452_37831" x1="570" y1="164" x2="570" y2="148" gradientUnits="userSpaceOnUse">
<stop stop-color="white" stop-opacity="0"/>
<stop offset="0.50284" stop-color="white"/>
<stop offset="1" stop-color="white" stop-opacity="0"/>
</linearGradient>
<linearGradient id="paint8_linear_452_37831" x1="562" y1="156" x2="578" y2="156" gradientUnits="userSpaceOnUse">
<stop stop-color="white" stop-opacity="0"/>
<stop offset="0.50284" stop-color="white"/>
<stop offset="1" stop-color="white" stop-opacity="0"/>
</linearGradient>
<linearGradient id="paint9_linear_452_37831" x1="187" y1="261" x2="187" y2="243" gradientUnits="userSpaceOnUse">
<stop stop-color="white" stop-opacity="0"/>
<stop offset="0.50284" stop-color="white"/>
<stop offset="1" stop-color="white" stop-opacity="0"/>
</linearGradient>
<linearGradient id="paint10_linear_452_37831" x1="178" y1="252" x2="196" y2="252" gradientUnits="userSpaceOnUse">
<stop stop-color="white" stop-opacity="0"/>
<stop offset="0.50284" stop-color="white"/>
<stop offset="1" stop-color="white" stop-opacity="0"/>
</linearGradient>
<linearGradient id="paint11_linear_452_37831" x1="571" y1="24" x2="571" y2="0" gradientUnits="userSpaceOnUse">
<stop stop-color="white" stop-opacity="0"/>
<stop offset="0.50284" stop-color="white"/>
<stop offset="1" stop-color="white" stop-opacity="0"/>
</linearGradient>
<linearGradient id="paint12_linear_452_37831" x1="559" y1="12" x2="583" y2="12" gradientUnits="userSpaceOnUse">
<stop stop-color="white" stop-opacity="0"/>
<stop offset="0.50284" stop-color="white"/>
<stop offset="1" stop-color="white" stop-opacity="0"/>
</linearGradient>
<linearGradient id="paint13_linear_452_37831" x1="474" y1="119" x2="474" y2="95" gradientUnits="userSpaceOnUse">
<stop stop-color="white" stop-opacity="0"/>
<stop offset="0.50284" stop-color="white"/>
<stop offset="1" stop-color="white" stop-opacity="0"/>
</linearGradient>
<linearGradient id="paint14_linear_452_37831" x1="462" y1="107" x2="486" y2="107" gradientUnits="userSpaceOnUse">
<stop stop-color="white" stop-opacity="0"/>
<stop offset="0.50284" stop-color="white"/>
<stop offset="1" stop-color="white" stop-opacity="0"/>
</linearGradient>
<radialGradient id="paint15_radial_452_37831" cx="0" cy="0" r="1" gradientUnits="userSpaceOnUse" gradientTransform="translate(384 384) rotate(90) scale(384 384)">
<stop/>
<stop offset="1" stop-opacity="0"/>
</radialGradient>
<linearGradient id="paint16_linear_452_37831" x1="1005" y1="22" x2="1005" y2="-2" gradientUnits="userSpaceOnUse">
<stop stop-color="white" stop-opacity="0"/>
<stop offset="0.50284" stop-color="white"/>
<stop offset="1" stop-color="white" stop-opacity="0"/>
</linearGradient>
<linearGradient id="paint17_linear_452_37831" x1="1017" y1="10" x2="993" y2="10" gradientUnits="userSpaceOnUse">
<stop stop-color="white" stop-opacity="0"/>
<stop offset="0.50284" stop-color="white"/>
<stop offset="1" stop-color="white" stop-opacity="0"/>
</linearGradient>
<linearGradient id="paint18_linear_452_37831" x1="1149" y1="114" x2="1149" y2="98" gradientUnits="userSpaceOnUse">
<stop stop-color="white" stop-opacity="0"/>
<stop offset="0.50284" stop-color="white"/>
<stop offset="1" stop-color="white" stop-opacity="0"/>
</linearGradient>
<linearGradient id="paint19_linear_452_37831" x1="1161" y1="106" x2="1137" y2="106" gradientUnits="userSpaceOnUse">
<stop stop-color="white" stop-opacity="0"/>
<stop offset="0.50284" stop-color="white"/>
<stop offset="1" stop-color="white" stop-opacity="0"/>
</linearGradient>
<linearGradient id="paint20_linear_452_37831" x1="764" y1="258" x2="764" y2="240" gradientUnits="userSpaceOnUse">
<stop stop-color="white" stop-opacity="0"/>
<stop offset="0.50284" stop-color="white"/>
<stop offset="1" stop-color="white" stop-opacity="0"/>
</linearGradient>
<linearGradient id="paint21_linear_452_37831" x1="773" y1="249" x2="755" y2="249" gradientUnits="userSpaceOnUse">
<stop stop-color="white" stop-opacity="0"/>
<stop offset="0.50284" stop-color="white"/>
<stop offset="1" stop-color="white" stop-opacity="0"/>
</linearGradient>
<linearGradient id="paint22_linear_452_37831" x1="813" y1="114" x2="813" y2="98" gradientUnits="userSpaceOnUse">
<stop stop-color="white" stop-opacity="0"/>
<stop offset="0.50284" stop-color="white"/>
<stop offset="1" stop-color="white" stop-opacity="0"/>
</linearGradient>
<linearGradient id="paint23_linear_452_37831" x1="821" y1="106" x2="805" y2="106" gradientUnits="userSpaceOnUse">
<stop stop-color="white" stop-opacity="0"/>
<stop offset="0.50284" stop-color="white"/>
<stop offset="1" stop-color="white" stop-opacity="0"/>
</linearGradient>
<linearGradient id="paint24_linear_452_37831" x1="1196" y1="211" x2="1196" y2="193" gradientUnits="userSpaceOnUse">
<stop stop-color="white" stop-opacity="0"/>
<stop offset="0.50284" stop-color="white"/>
<stop offset="1" stop-color="white" stop-opacity="0"/>
</linearGradient>
<linearGradient id="paint25_linear_452_37831" x1="1205" y1="202" x2="1187" y2="202" gradientUnits="userSpaceOnUse">
<stop stop-color="white" stop-opacity="0"/>
<stop offset="0.50284" stop-color="white"/>
<stop offset="1" stop-color="white" stop-opacity="0"/>
</linearGradient>
<linearGradient id="paint26_linear_452_37831" x1="909" y1="69" x2="909" y2="45" gradientUnits="userSpaceOnUse">
<stop stop-color="white" stop-opacity="0"/>
<stop offset="0.50284" stop-color="white"/>
<stop offset="1" stop-color="white" stop-opacity="0"/>
</linearGradient>
<linearGradient id="paint27_linear_452_37831" x1="921" y1="57" x2="897" y2="57" gradientUnits="userSpaceOnUse">
<stop stop-color="white" stop-opacity="0"/>
<stop offset="0.50284" stop-color="white"/>
<stop offset="1" stop-color="white" stop-opacity="0"/>
</linearGradient>
<clipPath id="clip0_452_37831">
<rect width="768" height="768" fill="white" transform="translate(-6 -228)"/>
</clipPath>
<clipPath id="clip1_452_37831">
<rect x="-6" y="-228" width="768" height="768" fill="white"/>
</clipPath>
<clipPath id="clip2_452_37831">
<rect x="-6" y="-228" width="768" height="768" fill="white"/>
</clipPath>
<clipPath id="clip3_452_37831">
<rect width="768" height="768" fill="white" transform="matrix(-1 0 0 1 1389 -278)"/>
</clipPath>
<clipPath id="clip4_452_37831">
<rect width="768" height="768" transform="matrix(-1 0 0 1 1389 -278)" fill="white"/>
</clipPath>
<clipPath id="clip5_452_37831">
<rect width="768" height="768" transform="matrix(-1 0 0 1 1389 -278)" fill="white"/>
</clipPath>
</defs>
</svg>
