<svg width="93" height="1253" viewBox="0 0 93 1253" fill="none" xmlns="http://www.w3.org/2000/svg">
<g id="Group 1321323489">
<g id="Group 1321323487" opacity="0.5" filter="url(#filter0_f_503_388)">
<path id="Vector 3058" d="M89 4L46.5 31.0883L4 4L4 180.871L46.5 207.959L89 180.871L89 4Z" fill="url(#paint0_linear_503_388)" fill-opacity="0.8"/>
<path id="Vector 3059" d="M89 152.72L46.5 179.808L4 152.72L4 329.59L46.5 356.679L89 329.59L89 152.72Z" fill="url(#paint1_linear_503_388)" fill-opacity="0.8"/>
<path id="Vector 3060" d="M89 301.44L46.5 328.529L4 301.44L4 478.311L46.5 505.399L89 478.311L89 301.44Z" fill="url(#paint2_linear_503_388)" fill-opacity="0.8"/>
<path id="Vector 3061" d="M89 450.16L46.5 477.248L4 450.16L4 627.031L46.5 654.119L89 627.031L89 450.16Z" fill="url(#paint3_linear_503_388)" fill-opacity="0.8"/>
<path id="Vector 3062" d="M89 598.881L46.5 625.969L4 598.881L4 775.752L46.5 802.84L89 775.752L89 598.881Z" fill="url(#paint4_linear_503_388)" fill-opacity="0.8"/>
<path id="Vector 3063" d="M89 747.601L46.5 774.689L4 747.601L4 924.471L46.5 951.56L89 924.471L89 747.601Z" fill="url(#paint5_linear_503_388)" fill-opacity="0.8"/>
<path id="Vector 3064" d="M89 896.32L46.5 923.409L4 896.32L4 1073.19L46.5 1100.28L89 1073.19L89 896.32Z" fill="url(#paint6_linear_503_388)" fill-opacity="0.8"/>
<path id="Vector 3065" d="M89 1045.04L46.5 1072.13L4 1045.04L4 1221.91L46.5 1249L89 1221.91L89 1045.04Z" fill="url(#paint7_linear_503_388)" fill-opacity="0.8"/>
</g>
<g id="Group 1321323486">
<path id="Vector 3058_2" d="M77.5 59L45.25 84.5L13 59L13 225.5L45.25 251L77.5 225.5L77.5 59Z" fill="url(#paint8_linear_503_388)" fill-opacity="0.8"/>
<path id="Vector 3059_2" d="M77.5 199L45.25 224.5L13 199L13 365.5L45.25 391L77.5 365.5L77.5 199Z" fill="url(#paint9_linear_503_388)" fill-opacity="0.8"/>
<path id="Vector 3060_2" d="M77.5 339L45.25 364.5L13 339L13 505.5L45.25 531L77.5 505.5L77.5 339Z" fill="url(#paint10_linear_503_388)" fill-opacity="0.8"/>
<path id="Vector 3061_2" d="M77.5 479L45.25 504.5L13 479L13 645.5L45.25 671L77.5 645.5L77.5 479Z" fill="url(#paint11_linear_503_388)" fill-opacity="0.8"/>
<path id="Vector 3062_2" d="M77.5 619L45.25 644.5L13 619L13 785.5L45.25 811L77.5 785.5L77.5 619Z" fill="url(#paint12_linear_503_388)" fill-opacity="0.8"/>
<path id="Vector 3063_2" d="M77.5 759L45.25 784.5L13 759L13 925.5L45.25 951L77.5 925.5L77.5 759Z" fill="url(#paint13_linear_503_388)" fill-opacity="0.8"/>
<path id="Vector 3064_2" d="M77.5 899L45.25 924.5L13 899L13 1065.5L45.25 1091L77.5 1065.5L77.5 899Z" fill="url(#paint14_linear_503_388)" fill-opacity="0.8"/>
<path id="Vector 3065_2" d="M77.5 1039L45.25 1064.5L13 1039L13 1205.5L45.25 1231L77.5 1205.5L77.5 1039Z" fill="url(#paint15_linear_503_388)" fill-opacity="0.8"/>
</g>
</g>
<defs>
<filter id="filter0_f_503_388" x="0" y="0" width="93" height="1253" filterUnits="userSpaceOnUse" color-interpolation-filters="sRGB">
<feFlood flood-opacity="0" result="BackgroundImageFix"/>
<feBlend mode="normal" in="SourceGraphic" in2="BackgroundImageFix" result="shape"/>
<feGaussianBlur stdDeviation="2" result="effect1_foregroundBlur_503_388"/>
</filter>
<linearGradient id="paint0_linear_503_388" x1="46.5" y1="4" x2="46.5" y2="207.959" gradientUnits="userSpaceOnUse">
<stop stop-color="#D9F2DC"/>
<stop offset="1" stop-color="#7E8C7F"/>
</linearGradient>
<linearGradient id="paint1_linear_503_388" x1="46.5" y1="152.72" x2="46.5" y2="356.679" gradientUnits="userSpaceOnUse">
<stop stop-color="#3AB451"/>
<stop offset="1" stop-color="#194E23"/>
</linearGradient>
<linearGradient id="paint2_linear_503_388" x1="46.5" y1="301.44" x2="46.5" y2="505.399" gradientUnits="userSpaceOnUse">
<stop stop-color="#226048"/>
<stop offset="1" stop-color="#46C695"/>
</linearGradient>
<linearGradient id="paint3_linear_503_388" x1="46.5" y1="450.16" x2="46.5" y2="654.119" gradientUnits="userSpaceOnUse">
<stop stop-color="#093725"/>
<stop offset="1" stop-color="#1A9D6A"/>
</linearGradient>
<linearGradient id="paint4_linear_503_388" x1="46.5" y1="598.881" x2="46.5" y2="802.84" gradientUnits="userSpaceOnUse">
<stop stop-color="#D9F2DC"/>
<stop offset="1" stop-color="#7E8C7F"/>
</linearGradient>
<linearGradient id="paint5_linear_503_388" x1="46.5" y1="747.601" x2="46.5" y2="951.56" gradientUnits="userSpaceOnUse">
<stop stop-color="#3AB451"/>
<stop offset="1" stop-color="#194E23"/>
</linearGradient>
<linearGradient id="paint6_linear_503_388" x1="46.5" y1="896.32" x2="46.5" y2="1100.28" gradientUnits="userSpaceOnUse">
<stop stop-color="#226048"/>
<stop offset="1" stop-color="#46C695"/>
</linearGradient>
<linearGradient id="paint7_linear_503_388" x1="46.5" y1="1045.04" x2="46.5" y2="1249" gradientUnits="userSpaceOnUse">
<stop stop-color="#093725"/>
<stop offset="1" stop-color="#1A9D6A"/>
</linearGradient>
<linearGradient id="paint8_linear_503_388" x1="45.25" y1="59" x2="45.25" y2="251" gradientUnits="userSpaceOnUse">
<stop stop-color="#D9F2DC"/>
<stop offset="1" stop-color="#7E8C7F"/>
</linearGradient>
<linearGradient id="paint9_linear_503_388" x1="45.25" y1="199" x2="45.25" y2="391" gradientUnits="userSpaceOnUse">
<stop stop-color="#3AB451"/>
<stop offset="1" stop-color="#194E23"/>
</linearGradient>
<linearGradient id="paint10_linear_503_388" x1="45.25" y1="339" x2="45.25" y2="531" gradientUnits="userSpaceOnUse">
<stop stop-color="#226048"/>
<stop offset="1" stop-color="#46C695"/>
</linearGradient>
<linearGradient id="paint11_linear_503_388" x1="45.25" y1="479" x2="45.25" y2="671" gradientUnits="userSpaceOnUse">
<stop stop-color="#093725"/>
<stop offset="1" stop-color="#1A9D6A"/>
</linearGradient>
<linearGradient id="paint12_linear_503_388" x1="45.25" y1="619" x2="45.25" y2="811" gradientUnits="userSpaceOnUse">
<stop stop-color="#D9F2DC"/>
<stop offset="1" stop-color="#7E8C7F"/>
</linearGradient>
<linearGradient id="paint13_linear_503_388" x1="45.25" y1="759" x2="45.25" y2="951" gradientUnits="userSpaceOnUse">
<stop stop-color="#3AB451"/>
<stop offset="1" stop-color="#194E23"/>
</linearGradient>
<linearGradient id="paint14_linear_503_388" x1="45.25" y1="899" x2="45.25" y2="1091" gradientUnits="userSpaceOnUse">
<stop stop-color="#226048"/>
<stop offset="1" stop-color="#46C695"/>
</linearGradient>
<linearGradient id="paint15_linear_503_388" x1="45.25" y1="1039" x2="45.25" y2="1231" gradientUnits="userSpaceOnUse">
<stop stop-color="#093725"/>
<stop offset="1" stop-color="#1A9D6A"/>
</linearGradient>
</defs>
</svg>
