<svg width="1142" height="86" viewBox="0 0 1142 86" fill="none" xmlns="http://www.w3.org/2000/svg">
<rect width="1142" height="86" fill="#1E1E1E"/>
<g clip-path="url(#clip0_0_1)">
<rect width="1440" height="6015" transform="translate(-149 -1518)" fill="white"/>
<path d="M3 60.5663C3 60.5663 32.5 3.00012 96 3.00012C166.5 3.00012 173.5 83.0001 218 83.0001C270 83.0001 329 3.00012 379 3.00012C443.194 3.00012 449.306 83.0001 513.5 83.0001C583.5 83.0001 598 3 662.5 3.00012C720.177 3.00023 721.772 83.0001 776 83.0001C861.5 83.0001 867.5 3.00014 941 3.00012C998.228 3.00011 996.5 83.0001 1053 83.0001C1093.4 83.0001 1139 34.3229 1139 34.3229" stroke="#D9F2DC" stroke-width="6" stroke-linecap="round"/>
<circle cx="96" cy="3" r="6" fill="#3BB54A"/>
<circle cx="216" cy="83" r="6" fill="#3BB54A"/>
<circle cx="380" cy="3" r="6" fill="#3BB54A"/>
<circle cx="502" cy="83" r="6" fill="#3BB54A"/>
<circle cx="662" cy="3" r="6" fill="#3BB54A"/>
<circle cx="774" cy="83" r="6" fill="#3BB54A"/>
<circle cx="944" cy="3" r="6" fill="#3BB54A"/>
<circle cx="1054" cy="83" r="6" fill="#3BB54A"/>
</g>
<defs>
<clipPath id="clip0_0_1">
<rect width="1440" height="6015" fill="white" transform="translate(-149 -1518)"/>
</clipPath>
</defs>
</svg>
