<svg width="587" height="402" viewBox="0 0 587 402" fill="none" xmlns="http://www.w3.org/2000/svg">
<g filter="url(#filter0_bd_63_262)">
<rect x="513.469" y="394" width="508.779" height="394" rx="27" transform="rotate(-180 513.469 394)" fill="url(#paint0_radial_63_262)" fill-opacity="0.2" shape-rendering="crispEdges"/>
<rect x="513.469" y="394" width="508.779" height="394" rx="27" transform="rotate(-180 513.469 394)" fill="#EAE7E7" fill-opacity="0.2" shape-rendering="crispEdges"/>
<rect x="512.969" y="393.5" width="507.779" height="393" rx="26.5" transform="rotate(-180 512.969 393.5)" stroke="white" shape-rendering="crispEdges"/>
</g>
<rect x="31.2979" y="32.5056" width="458.784" height="56.3894" rx="9.5" fill="white"/>
<rect x="31.2979" y="32.5056" width="458.784" height="56.3894" rx="9.5" stroke="#F3F2F2"/>
<path d="M50.6219 64.2203H45.7579L44.8619 66.7003H43.3259L47.3579 55.6123H49.0379L53.0539 66.7003H51.5179L50.6219 64.2203ZM50.2059 63.0363L48.1899 57.4043L46.1739 63.0363H50.2059ZM57.9151 66.8443C57.2431 66.8443 56.6404 66.7323 56.1071 66.5083C55.5738 66.2737 55.1524 65.9537 54.8431 65.5483C54.5338 65.1323 54.3631 64.6577 54.3311 64.1243H55.8351C55.8778 64.5617 56.0804 64.919 56.4431 65.1963C56.8164 65.4737 57.3018 65.6123 57.8991 65.6123C58.4538 65.6123 58.8911 65.4897 59.2111 65.2443C59.5311 64.999 59.6911 64.6897 59.6911 64.3163C59.6911 63.9323 59.5204 63.6497 59.1791 63.4683C58.8378 63.2763 58.3098 63.0897 57.5951 62.9083C56.9444 62.7377 56.4111 62.567 55.9951 62.3963C55.5898 62.215 55.2378 61.9537 54.9391 61.6123C54.6511 61.2603 54.5071 60.8017 54.5071 60.2363C54.5071 59.7883 54.6404 59.3777 54.9071 59.0043C55.1738 58.631 55.5524 58.3377 56.0431 58.1243C56.5338 57.9003 57.0938 57.7883 57.7231 57.7883C58.6938 57.7883 59.4778 58.0337 60.0751 58.5243C60.6724 59.015 60.9924 59.687 61.0351 60.5403H59.5791C59.5471 60.0817 59.3604 59.7137 59.0191 59.4363C58.6884 59.159 58.2404 59.0203 57.6751 59.0203C57.1524 59.0203 56.7364 59.1323 56.4271 59.3563C56.1178 59.5803 55.9631 59.8737 55.9631 60.2363C55.9631 60.5243 56.0538 60.7643 56.2351 60.9563C56.4271 61.1377 56.6618 61.287 56.9391 61.4043C57.2271 61.511 57.6218 61.6337 58.1231 61.7723C58.7524 61.943 59.2644 62.1137 59.6591 62.2843C60.0538 62.4443 60.3898 62.6897 60.6671 63.0203C60.9551 63.351 61.1044 63.783 61.1151 64.3163C61.1151 64.7963 60.9818 65.2283 60.7151 65.6123C60.4484 65.9963 60.0698 66.3003 59.5791 66.5243C59.0991 66.7377 58.5444 66.8443 57.9151 66.8443ZM68.0665 66.7003L64.6265 62.8283V66.7003H63.1705V54.8603H64.6265V61.8203L68.0025 57.9323H70.0345L65.9065 62.3003L70.0505 66.7003H68.0665ZM75.1265 62.2843C75.1265 61.3883 75.3078 60.6043 75.6705 59.9323C76.0331 59.2497 76.5291 58.7217 77.1585 58.3483C77.7985 57.975 78.5078 57.7883 79.2865 57.7883C80.0545 57.7883 80.7211 57.9537 81.2865 58.2843C81.8518 58.615 82.2731 59.031 82.5505 59.5323V57.9323H84.0225V66.7003H82.5505V65.0683C82.2625 65.5803 81.8305 66.007 81.2545 66.3483C80.6891 66.679 80.0278 66.8443 79.2705 66.8443C78.4918 66.8443 77.7878 66.6523 77.1585 66.2683C76.5291 65.8843 76.0331 65.3457 75.6705 64.6523C75.3078 63.959 75.1265 63.1697 75.1265 62.2843ZM82.5505 62.3003C82.5505 61.639 82.4171 61.063 82.1505 60.5723C81.8838 60.0817 81.5211 59.7083 81.0625 59.4523C80.6145 59.1857 80.1185 59.0523 79.5745 59.0523C79.0305 59.0523 78.5345 59.1803 78.0865 59.4363C77.6385 59.6923 77.2811 60.0657 77.0145 60.5563C76.7478 61.047 76.6145 61.623 76.6145 62.2843C76.6145 62.9563 76.7478 63.543 77.0145 64.0443C77.2811 64.535 77.6385 64.9137 78.0865 65.1803C78.5345 65.4363 79.0305 65.5643 79.5745 65.5643C80.1185 65.5643 80.6145 65.4363 81.0625 65.1803C81.5211 64.9137 81.8838 64.535 82.1505 64.0443C82.4171 63.543 82.5505 62.9617 82.5505 62.3003ZM90.755 57.7723C91.8216 57.7723 92.6856 58.0977 93.347 58.7483C94.0083 59.3883 94.339 60.3163 94.339 61.5323V66.7003H92.899V61.7403C92.899 60.8657 92.6803 60.199 92.243 59.7403C91.8056 59.271 91.2083 59.0363 90.451 59.0363C89.683 59.0363 89.0696 59.2763 88.611 59.7563C88.163 60.2363 87.939 60.935 87.939 61.8523V66.7003H86.483V57.9323H87.939V59.1803C88.227 58.7323 88.6163 58.3857 89.107 58.1403C89.6083 57.895 90.1576 57.7723 90.755 57.7723ZM104.269 57.9323L98.9894 70.8283H97.4854L99.2134 66.6043L95.6774 57.9323H97.2934L100.045 65.0363L102.765 57.9323H104.269ZM107.509 59.1323V64.3003C107.509 64.727 107.6 65.031 107.781 65.2123C107.962 65.383 108.277 65.4683 108.725 65.4683H109.797V66.7003H108.485C107.674 66.7003 107.066 66.5137 106.661 66.1403C106.256 65.767 106.053 65.1537 106.053 64.3003V59.1323H104.917V57.9323H106.053V55.7243H107.509V57.9323H109.797V59.1323H107.509ZM115.913 57.7723C116.574 57.7723 117.172 57.9163 117.705 58.2043C118.238 58.4817 118.654 58.903 118.953 59.4683C119.262 60.0337 119.417 60.7217 119.417 61.5323V66.7003H117.977V61.7403C117.977 60.8657 117.758 60.199 117.321 59.7403C116.884 59.271 116.286 59.0363 115.529 59.0363C114.761 59.0363 114.148 59.2763 113.689 59.7563C113.241 60.2363 113.017 60.935 113.017 61.8523V66.7003H111.561V54.8603H113.017V59.1803C113.305 58.7323 113.7 58.3857 114.201 58.1403C114.713 57.895 115.284 57.7723 115.913 57.7723ZM122.547 56.5083C122.27 56.5083 122.035 56.4123 121.843 56.2203C121.651 56.0283 121.555 55.7936 121.555 55.5163C121.555 55.239 121.651 55.0043 121.843 54.8123C122.035 54.6203 122.27 54.5243 122.547 54.5243C122.814 54.5243 123.038 54.6203 123.219 54.8123C123.411 55.0043 123.507 55.239 123.507 55.5163C123.507 55.7936 123.411 56.0283 123.219 56.2203C123.038 56.4123 122.814 56.5083 122.547 56.5083ZM123.251 57.9323V66.7003H121.795V57.9323H123.251ZM130.005 57.7723C131.072 57.7723 131.936 58.0977 132.597 58.7483C133.258 59.3883 133.589 60.3163 133.589 61.5323V66.7003H132.149V61.7403C132.149 60.8657 131.93 60.199 131.493 59.7403C131.056 59.271 130.458 59.0363 129.701 59.0363C128.933 59.0363 128.32 59.2763 127.861 59.7563C127.413 60.2363 127.189 60.935 127.189 61.8523V66.7003H125.733V57.9323H127.189V59.1803C127.477 58.7323 127.866 58.3857 128.357 58.1403C128.858 57.895 129.408 57.7723 130.005 57.7723ZM139.583 57.7883C140.341 57.7883 141.002 57.9537 141.567 58.2843C142.143 58.615 142.57 59.031 142.847 59.5323V57.9323H144.319V66.8923C144.319 67.6923 144.149 68.4017 143.807 69.0203C143.466 69.6497 142.975 70.1403 142.335 70.4923C141.706 70.8443 140.97 71.0203 140.127 71.0203C138.975 71.0203 138.015 70.7483 137.247 70.2043C136.479 69.6603 136.026 68.919 135.887 67.9803H137.327C137.487 68.5137 137.818 68.9403 138.319 69.2603C138.821 69.591 139.423 69.7563 140.127 69.7563C140.927 69.7563 141.578 69.5057 142.079 69.0043C142.591 68.503 142.847 67.799 142.847 66.8923V65.0523C142.559 65.5643 142.133 65.991 141.567 66.3323C141.002 66.6737 140.341 66.8443 139.583 66.8443C138.805 66.8443 138.095 66.6523 137.455 66.2683C136.826 65.8843 136.33 65.3457 135.967 64.6523C135.605 63.959 135.423 63.1697 135.423 62.2843C135.423 61.3883 135.605 60.6043 135.967 59.9323C136.33 59.2497 136.826 58.7217 137.455 58.3483C138.095 57.975 138.805 57.7883 139.583 57.7883ZM142.847 62.3003C142.847 61.639 142.714 61.063 142.447 60.5723C142.181 60.0817 141.818 59.7083 141.359 59.4523C140.911 59.1857 140.415 59.0523 139.871 59.0523C139.327 59.0523 138.831 59.1803 138.383 59.4363C137.935 59.6923 137.578 60.0657 137.311 60.5563C137.045 61.047 136.911 61.623 136.911 62.2843C136.911 62.9563 137.045 63.543 137.311 64.0443C137.578 64.535 137.935 64.9137 138.383 65.1803C138.831 65.4363 139.327 65.5643 139.871 65.5643C140.415 65.5643 140.911 65.4363 141.359 65.1803C141.818 64.9137 142.181 64.535 142.447 64.0443C142.714 63.543 142.847 62.9617 142.847 62.3003ZM147.244 66.7963C146.967 66.7963 146.732 66.7003 146.54 66.5083C146.348 66.3163 146.252 66.0817 146.252 65.8043C146.252 65.527 146.348 65.2923 146.54 65.1003C146.732 64.9083 146.967 64.8123 147.244 64.8123C147.511 64.8123 147.735 64.9083 147.916 65.1003C148.108 65.2923 148.204 65.527 148.204 65.8043C148.204 66.0817 148.108 66.3163 147.916 66.5083C147.735 66.7003 147.511 66.7963 147.244 66.7963ZM150.603 66.7963C150.326 66.7963 150.091 66.7003 149.899 66.5083C149.707 66.3163 149.611 66.0817 149.611 65.8043C149.611 65.527 149.707 65.2923 149.899 65.1003C150.091 64.9083 150.326 64.8123 150.603 64.8123C150.87 64.8123 151.094 64.9083 151.275 65.1003C151.467 65.2923 151.563 65.527 151.563 65.8043C151.563 66.0817 151.467 66.3163 151.275 66.5083C151.094 66.7003 150.87 66.7963 150.603 66.7963ZM153.963 66.7963C153.685 66.7963 153.451 66.7003 153.259 66.5083C153.067 66.3163 152.971 66.0817 152.971 65.8043C152.971 65.527 153.067 65.2923 153.259 65.1003C153.451 64.9083 153.685 64.8123 153.963 64.8123C154.229 64.8123 154.453 64.9083 154.635 65.1003C154.827 65.2923 154.923 65.527 154.923 65.8043C154.923 66.0817 154.827 66.3163 154.635 66.5083C154.453 66.7003 154.229 66.7963 153.963 66.7963Z" fill="#867D7D"/>
<rect x="342.639" y="38.6274" width="139.24" height="44.1457" rx="5" fill="#D9F2DC"/>
<path d="M371.408 62.6914C369.782 62.6914 368.64 62.2434 367.984 61.3474C367.334 60.4461 367.008 59.0621 367.008 57.1954C367.008 55.3128 367.342 53.9314 368.008 53.0514C368.675 52.1714 369.864 51.7314 371.576 51.7314C373.192 51.7314 374.32 52.1341 374.96 52.9394C375.6 53.7394 375.934 54.7074 375.96 55.8434H374.008C373.971 54.8674 373.763 54.1634 373.384 53.7314C373.011 53.2941 372.408 53.0754 371.576 53.0754C370.723 53.0754 370.075 53.3341 369.632 53.8514C369.195 54.3688 368.976 55.5048 368.976 57.2594C368.976 58.8594 369.195 59.9421 369.632 60.5074C370.075 61.0674 370.726 61.3474 371.584 61.3474C372.39 61.3474 372.976 61.1741 373.344 60.8274C373.718 60.4808 373.92 59.9154 373.952 59.1314L373.96 58.4594H371.76V57.2834H375.96V62.6274H374.848L374.632 61.0754C374.216 62.1421 373.142 62.6808 371.408 62.6914ZM377.644 62.6274V51.8274H385.012V53.1714H379.596V56.4754H384.668V57.7634H379.596V61.2834H385.012V62.6274H377.644ZM386.504 62.6274V51.8274H389.624L394.296 61.1234H394.32L394.336 51.8274H396.28V62.6274H393.192L388.488 53.2274H388.448V62.6274H386.504ZM397.956 62.6274V51.8274H405.324V53.1714H399.908V56.4754H404.98V57.7634H399.908V61.2834H405.324V62.6274H397.956ZM406.816 62.6274V51.8274H412.368C413.461 51.8274 414.195 52.1368 414.568 52.7554C414.947 53.3688 415.136 54.1128 415.136 54.9874C415.136 55.8568 414.941 56.5874 414.552 57.1794C414.163 57.7714 413.411 58.0674 412.296 58.0674H408.776V62.6274H406.816ZM413.144 62.6274L410.952 57.5474L412.896 57.4434L415.264 62.6274H413.144ZM408.776 56.8514H411.744C412.293 56.8514 412.669 56.6861 412.872 56.3554C413.075 56.0248 413.176 55.5768 413.176 55.0114C413.176 54.4461 413.072 53.9981 412.864 53.6674C412.661 53.3368 412.288 53.1714 411.744 53.1714H408.776V56.8514ZM416.125 62.6274L419.693 51.8114H422.477L426.045 62.6274H424.029L423.149 59.7394H419.037L418.149 62.6274H416.125ZM419.365 58.4354H422.821L421.101 52.9634H421.077L419.365 58.4354ZM428.703 62.6274V53.1714H425.423V51.8274H433.935V53.1714H430.655V62.6274H428.703ZM435.16 62.6274V51.8274H442.528V53.1714H437.112V56.4754H442.184V57.7634H437.112V61.2834H442.528V62.6274H435.16Z" fill="#226048"/>
<rect x="31.1777" y="104.294" width="459.115" height="248.319" rx="10" fill="white"/>
<rect x="54.0044" y="176.577" width="6" height="110" rx="3" fill="url(#paint1_linear_63_262)"/>
<rect x="64.0044" y="188.577" width="6" height="98" rx="3" fill="url(#paint2_linear_63_262)"/>
<rect x="74.0044" y="226.577" width="6" height="60" rx="3" fill="url(#paint3_linear_63_262)"/>
<rect x="84.0044" y="204.577" width="6" height="82" rx="3" fill="url(#paint4_linear_63_262)"/>
<rect x="94.0044" y="188.577" width="6" height="98" rx="3" fill="url(#paint5_linear_63_262)"/>
<rect x="104.004" y="166.577" width="6" height="120" rx="3" fill="url(#paint6_linear_63_262)"/>
<rect x="114.004" y="204.577" width="6" height="82" rx="3" fill="url(#paint7_linear_63_262)"/>
<rect x="124.004" y="185.577" width="6" height="101" rx="3" fill="url(#paint8_linear_63_262)"/>
<rect x="134.004" y="144.577" width="6" height="142" rx="3" fill="url(#paint9_linear_63_262)"/>
<rect x="144.004" y="204.577" width="6" height="82" rx="3" fill="url(#paint10_linear_63_262)"/>
<rect x="154.004" y="185.577" width="6" height="101" rx="3" fill="url(#paint11_linear_63_262)"/>
<rect x="164.004" y="171.577" width="6" height="115" rx="3" fill="url(#paint12_linear_63_262)"/>
<rect x="174.004" y="204.577" width="6" height="82" rx="3" fill="url(#paint13_linear_63_262)"/>
<rect x="184.004" y="144.577" width="6" height="142" rx="3" fill="url(#paint14_linear_63_262)"/>
<rect x="194.004" y="204.577" width="6" height="82" rx="3" fill="url(#paint15_linear_63_262)"/>
<rect x="204.004" y="185.577" width="6" height="101" rx="3" fill="url(#paint16_linear_63_262)"/>
<rect x="214.004" y="171.577" width="6" height="115" rx="3" fill="url(#paint17_linear_63_262)"/>
<rect x="224.004" y="204.577" width="6" height="82" rx="3" fill="url(#paint18_linear_63_262)"/>
<rect x="265.767" y="166.65" width="320.543" height="31" rx="15.5" fill="#D9F2DC"/>
<path d="M346.972 186.15L350.094 176.686H352.53L355.652 186.15H353.888L353.118 183.623H349.52L348.743 186.15H346.972ZM349.807 182.482H352.831L351.326 177.694H351.305L349.807 182.482ZM356.592 186.15V184.974L360.554 179.038V179.024H356.627V177.855H362.5V179.024L358.608 184.953V184.981H362.584V186.15H356.592ZM369.497 186.15L369.119 184.771V177.855H370.806V186.15H369.497ZM365.5 177.848V182.482C365.5 183.434 365.63 184.099 365.892 184.477C366.158 184.855 366.564 185.044 367.11 185.044C367.674 185.044 368.15 184.839 368.538 184.428C368.93 184.017 369.126 183.49 369.126 182.846L369.959 183.28C369.959 183.971 369.651 184.633 369.035 185.268C368.419 185.903 367.576 186.22 366.508 186.22C365.504 186.22 364.804 185.896 364.408 185.247C364.011 184.594 363.813 183.695 363.813 182.552V177.848H365.5ZM377.414 181.782C377.414 180.671 377.283 179.925 377.022 179.542C376.76 179.155 376.38 178.961 375.881 178.961C375.311 178.961 374.861 179.155 374.53 179.542C374.203 179.925 374.04 180.359 374.04 180.844L373.389 180.41C373.389 179.677 373.671 179.057 374.236 178.548C374.805 178.035 375.561 177.778 376.504 177.778C377.493 177.778 378.174 178.1 378.548 178.744C378.921 179.383 379.108 180.396 379.108 181.782H377.414ZM372.36 186.15V177.855H373.676L374.047 179.409V186.15H372.36ZM383.976 186.22C382.604 186.22 381.628 185.844 381.05 185.093C380.462 184.342 380.168 183.306 380.168 181.985C380.168 180.604 380.466 179.556 381.064 178.842C381.656 178.128 382.618 177.771 383.948 177.771C385.32 177.771 386.29 178.128 386.86 178.842C387.424 179.565 387.707 180.608 387.707 181.971C387.707 182.162 387.695 182.337 387.672 182.496H381.631V181.46H385.999C385.957 180.531 385.784 179.878 385.481 179.5C385.117 179.085 384.608 178.877 383.955 178.877C383.315 178.877 382.797 179.099 382.401 179.542C382.004 179.981 381.806 180.797 381.806 181.992C381.806 183.131 381.999 183.933 382.387 184.4C382.769 184.876 383.299 185.114 383.976 185.114V186.22ZM383.976 185.114C384.363 185.114 384.699 185.053 384.984 184.932C385.268 184.806 385.488 184.596 385.642 184.302C385.796 184.003 385.915 183.667 385.999 183.294L387.518 183.714C387.434 184.274 387.24 184.743 386.937 185.121C386.633 185.504 386.248 185.781 385.782 185.954C385.32 186.131 384.718 186.22 383.976 186.22V185.114ZM388.675 187.802L389.417 185.268H391.041L389.676 187.802H388.675ZM399.975 186.206C398.486 186.206 397.443 185.816 396.846 185.037C396.253 184.258 395.957 183.047 395.957 181.404C395.957 179.761 396.253 178.553 396.846 177.778C397.443 177.003 398.486 176.616 399.975 176.616C401.463 176.616 402.478 176.98 403.02 177.708C403.561 178.431 403.832 179.344 403.832 180.445H402.103C402.103 179.465 401.921 178.779 401.557 178.387C401.197 177.995 400.665 177.799 399.961 177.799C399.247 177.799 398.689 178.021 398.288 178.464C397.886 178.907 397.686 179.887 397.686 181.404C397.686 182.925 397.886 183.91 398.288 184.358C398.689 184.806 399.247 185.03 399.961 185.03C400.661 185.03 401.193 184.829 401.557 184.428C401.921 184.022 402.103 183.338 402.103 182.377H403.832C403.832 183.45 403.559 184.358 403.013 185.1C402.471 185.837 401.459 186.206 399.975 186.206ZM408.811 186.213C407.49 186.213 406.524 185.861 405.913 185.156C405.301 184.451 404.996 183.392 404.996 181.978C404.996 180.559 405.301 179.502 405.913 178.807C406.524 178.112 407.49 177.764 408.811 177.764C410.136 177.764 411.102 178.112 411.709 178.807C412.32 179.502 412.626 180.559 412.626 181.978C412.626 183.392 412.32 184.451 411.709 185.156C411.102 185.861 410.136 186.213 408.811 186.213ZM408.811 185.051C409.431 185.051 409.94 184.841 410.337 184.421C410.733 183.996 410.932 183.184 410.932 181.985C410.932 180.781 410.733 179.971 410.337 179.556C409.94 179.136 409.431 178.926 408.811 178.926C408.195 178.926 407.686 179.136 407.285 179.556C406.888 179.971 406.69 180.781 406.69 181.985C406.69 183.184 406.888 183.996 407.285 184.421C407.686 184.841 408.195 185.051 408.811 185.051ZM417.548 186.213C416.521 186.213 415.681 186.038 415.028 185.688C414.375 185.333 413.964 184.71 413.796 183.819L415.287 183.294C415.376 183.929 415.616 184.388 416.008 184.673C416.4 184.958 416.923 185.1 417.576 185.1C418.169 185.1 418.617 184.997 418.92 184.792C419.228 184.587 419.382 184.314 419.382 183.973C419.382 183.492 419.137 183.175 418.647 183.021C418.157 182.862 417.541 182.706 416.799 182.552C415.922 182.384 415.212 182.125 414.671 181.775C414.13 181.425 413.859 180.846 413.859 180.039C413.859 179.292 414.167 178.73 414.783 178.352C415.404 177.969 416.244 177.778 417.303 177.778C418.344 177.778 419.174 177.955 419.795 178.31C420.416 178.665 420.803 179.26 420.957 180.095L419.466 180.613C419.377 180.058 419.146 179.633 418.773 179.339C418.4 179.04 417.9 178.891 417.275 178.891C416.682 178.891 416.241 178.994 415.952 179.199C415.667 179.404 415.525 179.684 415.525 180.039C415.525 180.482 415.756 180.783 416.218 180.942C416.685 181.096 417.277 181.248 417.996 181.397C418.864 181.56 419.59 181.803 420.173 182.125C420.761 182.442 421.055 183.019 421.055 183.854C421.055 184.666 420.754 185.263 420.152 185.646C419.555 186.024 418.687 186.213 417.548 186.213ZM422.385 186.15V177.855H423.708L424.079 179.199V186.15H422.385ZM427.11 186.15V181.271C427.11 180.473 427.003 179.89 426.788 179.521C426.573 179.148 426.223 178.961 425.738 178.961C425.239 178.961 424.835 179.166 424.527 179.577C424.219 179.983 424.065 180.562 424.065 181.313L423.169 180.9C423.169 180.097 423.472 179.379 424.079 178.744C424.69 178.105 425.428 177.785 426.291 177.785C427.271 177.785 427.934 178.109 428.279 178.758C428.624 179.402 428.797 180.198 428.797 181.145V186.15H427.11ZM431.814 186.15V181.271C431.814 180.473 431.709 179.89 431.499 179.521C431.294 179.148 430.946 178.961 430.456 178.961C429.961 178.961 429.56 179.166 429.252 179.577C428.944 179.983 428.79 180.562 428.79 181.313L427.887 180.9C427.887 180.111 428.193 179.395 428.804 178.751C429.415 178.107 430.153 177.785 431.016 177.785C431.996 177.785 432.654 178.109 432.99 178.758C433.331 179.407 433.501 180.202 433.501 181.145V186.15H431.814ZM438.561 186.213C437.24 186.213 436.274 185.861 435.663 185.156C435.051 184.451 434.746 183.392 434.746 181.978C434.746 180.559 435.051 179.502 435.663 178.807C436.274 178.112 437.24 177.764 438.561 177.764C439.886 177.764 440.852 178.112 441.459 178.807C442.07 179.502 442.376 180.559 442.376 181.978C442.376 183.392 442.07 184.451 441.459 185.156C440.852 185.861 439.886 186.213 438.561 186.213ZM438.561 185.051C439.181 185.051 439.69 184.841 440.087 184.421C440.483 183.996 440.682 183.184 440.682 181.985C440.682 180.781 440.483 179.971 440.087 179.556C439.69 179.136 439.181 178.926 438.561 178.926C437.945 178.926 437.436 179.136 437.035 179.556C436.638 179.971 436.44 180.781 436.44 181.985C436.44 183.184 436.638 183.996 437.035 184.421C437.436 184.841 437.945 185.051 438.561 185.051ZM447.298 186.213C446.271 186.213 445.431 186.038 444.778 185.688C444.125 185.333 443.714 184.71 443.546 183.819L445.037 183.294C445.126 183.929 445.366 184.388 445.758 184.673C446.15 184.958 446.673 185.1 447.326 185.1C447.919 185.1 448.367 184.997 448.67 184.792C448.978 184.587 449.132 184.314 449.132 183.973C449.132 183.492 448.887 183.175 448.397 183.021C447.907 182.862 447.291 182.706 446.549 182.552C445.672 182.384 444.962 182.125 444.421 181.775C443.88 181.425 443.609 180.846 443.609 180.039C443.609 179.292 443.917 178.73 444.533 178.352C445.154 177.969 445.994 177.778 447.053 177.778C448.094 177.778 448.924 177.955 449.545 178.31C450.166 178.665 450.553 179.26 450.707 180.095L449.216 180.613C449.127 180.058 448.896 179.633 448.523 179.339C448.15 179.04 447.65 178.891 447.025 178.891C446.432 178.891 445.991 178.994 445.702 179.199C445.417 179.404 445.275 179.684 445.275 180.039C445.275 180.482 445.506 180.783 445.968 180.942C446.435 181.096 447.027 181.248 447.746 181.397C448.614 181.56 449.34 181.803 449.923 182.125C450.511 182.442 450.805 183.019 450.805 183.854C450.805 184.666 450.504 185.263 449.902 185.646C449.305 186.024 448.437 186.213 447.298 186.213ZM455.557 186.15V176.7H459.792C461.02 176.7 461.89 177.043 462.403 177.729C462.921 178.415 463.18 179.645 463.18 181.418C463.18 183.196 462.921 184.43 462.403 185.121C461.885 185.807 461.015 186.15 459.792 186.15H455.557ZM457.265 184.974H459.33C460.054 184.974 460.59 184.764 460.94 184.344C461.295 183.919 461.472 182.944 461.472 181.418C461.472 179.897 461.295 178.926 460.94 178.506C460.59 178.086 460.054 177.876 459.33 177.876H457.265V184.974ZM464.321 186.15V176.7H469.368C470.367 176.7 471.004 176.924 471.279 177.372C471.554 177.815 471.692 178.317 471.692 178.877C471.692 179.46 471.566 179.964 471.314 180.389C471.062 180.809 470.686 181.031 470.187 181.054C470.71 181.082 471.123 181.315 471.426 181.754C471.729 182.188 471.881 182.75 471.881 183.441C471.881 184.22 471.743 184.867 471.468 185.38C471.193 185.893 470.565 186.15 469.585 186.15H464.321ZM466.036 184.974H469.151C469.538 184.974 469.804 184.832 469.949 184.547C470.098 184.258 470.173 183.831 470.173 183.266C470.173 182.739 470.084 182.33 469.907 182.041C469.73 181.752 469.398 181.607 468.913 181.607H466.036V184.974ZM466.036 180.55H468.808C469.247 180.55 469.548 180.419 469.711 180.158C469.879 179.892 469.963 179.547 469.963 179.122C469.963 178.725 469.893 178.417 469.753 178.198C469.618 177.979 469.349 177.869 468.948 177.869H466.036V180.55ZM472.976 187.802L473.718 185.268H475.342L473.977 187.802H472.976ZM484.192 186.206C482.703 186.206 481.686 185.921 481.14 185.352C480.598 184.778 480.328 183.884 480.328 182.671H482.036C482.036 183.665 482.22 184.309 482.589 184.603C482.962 184.892 483.492 185.037 484.178 185.037C484.854 185.037 485.379 184.918 485.753 184.68C486.131 184.437 486.32 184.101 486.32 183.672C486.32 183.149 486.084 182.785 485.613 182.58C485.141 182.375 484.479 182.176 483.625 181.985C482.43 181.705 481.583 181.39 481.084 181.04C480.584 180.685 480.335 180.109 480.335 179.311C480.335 178.569 480.615 177.934 481.175 177.407C481.735 176.88 482.731 176.616 484.164 176.616C485.615 176.616 486.616 176.91 487.167 177.498C487.722 178.086 488 178.954 488 180.102H486.285C486.285 179.136 486.093 178.511 485.711 178.226C485.333 177.937 484.812 177.792 484.15 177.792C483.464 177.792 482.932 177.916 482.554 178.163C482.176 178.406 481.987 178.725 481.987 179.122C481.987 179.64 482.225 180.004 482.701 180.214C483.181 180.424 483.842 180.627 484.682 180.823C485.909 181.108 486.77 181.413 487.265 181.74C487.759 182.067 488.007 182.631 488.007 183.434C488.007 184.209 487.731 184.864 487.181 185.401C486.635 185.938 485.638 186.206 484.192 186.206ZM496.244 187.753L494.599 185.45L495.859 184.848L497.462 187.095L496.244 187.753ZM493.346 186.22C491.853 186.22 490.782 185.849 490.133 185.107C489.489 184.36 489.167 183.133 489.167 181.425C489.167 179.712 489.489 178.483 490.133 177.736C490.777 176.989 491.848 176.616 493.346 176.616C494.844 176.616 495.915 176.992 496.559 177.743C497.208 178.49 497.532 179.717 497.532 181.425C497.532 183.133 497.208 184.36 496.559 185.107C495.915 185.849 494.844 186.22 493.346 186.22ZM493.346 185.044C494.107 185.044 494.709 184.818 495.152 184.365C495.6 183.908 495.824 182.928 495.824 181.425C495.824 179.908 495.6 178.926 495.152 178.478C494.709 178.025 494.107 177.799 493.346 177.799C492.59 177.799 491.988 178.025 491.54 178.478C491.097 178.926 490.875 179.908 490.875 181.425C490.875 182.928 491.097 183.908 491.54 184.365C491.988 184.818 492.59 185.044 493.346 185.044ZM498.72 186.15V176.7H500.435V184.981H504.488V186.15H498.72Z" fill="#226048"/>
<rect x="265.767" y="208.65" width="320.543" height="30" rx="15" fill="#D9F2DC"/>
<path d="M346.612 227.65V218.2H351.47C352.427 218.2 353.068 218.471 353.395 219.012C353.726 219.549 353.892 220.2 353.892 220.965C353.892 221.726 353.722 222.365 353.381 222.883C353.04 223.401 352.382 223.66 351.407 223.66H348.327V227.65H346.612ZM352.149 227.65L350.231 223.205L351.932 223.114L354.004 227.65H352.149ZM348.327 222.596H350.924C351.405 222.596 351.734 222.451 351.911 222.162C352.088 221.873 352.177 221.481 352.177 220.986C352.177 220.491 352.086 220.099 351.904 219.81C351.727 219.521 351.4 219.376 350.924 219.376H348.327V222.596ZM358.866 227.72C357.494 227.72 356.519 227.344 355.94 226.593C355.352 225.842 355.058 224.806 355.058 223.485C355.058 222.104 355.357 221.056 355.954 220.342C356.547 219.628 357.508 219.271 358.838 219.271C360.21 219.271 361.181 219.628 361.75 220.342C362.315 221.065 362.597 222.108 362.597 223.471C362.597 223.662 362.586 223.837 362.562 223.996H356.521V222.96H360.889C360.847 222.031 360.675 221.378 360.371 221C360.007 220.585 359.499 220.377 358.845 220.377C358.206 220.377 357.688 220.599 357.291 221.042C356.895 221.481 356.696 222.297 356.696 223.492C356.696 224.631 356.89 225.433 357.277 225.9C357.66 226.376 358.19 226.614 358.866 226.614V227.72ZM358.866 226.614C359.254 226.614 359.59 226.553 359.874 226.432C360.159 226.306 360.378 226.096 360.532 225.802C360.686 225.503 360.805 225.167 360.889 224.794L362.408 225.214C362.324 225.774 362.131 226.243 361.827 226.621C361.524 227.004 361.139 227.281 360.672 227.454C360.21 227.631 359.608 227.72 358.866 227.72V226.614ZM366.702 227.727C366.249 227.727 365.841 227.687 365.477 227.608C365.117 227.529 364.807 227.396 364.546 227.209C364.289 227.018 364.091 226.759 363.951 226.432C363.815 226.105 363.748 225.695 363.748 225.2C363.748 224.729 363.813 224.337 363.944 224.024C364.079 223.707 364.273 223.455 364.525 223.268C364.777 223.081 365.085 222.948 365.449 222.869C365.813 222.785 366.223 222.743 366.681 222.743H369.362V222.316C369.362 221.863 369.285 221.499 369.131 221.224C368.977 220.944 368.755 220.741 368.466 220.615C368.181 220.489 367.84 220.426 367.444 220.426C367.108 220.426 366.804 220.482 366.534 220.594C366.268 220.706 366.044 220.89 365.862 221.147C365.68 221.404 365.556 221.744 365.491 222.169L363.832 221.721C363.911 221.273 364.058 220.893 364.273 220.58C364.492 220.267 364.76 220.015 365.078 219.824C365.4 219.633 365.759 219.493 366.156 219.404C366.557 219.315 366.984 219.271 367.437 219.271C368.216 219.271 368.874 219.376 369.411 219.586C369.952 219.796 370.363 220.13 370.643 220.587C370.923 221.04 371.063 221.644 371.063 222.4V227.65H369.649L369.509 226.628C369.443 226.749 369.334 226.873 369.18 226.999C369.026 227.125 368.83 227.244 368.592 227.356C368.354 227.468 368.076 227.559 367.759 227.629C367.446 227.694 367.094 227.727 366.702 227.727ZM367.073 226.628C367.469 226.628 367.822 226.581 368.13 226.488C368.438 226.39 368.694 226.266 368.9 226.117C369.11 225.963 369.257 225.804 369.341 225.641V223.681H367.08C366.851 223.681 366.636 223.702 366.436 223.744C366.24 223.781 366.069 223.851 365.925 223.954C365.78 224.057 365.666 224.206 365.582 224.402C365.502 224.593 365.463 224.841 365.463 225.144C365.463 225.447 365.502 225.695 365.582 225.886C365.666 226.077 365.78 226.227 365.925 226.334C366.074 226.441 366.247 226.518 366.443 226.565C366.639 226.607 366.849 226.628 367.073 226.628ZM375.981 227.72C374.627 227.72 373.659 227.356 373.076 226.628C372.492 225.9 372.201 224.862 372.201 223.513C372.201 222.104 372.492 221.047 373.076 220.342C373.659 219.633 374.627 219.278 375.981 219.278C377.213 219.278 378.081 219.577 378.585 220.174C379.093 220.771 379.376 221.425 379.432 222.134L377.927 222.645C377.903 221.964 377.724 221.429 377.388 221.042C377.052 220.655 376.583 220.461 375.981 220.461C375.374 220.461 374.879 220.678 374.497 221.112C374.119 221.546 373.93 222.346 373.93 223.513C373.93 224.61 374.121 225.389 374.504 225.851C374.891 226.313 375.383 226.544 375.981 226.544C376.578 226.544 377.045 226.336 377.381 225.921C377.721 225.506 377.903 224.995 377.927 224.388L379.432 224.92C379.376 225.555 379.093 226.18 378.585 226.796C378.076 227.412 377.208 227.72 375.981 227.72ZM384.525 227.748C383.876 227.748 383.33 227.608 382.887 227.328C382.448 227.043 382.229 226.525 382.229 225.774V220.531H380.297V219.355H382.229V217.472H383.923V219.355H386.611V220.531H383.923V225.389C383.923 225.879 384.026 226.203 384.231 226.362C384.436 226.521 384.723 226.6 385.092 226.6C385.433 226.6 385.766 226.544 386.093 226.432V227.566C385.594 227.687 385.071 227.748 384.525 227.748ZM387.437 229.302L388.179 226.768H389.803L388.438 229.302H387.437ZM397.7 227.65V219.376H394.83V218.2H402.278V219.376H399.408V227.65H397.7ZM405.415 227.65L403.014 219.355H404.785L406.696 226.509H406.71L408.607 219.355H410.378L407.998 227.65H405.415ZM403.434 230.891V229.729C404.274 229.729 404.923 229.594 405.38 229.323C405.837 229.057 406.187 228.497 406.43 227.643L407.998 227.65C407.62 228.961 407.058 229.829 406.311 230.254C405.569 230.679 404.61 230.891 403.434 230.891ZM411.412 230.751V219.355H412.728L413.099 220.734V230.751H411.412ZM415.745 227.699C414.817 227.699 414.021 227.473 413.358 227.02C412.696 226.563 412.364 226.08 412.364 225.571L413.099 224.731C413.099 225.212 413.302 225.634 413.708 225.998C414.119 226.357 414.604 226.537 415.164 226.537C415.762 226.537 416.228 226.325 416.564 225.9C416.9 225.471 417.068 224.668 417.068 223.492C417.068 222.321 416.9 221.523 416.564 221.098C416.228 220.669 415.762 220.454 415.164 220.454C414.604 220.454 414.119 220.634 413.708 220.993C413.302 221.352 413.099 221.768 413.099 222.239L412.364 221.42C412.364 220.907 412.696 220.421 413.358 219.964C414.021 219.507 414.817 219.278 415.745 219.278C416.777 219.278 417.54 219.635 418.034 220.349C418.529 221.063 418.776 222.108 418.776 223.485C418.776 224.857 418.529 225.902 418.034 226.621C417.54 227.34 416.777 227.699 415.745 227.699ZM423.657 227.72C422.285 227.72 421.31 227.344 420.731 226.593C420.143 225.842 419.849 224.806 419.849 223.485C419.849 222.104 420.148 221.056 420.745 220.342C421.338 219.628 422.299 219.271 423.629 219.271C425.001 219.271 425.972 219.628 426.541 220.342C427.106 221.065 427.388 222.108 427.388 223.471C427.388 223.662 427.377 223.837 427.353 223.996H421.312V222.96H425.68C425.638 222.031 425.466 221.378 425.162 221C424.798 220.585 424.29 220.377 423.636 220.377C422.997 220.377 422.479 220.599 422.082 221.042C421.686 221.481 421.487 222.297 421.487 223.492C421.487 224.631 421.681 225.433 422.068 225.9C422.451 226.376 422.981 226.614 423.657 226.614V227.72ZM423.657 226.614C424.045 226.614 424.381 226.553 424.665 226.432C424.95 226.306 425.169 226.096 425.323 225.802C425.477 225.503 425.596 225.167 425.68 224.794L427.199 225.214C427.115 225.774 426.922 226.243 426.618 226.621C426.315 227.004 425.93 227.281 425.463 227.454C425.001 227.631 424.399 227.72 423.657 227.72V226.614ZM432.354 227.706C430.865 227.706 429.848 227.421 429.302 226.852C428.76 226.278 428.49 225.384 428.49 224.171H430.198C430.198 225.165 430.382 225.809 430.751 226.103C431.124 226.392 431.654 226.537 432.34 226.537C433.016 226.537 433.541 226.418 433.915 226.18C434.293 225.937 434.482 225.601 434.482 225.172C434.482 224.649 434.246 224.285 433.775 224.08C433.303 223.875 432.641 223.676 431.787 223.485C430.592 223.205 429.745 222.89 429.246 222.54C428.746 222.185 428.497 221.609 428.497 220.811C428.497 220.069 428.777 219.434 429.337 218.907C429.897 218.38 430.893 218.116 432.326 218.116C433.777 218.116 434.778 218.41 435.329 218.998C435.884 219.586 436.162 220.454 436.162 221.602H434.447C434.447 220.636 434.255 220.011 433.873 219.726C433.495 219.437 432.974 219.292 432.312 219.292C431.626 219.292 431.094 219.416 430.716 219.663C430.338 219.906 430.149 220.225 430.149 220.622C430.149 221.14 430.387 221.504 430.863 221.714C431.343 221.924 432.004 222.127 432.844 222.323C434.071 222.608 434.932 222.913 435.427 223.24C435.921 223.567 436.169 224.131 436.169 224.934C436.169 225.709 435.893 226.364 435.343 226.901C434.797 227.438 433.8 227.706 432.354 227.706ZM441.004 227.72C439.651 227.72 438.682 227.356 438.099 226.628C437.516 225.9 437.224 224.862 437.224 223.513C437.224 222.104 437.516 221.047 438.099 220.342C438.682 219.633 439.651 219.278 441.004 219.278C442.236 219.278 443.104 219.577 443.608 220.174C444.117 220.771 444.399 221.425 444.455 222.134L442.95 222.645C442.927 221.964 442.747 221.429 442.411 221.042C442.075 220.655 441.606 220.461 441.004 220.461C440.397 220.461 439.903 220.678 439.52 221.112C439.142 221.546 438.953 222.346 438.953 223.513C438.953 224.61 439.144 225.389 439.527 225.851C439.914 226.313 440.407 226.544 441.004 226.544C441.601 226.544 442.068 226.336 442.404 225.921C442.745 225.506 442.927 224.995 442.95 224.388L444.455 224.92C444.399 225.555 444.117 226.18 443.608 226.796C443.099 227.412 442.231 227.72 441.004 227.72ZM450.879 223.282C450.879 222.171 450.748 221.425 450.487 221.042C450.225 220.655 449.845 220.461 449.346 220.461C448.776 220.461 448.326 220.655 447.995 221.042C447.668 221.425 447.505 221.859 447.505 222.344L446.854 221.91C446.854 221.177 447.136 220.557 447.701 220.048C448.27 219.535 449.026 219.278 449.969 219.278C450.958 219.278 451.639 219.6 452.013 220.244C452.386 220.883 452.573 221.896 452.573 223.282H450.879ZM445.825 227.65V219.355H447.141L447.512 220.909V227.65H445.825ZM454.265 227.65V219.348H455.959V227.65H454.265ZM454.265 217.017H455.959V218.382H454.265V217.017ZM457.678 230.751V219.355H458.994L459.365 220.734V230.751H457.678ZM462.011 227.699C461.082 227.699 460.287 227.473 459.624 227.02C458.961 226.563 458.63 226.08 458.63 225.571L459.365 224.731C459.365 225.212 459.568 225.634 459.974 225.998C460.385 226.357 460.87 226.537 461.43 226.537C462.027 226.537 462.494 226.325 462.83 225.9C463.166 225.471 463.334 224.668 463.334 223.492C463.334 222.321 463.166 221.523 462.83 221.098C462.494 220.669 462.027 220.454 461.43 220.454C460.87 220.454 460.385 220.634 459.974 220.993C459.568 221.352 459.365 221.768 459.365 222.239L458.63 221.42C458.63 220.907 458.961 220.421 459.624 219.964C460.287 219.507 461.082 219.278 462.011 219.278C463.042 219.278 463.805 219.635 464.3 220.349C464.795 221.063 465.042 222.108 465.042 223.485C465.042 224.857 464.795 225.902 464.3 226.621C463.805 227.34 463.042 227.699 462.011 227.699ZM469.988 227.748C469.339 227.748 468.793 227.608 468.35 227.328C467.911 227.043 467.692 226.525 467.692 225.774V220.531H465.76V219.355H467.692V217.472H469.386V219.355H472.074V220.531H469.386V225.389C469.386 225.879 469.489 226.203 469.694 226.362C469.899 226.521 470.186 226.6 470.555 226.6C470.896 226.6 471.229 226.544 471.556 226.432V227.566C471.057 227.687 470.534 227.748 469.988 227.748ZM472.9 229.302L473.642 226.768H475.266L473.901 229.302H472.9ZM483.065 227.65L480.188 218.2H481.924L484.234 226.432H484.248L486.551 218.2H488.287L485.403 227.65H483.065ZM495.079 227.65L494.701 226.271V219.355H496.388V227.65H495.079ZM491.082 219.348V223.982C491.082 224.934 491.212 225.599 491.474 225.977C491.74 226.355 492.146 226.544 492.692 226.544C493.256 226.544 493.732 226.339 494.12 225.928C494.512 225.517 494.708 224.99 494.708 224.346L495.541 224.78C495.541 225.471 495.233 226.133 494.617 226.768C494.001 227.403 493.158 227.72 492.09 227.72C491.086 227.72 490.386 227.396 489.99 226.747C489.593 226.094 489.395 225.195 489.395 224.052V219.348H491.082ZM501.519 227.72C500.147 227.72 499.171 227.344 498.593 226.593C498.005 225.842 497.711 224.806 497.711 223.485C497.711 222.104 498.009 221.056 498.607 220.342C499.199 219.628 500.161 219.271 501.491 219.271C502.863 219.271 503.833 219.628 504.403 220.342C504.967 221.065 505.25 222.108 505.25 223.471C505.25 223.662 505.238 223.837 505.215 223.996H499.174V222.96H503.542C503.5 222.031 503.327 221.378 503.024 221C502.66 220.585 502.151 220.377 501.498 220.377C500.858 220.377 500.34 220.599 499.944 221.042C499.547 221.481 499.349 222.297 499.349 223.492C499.349 224.631 499.542 225.433 499.93 225.9C500.312 226.376 500.842 226.614 501.519 226.614V227.72ZM501.519 226.614C501.906 226.614 502.242 226.553 502.527 226.432C502.811 226.306 503.031 226.096 503.185 225.802C503.339 225.503 503.458 225.167 503.542 224.794L505.061 225.214C504.977 225.774 504.783 226.243 504.48 226.621C504.176 227.004 503.791 227.281 503.325 227.454C502.863 227.631 502.261 227.72 501.519 227.72V226.614Z" fill="#226048"/>
<rect x="265.767" y="249.65" width="320.543" height="31" rx="15.5" fill="#D9F2DC"/>
<path d="M345.612 269.15V259.7H350.078C351.161 259.7 351.884 260.022 352.248 260.666C352.617 261.31 352.801 262.113 352.801 263.074C352.801 264.04 352.617 264.847 352.248 265.496C351.884 266.14 351.161 266.462 350.078 266.462H347.327V269.15H345.612ZM347.327 265.286H349.56C350.129 265.286 350.528 265.102 350.757 264.733C350.986 264.364 351.1 263.814 351.1 263.081C351.1 262.348 350.983 261.798 350.75 261.429C350.521 261.06 350.125 260.876 349.56 260.876H347.327V265.286ZM356.003 269.15L353.602 260.855H355.373L357.284 268.009H357.298L359.195 260.855H360.966L358.586 269.15H356.003ZM354.022 272.391V271.229C354.862 271.229 355.511 271.094 355.968 270.823C356.425 270.557 356.775 269.997 357.018 269.143L358.586 269.15C358.208 270.461 357.646 271.329 356.899 271.754C356.157 272.179 355.198 272.391 354.022 272.391ZM365.724 269.248C365.076 269.248 364.53 269.108 364.086 268.828C363.648 268.543 363.428 268.025 363.428 267.274V262.031H361.496V260.855H363.428V258.972H365.122V260.855H367.81V262.031H365.122V266.889C365.122 267.379 365.225 267.703 365.43 267.862C365.636 268.021 365.923 268.1 366.291 268.1C366.632 268.1 366.966 268.044 367.292 267.932V269.066C366.793 269.187 366.27 269.248 365.724 269.248ZM369.014 269.15V258.16H370.708V269.15H369.014ZM374.306 269.15V264.516C374.306 263.564 374.166 262.899 373.886 262.521C373.606 262.143 373.191 261.954 372.64 261.954C372.085 261.954 371.618 262.164 371.24 262.584C370.867 263.004 370.68 263.538 370.68 264.187L369.861 263.718C369.861 263.023 370.174 262.36 370.799 261.73C371.429 261.095 372.25 260.778 373.263 260.778C374.252 260.778 374.955 261.102 375.37 261.751C375.785 262.4 375.993 263.298 375.993 264.446V269.15H374.306ZM381.061 269.213C379.74 269.213 378.774 268.861 378.163 268.156C377.551 267.451 377.246 266.392 377.246 264.978C377.246 263.559 377.551 262.502 378.163 261.807C378.774 261.112 379.74 260.764 381.061 260.764C382.386 260.764 383.352 261.112 383.959 261.807C384.57 262.502 384.876 263.559 384.876 264.978C384.876 266.392 384.57 267.451 383.959 268.156C383.352 268.861 382.386 269.213 381.061 269.213ZM381.061 268.051C381.681 268.051 382.19 267.841 382.587 267.421C382.983 266.996 383.182 266.184 383.182 264.985C383.182 263.781 382.983 262.971 382.587 262.556C382.19 262.136 381.681 261.926 381.061 261.926C380.445 261.926 379.936 262.136 379.535 262.556C379.138 262.971 378.94 263.781 378.94 264.985C378.94 266.184 379.138 266.996 379.535 267.421C379.936 267.841 380.445 268.051 381.061 268.051ZM386.186 269.15V260.855H387.502L387.873 262.395V269.15H386.186ZM391.45 269.15V264.516C391.45 263.564 391.315 262.899 391.044 262.521C390.773 262.143 390.365 261.954 389.819 261.954C389.264 261.954 388.792 262.164 388.405 262.584C388.018 263.004 387.824 263.538 387.824 264.187L387.005 263.718C387.005 263.023 387.325 262.36 387.964 261.73C388.603 261.095 389.429 260.778 390.442 260.778C391.431 260.778 392.127 261.112 392.528 261.779C392.934 262.446 393.137 263.354 393.137 264.502V269.15H391.45ZM394.243 270.802L394.985 268.268H396.609L395.244 270.802H394.243ZM401.735 269.15V259.7H404.514L406.803 267.484H406.831L409.113 259.7H411.892V269.15H410.205V260.883H410.17L407.825 268.709H405.802L403.457 260.883H403.429V269.15H401.735ZM417.045 269.213C415.724 269.213 414.758 268.861 414.147 268.156C413.536 267.451 413.23 266.392 413.23 264.978C413.23 263.559 413.536 262.502 414.147 261.807C414.758 261.112 415.724 260.764 417.045 260.764C418.37 260.764 419.336 261.112 419.943 261.807C420.554 262.502 420.86 263.559 420.86 264.978C420.86 266.392 420.554 267.451 419.943 268.156C419.336 268.861 418.37 269.213 417.045 269.213ZM417.045 268.051C417.666 268.051 418.174 267.841 418.571 267.421C418.968 266.996 419.166 266.184 419.166 264.985C419.166 263.781 418.968 262.971 418.571 262.556C418.174 262.136 417.666 261.926 417.045 261.926C416.429 261.926 415.92 262.136 415.519 262.556C415.122 262.971 414.924 263.781 414.924 264.985C414.924 266.184 415.122 266.996 415.519 267.421C415.92 267.841 416.429 268.051 417.045 268.051ZM422.17 269.15V260.855H423.486L423.857 262.395V269.15H422.17ZM427.434 269.15V264.516C427.434 263.564 427.299 262.899 427.028 262.521C426.758 262.143 426.349 261.954 425.803 261.954C425.248 261.954 424.777 262.164 424.389 262.584C424.002 263.004 423.808 263.538 423.808 264.187L422.989 263.718C422.989 263.023 423.309 262.36 423.948 261.73C424.588 261.095 425.414 260.778 426.426 260.778C427.416 260.778 428.111 261.112 428.512 261.779C428.918 262.446 429.121 263.354 429.121 264.502V269.15H427.434ZM434.029 272.412C433.091 272.412 432.295 272.202 431.642 271.782C430.988 271.367 430.622 270.65 430.543 269.633H432.195C432.232 270.039 432.328 270.366 432.482 270.613C432.64 270.86 432.857 271.04 433.133 271.152C433.413 271.269 433.73 271.327 434.085 271.327C434.673 271.327 435.144 271.173 435.499 270.865C435.858 270.562 436.038 269.943 436.038 269.01V262.535L436.479 260.855H437.732V268.849C437.732 269.759 437.561 270.473 437.221 270.991C436.885 271.514 436.458 271.88 435.94 272.09C435.426 272.305 434.789 272.412 434.029 272.412ZM433.427 269.199C432.395 269.199 431.625 268.844 431.117 268.135C430.613 267.421 430.361 266.371 430.361 264.985C430.361 263.599 430.61 262.551 431.11 261.842C431.609 261.133 432.377 260.778 433.413 260.778C434.341 260.778 435.132 261.014 435.786 261.485C436.444 261.952 436.773 262.442 436.773 262.955L436.031 263.739C436.031 263.268 435.83 262.852 435.429 262.493C435.027 262.134 434.547 261.954 433.987 261.954C433.394 261.954 432.925 262.166 432.58 262.591C432.239 263.011 432.069 263.811 432.069 264.992C432.069 266.173 432.239 266.975 432.58 267.4C432.925 267.825 433.394 268.037 433.987 268.037C434.547 268.037 435.027 267.855 435.429 267.491C435.83 267.127 436.031 266.707 436.031 266.231L436.78 267.071C436.78 267.594 436.453 268.079 435.8 268.527C435.151 268.975 434.36 269.199 433.427 269.199ZM442.857 269.213C441.537 269.213 440.571 268.861 439.959 268.156C439.348 267.451 439.042 266.392 439.042 264.978C439.042 263.559 439.348 262.502 439.959 261.807C440.571 261.112 441.537 260.764 442.857 260.764C444.183 260.764 445.149 261.112 445.755 261.807C446.367 262.502 446.672 263.559 446.672 264.978C446.672 266.392 446.367 267.451 445.755 268.156C445.149 268.861 444.183 269.213 442.857 269.213ZM442.857 268.051C443.478 268.051 443.987 267.841 444.383 267.421C444.78 266.996 444.978 266.184 444.978 264.985C444.978 263.781 444.78 262.971 444.383 262.556C443.987 262.136 443.478 261.926 442.857 261.926C442.241 261.926 441.733 262.136 441.331 262.556C440.935 262.971 440.736 263.781 440.736 264.985C440.736 266.184 440.935 266.996 441.331 267.421C441.733 267.841 442.241 268.051 442.857 268.051ZM451.405 269.15V259.7H455.64C456.867 259.7 457.738 260.043 458.251 260.729C458.769 261.415 459.028 262.645 459.028 264.418C459.028 266.196 458.769 267.43 458.251 268.121C457.733 268.807 456.863 269.15 455.64 269.15H451.405ZM453.113 267.974H455.178C455.901 267.974 456.438 267.764 456.788 267.344C457.143 266.919 457.32 265.944 457.32 264.418C457.32 262.897 457.143 261.926 456.788 261.506C456.438 261.086 455.901 260.876 455.178 260.876H453.113V267.974ZM460.169 269.15V259.7H465.216C466.214 259.7 466.851 259.924 467.127 260.372C467.402 260.815 467.54 261.317 467.54 261.877C467.54 262.46 467.414 262.964 467.162 263.389C466.91 263.809 466.534 264.031 466.035 264.054C466.557 264.082 466.97 264.315 467.274 264.754C467.577 265.188 467.729 265.75 467.729 266.441C467.729 267.22 467.591 267.867 467.316 268.38C467.04 268.893 466.413 269.15 465.433 269.15H460.169ZM461.884 267.974H464.999C465.386 267.974 465.652 267.832 465.797 267.547C465.946 267.258 466.021 266.831 466.021 266.266C466.021 265.739 465.932 265.33 465.755 265.041C465.577 264.752 465.246 264.607 464.761 264.607H461.884V267.974ZM461.884 263.55H464.656C465.094 263.55 465.395 263.419 465.559 263.158C465.727 262.892 465.811 262.547 465.811 262.122C465.811 261.725 465.741 261.417 465.601 261.198C465.465 260.979 465.197 260.869 464.796 260.869H461.884V263.55ZM468.823 270.802L469.565 268.268H471.189L469.824 270.802H468.823ZM476.175 269.15L479.297 259.686H481.733L484.855 269.15H483.091L482.321 266.623H478.723L477.946 269.15H476.175ZM479.01 265.482H482.034L480.529 260.694H480.508L479.01 265.482ZM486.525 269.15L484.719 259.7H486.56L487.925 267.89H487.946L489.724 259.7H491.985L493.763 267.89H493.784L495.177 259.7H497.025L495.177 269.15H492.566L490.865 260.876H490.844L489.143 269.15H486.525ZM501.846 269.206C500.357 269.206 499.34 268.921 498.794 268.352C498.253 267.778 497.982 266.884 497.982 265.671H499.69C499.69 266.665 499.874 267.309 500.243 267.603C500.616 267.892 501.146 268.037 501.832 268.037C502.509 268.037 503.034 267.918 503.407 267.68C503.785 267.437 503.974 267.101 503.974 266.672C503.974 266.149 503.738 265.785 503.267 265.58C502.796 265.375 502.133 265.176 501.279 264.985C500.084 264.705 499.237 264.39 498.738 264.04C498.239 263.685 497.989 263.109 497.989 262.311C497.989 261.569 498.269 260.934 498.829 260.407C499.389 259.88 500.385 259.616 501.818 259.616C503.269 259.616 504.27 259.91 504.821 260.498C505.376 261.086 505.654 261.954 505.654 263.102H503.939C503.939 262.136 503.748 261.511 503.365 261.226C502.987 260.937 502.467 260.792 501.804 260.792C501.118 260.792 500.586 260.916 500.208 261.163C499.83 261.406 499.641 261.725 499.641 262.122C499.641 262.64 499.879 263.004 500.355 263.214C500.836 263.424 501.496 263.627 502.336 263.823C503.563 264.108 504.424 264.413 504.919 264.74C505.414 265.067 505.661 265.631 505.661 266.434C505.661 267.209 505.386 267.864 504.835 268.401C504.289 268.938 503.293 269.206 501.846 269.206Z" fill="#226048"/>
<defs>
<filter id="filter0_bd_63_262" x="-75.3096" y="-80" width="668.779" height="554" filterUnits="userSpaceOnUse" color-interpolation-filters="sRGB">
<feFlood flood-opacity="0" result="BackgroundImageFix"/>
<feGaussianBlur in="BackgroundImageFix" stdDeviation="40"/>
<feComposite in2="SourceAlpha" operator="in" result="effect1_backgroundBlur_63_262"/>
<feColorMatrix in="SourceAlpha" type="matrix" values="0 0 0 0 0 0 0 0 0 0 0 0 0 0 0 0 0 0 127 0" result="hardAlpha"/>
<feOffset dy="4"/>
<feGaussianBlur stdDeviation="2"/>
<feComposite in2="hardAlpha" operator="out"/>
<feColorMatrix type="matrix" values="0 0 0 0 0 0 0 0 0 0 0 0 0 0 0 0 0 0 0.25 0"/>
<feBlend mode="normal" in2="effect1_backgroundBlur_63_262" result="effect2_dropShadow_63_262"/>
<feBlend mode="normal" in="SourceGraphic" in2="effect2_dropShadow_63_262" result="shape"/>
</filter>
<radialGradient id="paint0_radial_63_262" cx="0" cy="0" r="1" gradientUnits="userSpaceOnUse" gradientTransform="translate(767.407 591) rotate(-49.8007) scale(718.951 784.124)">
<stop stop-color="#7BC277"/>
<stop offset="0.770833" stop-color="#6EBFF4" stop-opacity="0.223958"/>
<stop offset="1" stop-color="#4690D5" stop-opacity="0"/>
</radialGradient>
<linearGradient id="paint1_linear_63_262" x1="57.0044" y1="176.577" x2="57.0044" y2="286.577" gradientUnits="userSpaceOnUse">
<stop stop-color="#7BC277"/>
<stop offset="1" stop-color="#093725"/>
</linearGradient>
<linearGradient id="paint2_linear_63_262" x1="67.0044" y1="188.577" x2="67.0044" y2="286.577" gradientUnits="userSpaceOnUse">
<stop stop-color="#7BC277"/>
<stop offset="1" stop-color="#093725"/>
</linearGradient>
<linearGradient id="paint3_linear_63_262" x1="77.0044" y1="226.577" x2="77.0044" y2="286.577" gradientUnits="userSpaceOnUse">
<stop stop-color="#7BC277"/>
<stop offset="1" stop-color="#093725"/>
</linearGradient>
<linearGradient id="paint4_linear_63_262" x1="87.0044" y1="204.577" x2="87.0044" y2="286.577" gradientUnits="userSpaceOnUse">
<stop stop-color="#7BC277"/>
<stop offset="1" stop-color="#093725"/>
</linearGradient>
<linearGradient id="paint5_linear_63_262" x1="97.0044" y1="188.577" x2="97.0044" y2="286.577" gradientUnits="userSpaceOnUse">
<stop stop-color="#7BC277"/>
<stop offset="1" stop-color="#093725"/>
</linearGradient>
<linearGradient id="paint6_linear_63_262" x1="107.004" y1="166.577" x2="107.004" y2="286.577" gradientUnits="userSpaceOnUse">
<stop stop-color="#7BC277"/>
<stop offset="1" stop-color="#093725"/>
</linearGradient>
<linearGradient id="paint7_linear_63_262" x1="117.004" y1="204.577" x2="117.004" y2="286.577" gradientUnits="userSpaceOnUse">
<stop stop-color="#7BC277"/>
<stop offset="1" stop-color="#093725"/>
</linearGradient>
<linearGradient id="paint8_linear_63_262" x1="127.004" y1="185.577" x2="127.004" y2="286.577" gradientUnits="userSpaceOnUse">
<stop stop-color="#7BC277"/>
<stop offset="1" stop-color="#093725"/>
</linearGradient>
<linearGradient id="paint9_linear_63_262" x1="137.004" y1="144.577" x2="137.004" y2="286.577" gradientUnits="userSpaceOnUse">
<stop stop-color="#7BC277"/>
<stop offset="1" stop-color="#093725"/>
</linearGradient>
<linearGradient id="paint10_linear_63_262" x1="147.004" y1="204.577" x2="147.004" y2="286.577" gradientUnits="userSpaceOnUse">
<stop stop-color="#7BC277"/>
<stop offset="1" stop-color="#093725"/>
</linearGradient>
<linearGradient id="paint11_linear_63_262" x1="157.004" y1="185.577" x2="157.004" y2="286.577" gradientUnits="userSpaceOnUse">
<stop stop-color="#7BC277"/>
<stop offset="1" stop-color="#093725"/>
</linearGradient>
<linearGradient id="paint12_linear_63_262" x1="167.004" y1="171.577" x2="167.004" y2="286.577" gradientUnits="userSpaceOnUse">
<stop stop-color="#7BC277"/>
<stop offset="1" stop-color="#093725"/>
</linearGradient>
<linearGradient id="paint13_linear_63_262" x1="177.004" y1="204.577" x2="177.004" y2="286.577" gradientUnits="userSpaceOnUse">
<stop stop-color="#7BC277"/>
<stop offset="1" stop-color="#093725"/>
</linearGradient>
<linearGradient id="paint14_linear_63_262" x1="187.004" y1="144.577" x2="187.004" y2="286.577" gradientUnits="userSpaceOnUse">
<stop stop-color="#7BC277"/>
<stop offset="1" stop-color="#093725"/>
</linearGradient>
<linearGradient id="paint15_linear_63_262" x1="197.004" y1="204.577" x2="197.004" y2="286.577" gradientUnits="userSpaceOnUse">
<stop stop-color="#7BC277"/>
<stop offset="1" stop-color="#093725"/>
</linearGradient>
<linearGradient id="paint16_linear_63_262" x1="207.004" y1="185.577" x2="207.004" y2="286.577" gradientUnits="userSpaceOnUse">
<stop stop-color="#7BC277"/>
<stop offset="1" stop-color="#093725"/>
</linearGradient>
<linearGradient id="paint17_linear_63_262" x1="217.004" y1="171.577" x2="217.004" y2="286.577" gradientUnits="userSpaceOnUse">
<stop stop-color="#7BC277"/>
<stop offset="1" stop-color="#093725"/>
</linearGradient>
<linearGradient id="paint18_linear_63_262" x1="227.004" y1="204.577" x2="227.004" y2="286.577" gradientUnits="userSpaceOnUse">
<stop stop-color="#7BC277"/>
<stop offset="1" stop-color="#093725"/>
</linearGradient>
</defs>
</svg>
