<svg width="527" height="323" viewBox="0 0 527 323" fill="none" xmlns="http://www.w3.org/2000/svg">
<rect width="502" height="93" rx="16" fill="url(#paint0_linear_63_261)"/>
<path d="M57 30.5909C53.8535 30.5909 50.7776 31.524 48.1614 33.2721C45.5452 35.0202 43.506 37.5048 42.3019 40.4118C41.0978 43.3189 40.7828 46.5176 41.3966 49.6037C42.0105 52.6898 43.5257 55.5245 45.7506 57.7494C47.9755 59.9743 50.8102 61.4895 53.8963 62.1034C56.9824 62.7173 60.1811 62.4022 63.0882 61.1981C65.9952 59.994 68.4798 57.9548 70.2279 55.3386C71.976 52.7224 72.9091 49.6465 72.9091 46.5C72.9091 42.2806 71.233 38.2341 68.2494 35.2506C65.2659 32.267 61.2194 30.5909 57 30.5909ZM57 57.8636C54.7525 57.8636 52.5554 57.1972 50.6867 55.9485C48.818 54.6999 47.3615 52.9251 46.5014 50.8487C45.6413 48.7722 45.4163 46.4874 45.8547 44.2831C46.2932 42.0787 47.3755 40.0539 48.9647 38.4647C50.5539 36.8755 52.5787 35.7932 54.7831 35.3547C56.9874 34.9162 59.2722 35.1413 61.3487 36.0014C63.4251 36.8615 65.1999 38.318 66.4485 40.1867C67.6972 42.0554 68.3636 44.2525 68.3636 46.5C68.3636 49.5138 67.1664 52.4042 65.0353 54.5353C62.9042 56.6664 60.0138 57.8636 57 57.8636ZM57 39.6818C55.6515 39.6818 54.3333 40.0817 53.212 40.8309C52.0908 41.5801 51.2169 42.6449 50.7008 43.8908C50.1848 45.1367 50.0498 46.5076 50.3128 47.8302C50.5759 49.1528 51.2253 50.3676 52.1788 51.3212C53.1324 52.2747 54.3472 52.9241 55.6698 53.1872C56.9924 53.4502 58.3633 53.3152 59.6092 52.7992C60.8551 52.2831 61.9199 51.4092 62.6691 50.288C63.4183 49.1667 63.8182 47.8485 63.8182 46.5C63.8182 44.6917 63.0998 42.9575 61.8212 41.6788C60.5425 40.4002 58.8083 39.6818 57 39.6818ZM57 48.7727C56.5505 48.7727 56.1111 48.6394 55.7373 48.3897C55.3636 48.14 55.0723 47.785 54.9003 47.3697C54.7283 46.9544 54.6833 46.4975 54.7709 46.0566C54.8586 45.6157 55.0751 45.2108 55.3929 44.8929C55.7108 44.5751 56.1158 44.3586 56.5566 44.2709C56.9975 44.1832 57.4545 44.2283 57.8697 44.4003C58.285 44.5723 58.64 44.8636 58.8897 45.2373C59.1394 45.6111 59.2727 46.0505 59.2727 46.5C59.2727 47.1028 59.0333 47.6808 58.6071 48.1071C58.1808 48.5333 57.6028 48.7727 57 48.7727ZM57 21.5C52.0555 21.5 47.222 22.9662 43.1108 25.7133C38.9995 28.4603 35.7952 32.3648 33.903 36.9329C32.0108 41.5011 31.5157 46.5277 32.4804 51.3773C33.445 56.2268 35.826 60.6814 39.3223 64.1777C42.8187 67.674 47.2732 70.055 52.1227 71.0196C56.9723 71.9842 61.9989 71.4892 66.5671 69.597C71.1352 67.7048 75.0397 64.5005 77.7867 60.3892C80.5338 56.278 82 51.4445 82 46.5C82 39.8696 79.3661 33.5107 74.6777 28.8223C69.9893 24.1339 63.6304 21.5 57 21.5ZM57 66.9545C52.9545 66.9545 48.9998 65.7549 45.6361 63.5073C42.2723 61.2598 39.6506 58.0652 38.1025 54.3276C36.5543 50.59 36.1493 46.4773 36.9385 42.5095C37.7277 38.5417 39.6758 34.8971 42.5365 32.0364C45.3971 29.1758 49.0417 27.2277 53.0095 26.4385C56.9773 25.6492 61.09 26.0543 64.8276 27.6025C68.5652 29.1506 71.7598 31.7723 74.0073 35.1361C76.2549 38.4998 77.4545 42.4545 77.4545 46.5C77.4545 51.9249 75.2995 57.1276 71.4636 60.9635C67.6276 64.7995 62.4249 66.9545 57 66.9545Z" fill="#D9EFE7"/>
<path d="M102.016 53.596C99.144 53.596 97.204 53.08 96.196 52.048C95.196 51.008 94.696 49.54 94.696 47.644H98.776C98.776 49.028 99.068 49.908 99.652 50.284C100.244 50.652 101.02 50.836 101.98 50.836C102.948 50.836 103.724 50.692 104.308 50.404C104.892 50.108 105.184 49.656 105.184 49.048C105.184 48.328 104.784 47.836 103.984 47.572C103.184 47.308 102.08 47.036 100.672 46.756C98.44 46.284 96.888 45.744 96.016 45.136C95.144 44.528 94.708 43.528 94.708 42.136C94.708 40.768 95.22 39.596 96.244 38.62C97.268 37.644 99.168 37.156 101.944 37.156C104.736 37.156 106.64 37.688 107.656 38.752C108.672 39.816 109.18 41.24 109.18 43.024H105.1C105.1 41.68 104.796 40.828 104.188 40.468C103.588 40.1 102.824 39.916 101.896 39.916C100.912 39.916 100.124 40.068 99.532 40.372C98.948 40.676 98.656 41.108 98.656 41.668C98.656 42.42 99.064 42.928 99.88 43.192C100.696 43.456 101.8 43.728 103.192 44.008C105.504 44.488 107.084 45.008 107.932 45.568C108.78 46.128 109.204 47.1 109.204 48.484C109.204 49.9 108.704 51.108 107.704 52.108C106.712 53.1 104.816 53.596 102.016 53.596ZM118.162 53.608C115.554 53.608 113.694 52.98 112.582 51.724C111.478 50.468 110.926 48.672 110.926 46.336C110.926 43.992 111.478 42.204 112.582 40.972C113.694 39.732 115.554 39.112 118.162 39.112C120.77 39.112 122.626 39.732 123.73 40.972C124.834 42.204 125.386 43.992 125.386 46.336C125.386 48.672 124.834 50.468 123.73 51.724C122.626 52.98 120.77 53.608 118.162 53.608ZM118.162 50.872C119.098 50.872 119.862 50.58 120.454 49.996C121.054 49.404 121.354 48.188 121.354 46.348C121.354 44.508 121.054 43.3 120.454 42.724C119.862 42.14 119.098 41.848 118.162 41.848C117.226 41.848 116.458 42.14 115.858 42.724C115.258 43.3 114.958 44.508 114.958 46.348C114.958 48.188 115.258 49.404 115.858 49.996C116.458 50.58 117.226 50.872 118.162 50.872ZM129.431 53.5V42.028H126.539V39.28H129.431V38.776C129.431 37.248 130.075 36.164 131.363 35.524C132.651 34.876 134.491 34.552 136.883 34.552H137.375V37.204H136.991C135.727 37.204 134.823 37.308 134.279 37.516C133.735 37.724 133.463 38.148 133.463 38.788V39.28H137.303V42.028H133.463V53.5H129.431ZM146.36 53.68C145.096 53.68 144.024 53.412 143.144 52.876C142.272 52.34 141.836 51.38 141.836 49.996V42.052H138.584V39.28H141.836V36.028H145.88V39.28H150.26V42.052H145.88V49.108C145.88 49.876 146.044 50.38 146.372 50.62C146.7 50.86 147.156 50.98 147.74 50.98C148.332 50.98 148.912 50.88 149.48 50.68V53.344C148.488 53.568 147.448 53.68 146.36 53.68ZM154.767 53.5L151.683 39.28H155.847L157.647 50.848H157.671L160.323 39.28H164.343L166.971 50.824H167.007L168.711 39.28H172.887L169.803 53.5H164.439L162.303 43.312L160.179 53.5H154.767ZM179.399 53.644C178.535 53.644 177.763 53.576 177.083 53.44C176.411 53.296 175.839 53.056 175.367 52.72C174.895 52.384 174.535 51.932 174.287 51.364C174.039 50.796 173.915 50.088 173.915 49.24C173.915 48.432 174.031 47.756 174.263 47.212C174.503 46.668 174.851 46.232 175.307 45.904C175.771 45.568 176.343 45.328 177.023 45.184C177.703 45.032 178.487 44.956 179.375 44.956H183.863V44.416C183.863 43.776 183.747 43.272 183.515 42.904C183.291 42.528 182.963 42.256 182.531 42.088C182.099 41.92 181.587 41.836 180.995 41.836C180.523 41.836 180.083 41.912 179.675 42.064C179.275 42.208 178.931 42.452 178.643 42.796C178.355 43.14 178.151 43.604 178.031 44.188L174.083 43.096C174.251 42.36 174.547 41.74 174.971 41.236C175.403 40.724 175.927 40.316 176.543 40.012C177.159 39.708 177.843 39.488 178.595 39.352C179.355 39.208 180.147 39.136 180.971 39.136C182.483 39.136 183.755 39.316 184.787 39.676C185.819 40.036 186.599 40.62 187.127 41.428C187.655 42.228 187.919 43.292 187.919 44.62V53.5H184.559L184.211 51.868C184.083 52.084 183.875 52.296 183.587 52.504C183.299 52.712 182.947 52.904 182.531 53.08C182.115 53.248 181.643 53.384 181.115 53.488C180.587 53.592 180.015 53.644 179.399 53.644ZM180.311 51.064C180.863 51.064 181.375 51 181.847 50.872C182.319 50.744 182.723 50.576 183.059 50.368C183.403 50.152 183.651 49.924 183.803 49.684V47.14H180.335C179.983 47.14 179.663 47.168 179.375 47.224C179.087 47.272 178.839 47.364 178.631 47.5C178.431 47.636 178.275 47.832 178.163 48.088C178.059 48.344 178.007 48.676 178.007 49.084C178.007 49.492 178.063 49.824 178.175 50.08C178.287 50.336 178.447 50.536 178.655 50.68C178.863 50.816 179.107 50.916 179.387 50.98C179.667 51.036 179.975 51.064 180.311 51.064ZM199.284 46.276C199.284 44.484 199.08 43.312 198.672 42.76C198.272 42.208 197.704 41.932 196.968 41.932C196.128 41.932 195.456 42.228 194.952 42.82C194.456 43.404 194.208 44.072 194.208 44.824L192.66 43.912C192.66 42.568 193.196 41.44 194.268 40.528C195.34 39.608 196.748 39.148 198.492 39.148C200.372 39.148 201.644 39.728 202.308 40.888C202.98 42.04 203.316 43.836 203.316 46.276H199.284ZM190.2 53.5V39.28H193.308L194.22 41.74V53.5H190.2ZM212.323 53.632C209.635 53.632 207.755 52.984 206.683 51.688C205.603 50.384 205.063 48.612 205.063 46.372C205.063 44.084 205.607 42.304 206.695 41.032C207.775 39.76 209.627 39.124 212.251 39.124C214.947 39.124 216.815 39.768 217.855 41.056C218.887 42.352 219.403 44.124 219.403 46.372C219.403 46.812 219.375 47.212 219.319 47.572H208.591V45.136H215.323C215.235 43.92 214.987 43.068 214.579 42.58C214.027 42.012 213.251 41.728 212.251 41.728C211.283 41.728 210.491 42.04 209.875 42.664C209.267 43.28 208.963 44.52 208.963 46.384C208.963 48.208 209.267 49.436 209.875 50.068C210.475 50.708 211.291 51.028 212.323 51.028V53.632ZM212.323 51.028C212.923 51.028 213.419 50.952 213.811 50.8C214.211 50.632 214.531 50.364 214.771 49.996C214.995 49.612 215.191 49.168 215.359 48.664L218.971 49.684C218.795 50.62 218.415 51.372 217.831 51.94C217.239 52.516 216.531 52.94 215.707 53.212C214.875 53.492 213.747 53.632 212.323 53.632V51.028ZM227.427 53.5V37.3H239.271V40.072H231.507V43.972H238.719V46.612H231.507V50.728H239.271V53.5H227.427ZM241.435 53.5V39.28H244.543L245.455 41.668V53.5H241.435ZM250.699 53.5V45.964C250.699 44.388 250.507 43.32 250.123 42.76C249.739 42.2 249.147 41.92 248.347 41.92C247.515 41.92 246.803 42.26 246.211 42.94C245.627 43.62 245.335 44.504 245.335 45.592L243.367 44.692C243.367 43.436 243.967 42.2 245.167 40.984C246.375 39.76 247.943 39.148 249.871 39.148C251.703 39.148 252.971 39.768 253.675 41.008C254.379 42.248 254.731 43.88 254.731 45.904V53.5H250.699ZM263.678 59.128C261.958 59.128 260.466 58.756 259.202 58.012C257.938 57.276 257.222 56 257.054 54.184H260.99C261.046 54.736 261.194 55.192 261.434 55.552C261.674 55.912 261.998 56.172 262.406 56.332C262.822 56.492 263.29 56.572 263.81 56.572C264.682 56.572 265.386 56.368 265.922 55.96C266.466 55.552 266.738 54.612 266.738 53.14V42.076L267.83 39.28H270.782V52.732C270.782 54.38 270.45 55.668 269.786 56.596C269.122 57.532 268.306 58.188 267.338 58.564C266.378 58.94 265.158 59.128 263.678 59.128ZM262.286 53.584C260.358 53.584 258.95 52.944 258.062 51.664C257.174 50.376 256.73 48.608 256.73 46.36C256.73 44.104 257.166 42.34 258.038 41.068C258.91 39.788 260.31 39.148 262.238 39.148C263.934 39.148 265.402 39.56 266.642 40.384C267.89 41.2 268.514 42.088 268.514 43.048L266.726 44.704C266.726 43.92 266.422 43.26 265.814 42.724C265.206 42.188 264.482 41.92 263.642 41.92C262.746 41.92 262.05 42.22 261.554 42.82C261.058 43.412 260.81 44.596 260.81 46.372C260.81 48.156 261.058 49.348 261.554 49.948C262.05 50.54 262.746 50.836 263.642 50.836C264.482 50.836 265.206 50.568 265.814 50.032C266.422 49.488 266.726 48.82 266.726 48.028L268.526 49.804C268.526 50.772 267.91 51.644 266.678 52.42C265.446 53.196 263.982 53.584 262.286 53.584ZM273.539 53.5V39.268H277.583V53.5H273.539ZM273.539 34.996H277.583V37.816H273.539V34.996ZM280.224 53.5V39.28H283.332L284.244 41.668V53.5H280.224ZM289.488 53.5V45.964C289.488 44.388 289.296 43.32 288.912 42.76C288.528 42.2 287.936 41.92 287.136 41.92C286.304 41.92 285.592 42.26 285 42.94C284.416 43.62 284.124 44.504 284.124 45.592L282.156 44.692C282.156 43.436 282.756 42.2 283.956 40.984C285.164 39.76 286.732 39.148 288.66 39.148C290.492 39.148 291.76 39.768 292.464 41.008C293.168 42.248 293.52 43.88 293.52 45.904V53.5H289.488ZM302.791 53.632C300.103 53.632 298.223 52.984 297.151 51.688C296.071 50.384 295.531 48.612 295.531 46.372C295.531 44.084 296.075 42.304 297.163 41.032C298.243 39.76 300.095 39.124 302.719 39.124C305.415 39.124 307.283 39.768 308.323 41.056C309.355 42.352 309.871 44.124 309.871 46.372C309.871 46.812 309.843 47.212 309.787 47.572H299.059V45.136H305.791C305.703 43.92 305.455 43.068 305.047 42.58C304.495 42.012 303.719 41.728 302.719 41.728C301.751 41.728 300.959 42.04 300.343 42.664C299.735 43.28 299.431 44.52 299.431 46.384C299.431 48.208 299.735 49.436 300.343 50.068C300.943 50.708 301.759 51.028 302.791 51.028V53.632ZM302.791 51.028C303.391 51.028 303.887 50.952 304.279 50.8C304.679 50.632 304.999 50.364 305.239 49.996C305.463 49.612 305.659 49.168 305.827 48.664L309.439 49.684C309.263 50.62 308.883 51.372 308.299 51.94C307.707 52.516 306.999 52.94 306.175 53.212C305.343 53.492 304.215 53.632 302.791 53.632V51.028ZM318.776 53.632C316.088 53.632 314.208 52.984 313.136 51.688C312.056 50.384 311.516 48.612 311.516 46.372C311.516 44.084 312.06 42.304 313.148 41.032C314.228 39.76 316.08 39.124 318.704 39.124C321.4 39.124 323.268 39.768 324.308 41.056C325.34 42.352 325.856 44.124 325.856 46.372C325.856 46.812 325.828 47.212 325.772 47.572H315.044V45.136H321.776C321.688 43.92 321.44 43.068 321.032 42.58C320.48 42.012 319.704 41.728 318.704 41.728C317.736 41.728 316.944 42.04 316.328 42.664C315.72 43.28 315.416 44.52 315.416 46.384C315.416 48.208 315.72 49.436 316.328 50.068C316.928 50.708 317.744 51.028 318.776 51.028V53.632ZM318.776 51.028C319.376 51.028 319.872 50.952 320.264 50.8C320.664 50.632 320.984 50.364 321.224 49.996C321.448 49.612 321.644 49.168 321.812 48.664L325.424 49.684C325.248 50.62 324.868 51.372 324.284 51.94C323.692 52.516 322.984 52.94 322.16 53.212C321.328 53.492 320.2 53.632 318.776 53.632V51.028ZM336.956 46.276C336.956 44.484 336.752 43.312 336.344 42.76C335.944 42.208 335.376 41.932 334.64 41.932C333.8 41.932 333.128 42.228 332.624 42.82C332.128 43.404 331.88 44.072 331.88 44.824L330.332 43.912C330.332 42.568 330.868 41.44 331.94 40.528C333.012 39.608 334.42 39.148 336.164 39.148C338.044 39.148 339.316 39.728 339.98 40.888C340.652 42.04 340.988 43.836 340.988 46.276H336.956ZM327.872 53.5V39.28H330.98L331.892 41.74V53.5H327.872ZM350.396 53.608C348.516 53.608 346.936 53.328 345.656 52.768C344.384 52.2 343.556 51.22 343.172 49.828L346.712 48.544C346.896 49.36 347.312 49.972 347.96 50.38C348.608 50.788 349.44 50.992 350.456 50.992C351.296 50.992 351.948 50.86 352.412 50.596C352.876 50.332 353.108 49.968 353.108 49.504C353.108 48.872 352.688 48.472 351.848 48.304C351.016 48.128 349.956 47.932 348.668 47.716C347.044 47.476 345.74 47.032 344.756 46.384C343.772 45.736 343.28 44.692 343.28 43.252C343.28 41.852 343.884 40.82 345.092 40.156C346.3 39.484 347.888 39.148 349.856 39.148C351.768 39.148 353.328 39.428 354.536 39.988C355.752 40.548 356.532 41.5 356.876 42.844L353.336 44.116C353.16 43.396 352.76 42.824 352.136 42.4C351.512 41.976 350.736 41.764 349.808 41.764C348.936 41.764 348.292 41.896 347.876 42.16C347.468 42.416 347.264 42.776 347.264 43.24C347.264 43.848 347.66 44.244 348.452 44.428C349.244 44.604 350.256 44.792 351.488 44.992C353.088 45.216 354.42 45.616 355.484 46.192C356.556 46.76 357.092 47.764 357.092 49.204C357.092 50.788 356.512 51.92 355.352 52.6C354.192 53.272 352.54 53.608 350.396 53.608Z" fill="white"/>
<path d="M401 54L404.833 41.9038H410.31L413.595 38.3462L415.786 32.6538L418.524 38.3462L422.905 32.6538V29.8077L425.643 32.6538L432.762 38.3462L436.048 29.8077L443.167 38.3462L450.286 29.8077L454.667 23.4038L460.143 20.5577L464.524 17H470" stroke="#05E298" stroke-width="2.5" stroke-linecap="round" stroke-linejoin="round"/>
<path d="M423.05 69.9034V61.0568H425.057V69.9034H423.05ZM419.63 66.4837V64.4766H428.477V66.4837H419.63ZM431.038 69.571V67.6854L436.593 58.9091H438.165V61.5938H437.206L433.467 67.5192V67.6214H441.221V69.571H431.038ZM437.283 72V68.9957L437.309 68.152V58.9091H439.546V72H437.283ZM447.961 72.179C447.041 72.179 446.222 72.0213 445.507 71.706C444.795 71.3906 444.232 70.9517 443.819 70.3892C443.406 69.8267 443.186 69.1768 443.161 68.4396H445.564C445.585 68.7933 445.703 69.1023 445.916 69.3665C446.129 69.6264 446.412 69.8288 446.766 69.9737C447.119 70.1186 447.516 70.1911 447.955 70.1911C448.423 70.1911 448.839 70.1101 449.201 69.9482C449.563 69.782 449.847 69.5518 450.051 69.2578C450.256 68.9638 450.356 68.625 450.352 68.2415C450.356 67.8452 450.254 67.4957 450.045 67.1932C449.836 66.8906 449.534 66.6541 449.137 66.4837C448.745 66.3132 448.272 66.228 447.718 66.228H446.561V64.3999H447.718C448.174 64.3999 448.573 64.321 448.914 64.1634C449.259 64.0057 449.529 63.7841 449.725 63.4986C449.921 63.2088 450.017 62.8743 450.013 62.495C450.017 62.1243 449.934 61.8026 449.764 61.5298C449.597 61.2528 449.361 61.0376 449.054 60.8842C448.752 60.7308 448.396 60.6541 447.987 60.6541C447.586 60.6541 447.215 60.7266 446.874 60.8714C446.534 61.0163 446.259 61.223 446.05 61.4915C445.841 61.7557 445.73 62.071 445.718 62.4375H443.436C443.453 61.7045 443.664 61.0611 444.068 60.5071C444.477 59.9489 445.023 59.5142 445.705 59.2031C446.387 58.8878 447.151 58.7301 447.999 58.7301C448.873 58.7301 449.632 58.8942 450.275 59.2223C450.923 59.5462 451.423 59.983 451.777 60.5327C452.131 61.0824 452.308 61.6896 452.308 62.3544C452.312 63.0916 452.095 63.7095 451.656 64.2081C451.221 64.7067 450.65 65.0327 449.943 65.1861V65.2884C450.863 65.4162 451.568 65.7571 452.058 66.3111C452.553 66.8608 452.798 67.5447 452.794 68.3629C452.794 69.0959 452.585 69.7521 452.167 70.3317C451.754 70.907 451.183 71.3587 450.454 71.6868C449.73 72.0149 448.899 72.179 447.961 72.179ZM461.987 69.5455V68.8551C461.987 68.348 462.093 67.8814 462.306 67.4553C462.524 67.0291 462.839 66.6861 463.252 66.4261C463.666 66.1662 464.167 66.0362 464.755 66.0362C465.36 66.0362 465.867 66.1662 466.276 66.4261C466.685 66.6818 466.994 67.0227 467.203 67.4489C467.416 67.875 467.522 68.3437 467.522 68.8551V69.5455C467.522 70.0526 467.416 70.5192 467.203 70.9453C466.99 71.3714 466.676 71.7145 466.263 71.9744C465.854 72.2344 465.351 72.3643 464.755 72.3643C464.158 72.3643 463.653 72.2344 463.24 71.9744C462.826 71.7145 462.513 71.3714 462.3 70.9453C462.091 70.5192 461.987 70.0526 461.987 69.5455ZM463.655 68.8551V69.5455C463.655 69.8821 463.736 70.1911 463.898 70.4723C464.06 70.7536 464.346 70.8942 464.755 70.8942C465.168 70.8942 465.451 70.7557 465.605 70.4787C465.762 70.1974 465.841 69.8864 465.841 69.5455V68.8551C465.841 68.5142 465.767 68.2031 465.618 67.9219C465.468 67.6364 465.181 67.4936 464.755 67.4936C464.354 67.4936 464.071 67.6364 463.904 67.9219C463.738 68.2031 463.655 68.5142 463.655 68.8551ZM455.333 62.054V61.3636C455.333 60.8523 455.441 60.3835 455.659 59.9574C455.876 59.5312 456.191 59.1903 456.605 58.9347C457.018 58.6747 457.519 58.5447 458.107 58.5447C458.708 58.5447 459.213 58.6747 459.622 58.9347C460.035 59.1903 460.346 59.5312 460.555 59.9574C460.764 60.3835 460.868 60.8523 460.868 61.3636V62.054C460.868 62.5653 460.762 63.0341 460.549 63.4602C460.34 63.8821 460.029 64.2209 459.615 64.4766C459.202 64.7322 458.699 64.8601 458.107 64.8601C457.506 64.8601 456.999 64.7322 456.586 64.4766C456.176 64.2209 455.865 63.88 455.652 63.4538C455.439 63.0277 455.333 62.5611 455.333 62.054ZM457.014 61.3636V62.054C457.014 62.3949 457.093 62.706 457.25 62.9872C457.412 63.2642 457.698 63.4027 458.107 63.4027C458.516 63.4027 458.797 63.2642 458.951 62.9872C459.108 62.706 459.187 62.3949 459.187 62.054V61.3636C459.187 61.0227 459.113 60.7116 458.963 60.4304C458.814 60.1449 458.529 60.0021 458.107 60.0021C457.702 60.0021 457.419 60.1449 457.257 60.4304C457.095 60.7159 457.014 61.027 457.014 61.3636ZM456.061 72L465.061 58.9091H466.659L457.659 72H456.061Z" fill="#05E298"/>
<rect x="23" y="115" width="504" height="93" rx="16" fill="url(#paint1_linear_63_261)"/>
<path d="M80 145.591C76.8535 145.591 73.7776 146.524 71.1614 148.272C68.5452 150.02 66.506 152.505 65.3019 155.412C64.0978 158.319 63.7828 161.518 64.3966 164.604C65.0105 167.69 66.5257 170.524 68.7506 172.749C70.9755 174.974 73.8102 176.49 76.8963 177.103C79.9824 177.717 83.1811 177.402 86.0882 176.198C88.9952 174.994 91.4798 172.955 93.2279 170.339C94.976 167.722 95.9091 164.647 95.9091 161.5C95.9091 157.281 94.233 153.234 91.2494 150.251C88.2659 147.267 84.2194 145.591 80 145.591ZM80 172.864C77.7525 172.864 75.5554 172.197 73.6867 170.949C71.818 169.7 70.3615 167.925 69.5014 165.849C68.6413 163.772 68.4163 161.487 68.8547 159.283C69.2932 157.079 70.3755 155.054 71.9647 153.465C73.5539 151.875 75.5787 150.793 77.7831 150.355C79.9874 149.916 82.2722 150.141 84.3487 151.001C86.4251 151.861 88.1999 153.318 89.4485 155.187C90.6972 157.055 91.3636 159.252 91.3636 161.5C91.3636 164.514 90.1664 167.404 88.0353 169.535C85.9042 171.666 83.0138 172.864 80 172.864ZM80 154.682C78.6515 154.682 77.3333 155.082 76.212 155.831C75.0908 156.58 74.2169 157.645 73.7008 158.891C73.1848 160.137 73.0498 161.508 73.3128 162.83C73.5759 164.153 74.2253 165.368 75.1788 166.321C76.1324 167.275 77.3472 167.924 78.6698 168.187C79.9924 168.45 81.3633 168.315 82.6092 167.799C83.8551 167.283 84.9199 166.409 85.6691 165.288C86.4183 164.167 86.8182 162.849 86.8182 161.5C86.8182 159.692 86.0998 157.957 84.8212 156.679C83.5425 155.4 81.8083 154.682 80 154.682ZM80 163.773C79.5505 163.773 79.1111 163.639 78.7373 163.39C78.3636 163.14 78.0723 162.785 77.9003 162.37C77.7283 161.954 77.6833 161.497 77.7709 161.057C77.8586 160.616 78.0751 160.211 78.3929 159.893C78.7108 159.575 79.1158 159.359 79.5566 159.271C79.9975 159.183 80.4545 159.228 80.8697 159.4C81.285 159.572 81.64 159.864 81.8897 160.237C82.1394 160.611 82.2727 161.05 82.2727 161.5C82.2727 162.103 82.0333 162.681 81.6071 163.107C81.1808 163.533 80.6028 163.773 80 163.773ZM80 136.5C75.0555 136.5 70.222 137.966 66.1108 140.713C61.9995 143.46 58.7952 147.365 56.903 151.933C55.0108 156.501 54.5157 161.528 55.4804 166.377C56.445 171.227 58.826 175.681 62.3223 179.178C65.8187 182.674 70.2732 185.055 75.1227 186.02C79.9723 186.984 84.9989 186.489 89.5671 184.597C94.1352 182.705 98.0397 179.5 100.787 175.389C103.534 171.278 105 166.445 105 161.5C105 154.87 102.366 148.511 97.6777 143.822C92.9893 139.134 86.6304 136.5 80 136.5ZM80 181.955C75.9545 181.955 71.9998 180.755 68.6361 178.507C65.2723 176.26 62.6506 173.065 61.1025 169.328C59.5543 165.59 59.1493 161.477 59.9385 157.51C60.7277 153.542 62.6758 149.897 65.5365 147.036C68.3971 144.176 72.0417 142.228 76.0095 141.438C79.9773 140.649 84.09 141.054 87.8276 142.602C91.5652 144.151 94.7598 146.772 97.0073 150.136C99.2549 153.5 100.455 157.454 100.455 161.5C100.455 166.925 98.2995 172.128 94.4636 175.964C90.6276 179.8 85.4249 181.955 80 181.955Z" fill="#D9EFE7"/>
<path d="M118.548 168.5V152.3H122.616V168.5H118.548ZM125.474 168.5V154.28H128.582L129.494 156.668V168.5H125.474ZM134.738 168.5V160.964C134.738 159.388 134.546 158.32 134.162 157.76C133.778 157.2 133.186 156.92 132.386 156.92C131.554 156.92 130.842 157.26 130.25 157.94C129.666 158.62 129.374 159.504 129.374 160.592L127.406 159.692C127.406 158.436 128.006 157.2 129.206 155.984C130.414 154.76 131.982 154.148 133.91 154.148C135.742 154.148 137.01 154.768 137.714 156.008C138.418 157.248 138.77 158.88 138.77 160.904V168.5H134.738ZM147.962 168.68C146.698 168.68 145.626 168.412 144.746 167.876C143.874 167.34 143.438 166.38 143.438 164.996V157.052H140.186V154.28H143.438V151.028H147.482V154.28H151.862V157.052H147.482V164.108C147.482 164.876 147.646 165.38 147.974 165.62C148.302 165.86 148.758 165.98 149.342 165.98C149.934 165.98 150.514 165.88 151.082 165.68V168.344C150.09 168.568 149.05 168.68 147.962 168.68ZM160.44 168.632C157.752 168.632 155.872 167.984 154.8 166.688C153.72 165.384 153.18 163.612 153.18 161.372C153.18 159.084 153.724 157.304 154.812 156.032C155.892 154.76 157.744 154.124 160.368 154.124C163.064 154.124 164.932 154.768 165.972 156.056C167.004 157.352 167.52 159.124 167.52 161.372C167.52 161.812 167.492 162.212 167.436 162.572H156.708V160.136H163.44C163.352 158.92 163.104 158.068 162.696 157.58C162.144 157.012 161.368 156.728 160.368 156.728C159.4 156.728 158.608 157.04 157.992 157.664C157.384 158.28 157.08 159.52 157.08 161.384C157.08 163.208 157.384 164.436 157.992 165.068C158.592 165.708 159.408 166.028 160.44 166.028V168.632ZM160.44 166.028C161.04 166.028 161.536 165.952 161.928 165.8C162.328 165.632 162.648 165.364 162.888 164.996C163.112 164.612 163.308 164.168 163.476 163.664L167.088 164.684C166.912 165.62 166.532 166.372 165.948 166.94C165.356 167.516 164.648 167.94 163.824 168.212C162.992 168.492 161.864 168.632 160.44 168.632V166.028ZM178.62 161.276C178.62 159.484 178.416 158.312 178.008 157.76C177.608 157.208 177.04 156.932 176.304 156.932C175.464 156.932 174.792 157.228 174.288 157.82C173.792 158.404 173.544 159.072 173.544 159.824L171.996 158.912C171.996 157.568 172.532 156.44 173.604 155.528C174.676 154.608 176.084 154.148 177.828 154.148C179.708 154.148 180.98 154.728 181.644 155.888C182.316 157.04 182.652 158.836 182.652 161.276H178.62ZM169.536 168.5V154.28H172.644L173.556 156.74V168.5H169.536ZM185.028 168.5V154.28H188.136L189.048 156.668V168.5H185.028ZM194.292 168.5V160.964C194.292 159.388 194.1 158.32 193.716 157.76C193.332 157.2 192.74 156.92 191.94 156.92C191.108 156.92 190.396 157.26 189.804 157.94C189.22 158.62 188.928 159.504 188.928 160.592L186.96 159.692C186.96 158.436 187.56 157.2 188.76 155.984C189.968 154.76 191.536 154.148 193.464 154.148C195.296 154.148 196.564 154.768 197.268 156.008C197.972 157.248 198.324 158.88 198.324 160.904V168.5H194.292ZM207.74 168.608C205.86 168.608 204.28 168.328 203 167.768C201.728 167.2 200.9 166.22 200.516 164.828L204.056 163.544C204.24 164.36 204.656 164.972 205.304 165.38C205.952 165.788 206.784 165.992 207.8 165.992C208.64 165.992 209.292 165.86 209.756 165.596C210.22 165.332 210.452 164.968 210.452 164.504C210.452 163.872 210.032 163.472 209.192 163.304C208.36 163.128 207.3 162.932 206.012 162.716C204.388 162.476 203.084 162.032 202.1 161.384C201.116 160.736 200.624 159.692 200.624 158.252C200.624 156.852 201.228 155.82 202.436 155.156C203.644 154.484 205.232 154.148 207.2 154.148C209.112 154.148 210.672 154.428 211.88 154.988C213.096 155.548 213.876 156.5 214.22 157.844L210.68 159.116C210.504 158.396 210.104 157.824 209.48 157.4C208.856 156.976 208.08 156.764 207.152 156.764C206.28 156.764 205.636 156.896 205.22 157.16C204.812 157.416 204.608 157.776 204.608 158.24C204.608 158.848 205.004 159.244 205.796 159.428C206.588 159.604 207.6 159.792 208.832 159.992C210.432 160.216 211.764 160.616 212.828 161.192C213.9 161.76 214.436 162.764 214.436 164.204C214.436 165.788 213.856 166.92 212.696 167.6C211.536 168.272 209.884 168.608 207.74 168.608ZM216.435 168.5V149.66H220.467V168.5H216.435ZM225.771 168.5V160.964C225.771 159.388 225.571 158.32 225.171 157.76C224.779 157.2 224.183 156.92 223.383 156.92C222.551 156.92 221.843 157.26 221.259 157.94C220.683 158.62 220.395 159.504 220.395 160.592L218.439 159.692C218.439 158.436 219.035 157.2 220.227 155.984C221.419 154.76 222.979 154.148 224.907 154.148C226.739 154.148 228.011 154.748 228.723 155.948C229.443 157.14 229.803 158.748 229.803 160.772V168.5H225.771ZM232.485 168.5V154.268H236.529V168.5H232.485ZM232.485 149.996H236.529V152.816H232.485V149.996ZM239.169 173.828V154.28H242.277L243.189 156.524V173.828H239.169ZM247.713 168.584C246.017 168.584 244.541 168.192 243.285 167.408C242.037 166.624 241.413 165.756 241.413 164.804L243.189 163.028C243.189 163.828 243.497 164.496 244.113 165.032C244.737 165.568 245.465 165.836 246.297 165.836C247.201 165.836 247.897 165.54 248.385 164.948C248.881 164.356 249.129 163.164 249.129 161.372C249.129 159.604 248.881 158.42 248.385 157.82C247.897 157.22 247.201 156.92 246.297 156.92C245.465 156.92 244.737 157.188 244.113 157.724C243.497 158.26 243.189 158.92 243.189 159.704L241.413 157.964C241.413 157.004 242.037 156.128 243.285 155.336C244.541 154.544 246.017 154.148 247.713 154.148C249.641 154.148 251.037 154.788 251.901 156.068C252.765 157.348 253.197 159.112 253.197 161.36C253.197 163.6 252.765 165.364 251.901 166.652C251.037 167.94 249.641 168.584 247.713 168.584ZM262.185 168.608C260.305 168.608 258.725 168.328 257.445 167.768C256.173 167.2 255.345 166.22 254.961 164.828L258.501 163.544C258.685 164.36 259.101 164.972 259.749 165.38C260.397 165.788 261.229 165.992 262.245 165.992C263.085 165.992 263.737 165.86 264.201 165.596C264.665 165.332 264.897 164.968 264.897 164.504C264.897 163.872 264.477 163.472 263.637 163.304C262.805 163.128 261.745 162.932 260.457 162.716C258.833 162.476 257.529 162.032 256.545 161.384C255.561 160.736 255.069 159.692 255.069 158.252C255.069 156.852 255.673 155.82 256.881 155.156C258.089 154.484 259.677 154.148 261.645 154.148C263.557 154.148 265.117 154.428 266.325 154.988C267.541 155.548 268.321 156.5 268.665 157.844L265.125 159.116C264.949 158.396 264.549 157.824 263.925 157.4C263.301 156.976 262.525 156.764 261.597 156.764C260.725 156.764 260.081 156.896 259.665 157.16C259.257 157.416 259.053 157.776 259.053 158.24C259.053 158.848 259.449 159.244 260.241 159.428C261.033 159.604 262.045 159.792 263.277 159.992C264.877 160.216 266.209 160.616 267.273 161.192C268.345 161.76 268.881 162.764 268.881 164.204C268.881 165.788 268.301 166.92 267.141 167.6C265.981 168.272 264.329 168.608 262.185 168.608Z" fill="white"/>
<path d="M396 169L401.5 156.904H409.357L414.071 153.346L417.214 147.654L421.143 153.346L427.429 147.654V144.808L431.357 147.654L441.571 153.346L446.286 144.808L456.5 153.346L466.714 144.808L473 138.404L480.857 135.558L487.143 132H495" stroke="#459BFF" stroke-width="2.5" stroke-linecap="round" stroke-linejoin="round"/>
<path d="M448.05 184.903V176.057H450.057V184.903H448.05ZM444.63 181.484V179.477H453.477V181.484H444.63ZM456.038 184.571V182.685L461.593 173.909H463.165V176.594H462.206L458.467 182.519V182.621H466.221V184.571H456.038ZM462.283 187V183.996L462.309 183.152V173.909H464.546V187H462.283ZM472.961 187.179C472.041 187.179 471.222 187.021 470.507 186.706C469.795 186.391 469.232 185.952 468.819 185.389C468.406 184.827 468.186 184.177 468.161 183.44H470.564C470.585 183.793 470.703 184.102 470.916 184.366C471.129 184.626 471.412 184.829 471.766 184.974C472.119 185.119 472.516 185.191 472.955 185.191C473.423 185.191 473.839 185.11 474.201 184.948C474.563 184.782 474.847 184.552 475.051 184.258C475.256 183.964 475.356 183.625 475.352 183.241C475.356 182.845 475.254 182.496 475.045 182.193C474.836 181.891 474.534 181.654 474.137 181.484C473.745 181.313 473.272 181.228 472.718 181.228H471.561V179.4H472.718C473.174 179.4 473.573 179.321 473.914 179.163C474.259 179.006 474.529 178.784 474.725 178.499C474.921 178.209 475.017 177.874 475.013 177.495C475.017 177.124 474.934 176.803 474.764 176.53C474.597 176.253 474.361 176.038 474.054 175.884C473.752 175.731 473.396 175.654 472.987 175.654C472.586 175.654 472.215 175.727 471.874 175.871C471.534 176.016 471.259 176.223 471.05 176.491C470.841 176.756 470.73 177.071 470.718 177.438H468.436C468.453 176.705 468.664 176.061 469.068 175.507C469.477 174.949 470.023 174.514 470.705 174.203C471.387 173.888 472.151 173.73 472.999 173.73C473.873 173.73 474.632 173.894 475.275 174.222C475.923 174.546 476.423 174.983 476.777 175.533C477.131 176.082 477.308 176.69 477.308 177.354C477.312 178.092 477.095 178.71 476.656 179.208C476.221 179.707 475.65 180.033 474.943 180.186V180.288C475.863 180.416 476.568 180.757 477.058 181.311C477.553 181.861 477.798 182.545 477.794 183.363C477.794 184.096 477.585 184.752 477.167 185.332C476.754 185.907 476.183 186.359 475.454 186.687C474.73 187.015 473.899 187.179 472.961 187.179ZM486.987 184.545V183.855C486.987 183.348 487.093 182.881 487.306 182.455C487.524 182.029 487.839 181.686 488.252 181.426C488.666 181.166 489.167 181.036 489.755 181.036C490.36 181.036 490.867 181.166 491.276 181.426C491.685 181.682 491.994 182.023 492.203 182.449C492.416 182.875 492.522 183.344 492.522 183.855V184.545C492.522 185.053 492.416 185.519 492.203 185.945C491.99 186.371 491.676 186.714 491.263 186.974C490.854 187.234 490.351 187.364 489.755 187.364C489.158 187.364 488.653 187.234 488.24 186.974C487.826 186.714 487.513 186.371 487.3 185.945C487.091 185.519 486.987 185.053 486.987 184.545ZM488.655 183.855V184.545C488.655 184.882 488.736 185.191 488.898 185.472C489.06 185.754 489.346 185.894 489.755 185.894C490.168 185.894 490.451 185.756 490.605 185.479C490.762 185.197 490.841 184.886 490.841 184.545V183.855C490.841 183.514 490.767 183.203 490.618 182.922C490.468 182.636 490.181 182.494 489.755 182.494C489.354 182.494 489.071 182.636 488.904 182.922C488.738 183.203 488.655 183.514 488.655 183.855ZM480.333 177.054V176.364C480.333 175.852 480.441 175.384 480.659 174.957C480.876 174.531 481.191 174.19 481.605 173.935C482.018 173.675 482.519 173.545 483.107 173.545C483.708 173.545 484.213 173.675 484.622 173.935C485.035 174.19 485.346 174.531 485.555 174.957C485.764 175.384 485.868 175.852 485.868 176.364V177.054C485.868 177.565 485.762 178.034 485.549 178.46C485.34 178.882 485.029 179.221 484.615 179.477C484.202 179.732 483.699 179.86 483.107 179.86C482.506 179.86 481.999 179.732 481.586 179.477C481.176 179.221 480.865 178.88 480.652 178.454C480.439 178.028 480.333 177.561 480.333 177.054ZM482.014 176.364V177.054C482.014 177.395 482.093 177.706 482.25 177.987C482.412 178.264 482.698 178.403 483.107 178.403C483.516 178.403 483.797 178.264 483.951 177.987C484.108 177.706 484.187 177.395 484.187 177.054V176.364C484.187 176.023 484.113 175.712 483.963 175.43C483.814 175.145 483.529 175.002 483.107 175.002C482.702 175.002 482.419 175.145 482.257 175.43C482.095 175.716 482.014 176.027 482.014 176.364ZM481.061 187L490.061 173.909H491.659L482.659 187H481.061Z" fill="#459BFF"/>
<rect y="230" width="502" height="93" rx="16" fill="url(#paint2_linear_63_261)"/>
<path d="M57 260.591C53.8535 260.591 50.7776 261.524 48.1614 263.272C45.5452 265.02 43.506 267.505 42.3019 270.412C41.0978 273.319 40.7828 276.518 41.3966 279.604C42.0105 282.69 43.5257 285.524 45.7506 287.749C47.9755 289.974 50.8102 291.49 53.8963 292.103C56.9824 292.717 60.1811 292.402 63.0882 291.198C65.9952 289.994 68.4798 287.955 70.2279 285.339C71.976 282.722 72.9091 279.647 72.9091 276.5C72.9091 272.281 71.233 268.234 68.2494 265.251C65.2659 262.267 61.2194 260.591 57 260.591ZM57 287.864C54.7525 287.864 52.5554 287.197 50.6867 285.949C48.818 284.7 47.3615 282.925 46.5014 280.849C45.6413 278.772 45.4163 276.487 45.8547 274.283C46.2932 272.079 47.3755 270.054 48.9647 268.465C50.5539 266.875 52.5787 265.793 54.7831 265.355C56.9874 264.916 59.2722 265.141 61.3487 266.001C63.4251 266.861 65.1999 268.318 66.4485 270.187C67.6972 272.055 68.3636 274.252 68.3636 276.5C68.3636 279.514 67.1664 282.404 65.0353 284.535C62.9042 286.666 60.0138 287.864 57 287.864ZM57 269.682C55.6515 269.682 54.3333 270.082 53.212 270.831C52.0908 271.58 51.2169 272.645 50.7008 273.891C50.1848 275.137 50.0498 276.508 50.3128 277.83C50.5759 279.153 51.2253 280.368 52.1788 281.321C53.1324 282.275 54.3472 282.924 55.6698 283.187C56.9924 283.45 58.3633 283.315 59.6092 282.799C60.8551 282.283 61.9199 281.409 62.6691 280.288C63.4183 279.167 63.8182 277.849 63.8182 276.5C63.8182 274.692 63.0998 272.957 61.8212 271.679C60.5425 270.4 58.8083 269.682 57 269.682ZM57 278.773C56.5505 278.773 56.1111 278.639 55.7373 278.39C55.3636 278.14 55.0723 277.785 54.9003 277.37C54.7283 276.954 54.6833 276.497 54.7709 276.057C54.8586 275.616 55.0751 275.211 55.3929 274.893C55.7108 274.575 56.1158 274.359 56.5566 274.271C56.9975 274.183 57.4545 274.228 57.8697 274.4C58.285 274.572 58.64 274.864 58.8897 275.237C59.1394 275.611 59.2727 276.05 59.2727 276.5C59.2727 277.103 59.0333 277.681 58.6071 278.107C58.1808 278.533 57.6028 278.773 57 278.773ZM57 251.5C52.0555 251.5 47.222 252.966 43.1108 255.713C38.9995 258.46 35.7952 262.365 33.903 266.933C32.0108 271.501 31.5157 276.528 32.4804 281.377C33.445 286.227 35.826 290.681 39.3223 294.178C42.8187 297.674 47.2732 300.055 52.1227 301.02C56.9723 301.984 61.9989 301.489 66.5671 299.597C71.1352 297.705 75.0397 294.5 77.7867 290.389C80.5338 286.278 82 281.445 82 276.5C82 269.87 79.3661 263.511 74.6777 258.822C69.9893 254.134 63.6304 251.5 57 251.5ZM57 296.955C52.9545 296.955 48.9998 295.755 45.6361 293.507C42.2723 291.26 39.6506 288.065 38.1025 284.328C36.5543 280.59 36.1493 276.477 36.9385 272.51C37.7277 268.542 39.6758 264.897 42.5365 262.036C45.3971 259.176 49.0417 257.228 53.0095 256.438C56.9773 255.649 61.09 256.054 64.8276 257.602C68.5652 259.151 71.7598 261.772 74.0073 265.136C76.2549 268.5 77.4545 272.454 77.4545 276.5C77.4545 281.925 75.2995 287.128 71.4636 290.964C67.6276 294.8 62.4249 296.955 57 296.955Z" fill="#D9EFE7"/>
<path d="M94.948 283.5V267.3H99.04V274.008H105.016V267.3H109.096V283.5H105.016V276.78H99.04V283.5H94.948ZM111.471 283.5V267.3H120.795C122.595 267.3 123.795 267.784 124.395 268.752C125.003 269.72 125.307 270.888 125.307 272.256C125.307 273.6 124.987 274.732 124.347 275.652C123.715 276.564 122.475 277.02 120.627 277.02H115.563V283.5H111.471ZM121.167 283.5L117.723 275.952L121.779 275.784L125.595 283.5H121.167ZM115.563 274.524H119.439C120.119 274.524 120.583 274.332 120.831 273.948C121.087 273.556 121.215 273.008 121.215 272.304C121.215 271.592 121.087 271.044 120.831 270.66C120.575 270.268 120.111 270.072 119.439 270.072H115.563V274.524ZM133.466 283.5V267.3H145.31V270.072H137.546V273.972H144.758V276.612H137.546V280.728H145.31V283.5H133.466ZM146.694 283.5L151.302 276.384L146.862 269.28H151.434L154.278 274.74L157.014 269.28H161.538L157.074 276.384L161.622 283.5H157.062L154.098 278.016L151.23 283.5H146.694ZM169.104 283.632C166.416 283.632 164.536 282.984 163.464 281.688C162.384 280.384 161.844 278.612 161.844 276.372C161.844 274.084 162.388 272.304 163.476 271.032C164.556 269.76 166.408 269.124 169.032 269.124C171.728 269.124 173.596 269.768 174.636 271.056C175.668 272.352 176.184 274.124 176.184 276.372C176.184 276.812 176.156 277.212 176.1 277.572H165.372V275.136H172.104C172.016 273.92 171.768 273.068 171.36 272.58C170.808 272.012 170.032 271.728 169.032 271.728C168.064 271.728 167.272 272.04 166.656 272.664C166.048 273.28 165.744 274.52 165.744 276.384C165.744 278.208 166.048 279.436 166.656 280.068C167.256 280.708 168.072 281.028 169.104 281.028V283.632ZM169.104 281.028C169.704 281.028 170.2 280.952 170.592 280.8C170.992 280.632 171.312 280.364 171.552 279.996C171.776 279.612 171.972 279.168 172.14 278.664L175.752 279.684C175.576 280.62 175.196 281.372 174.612 281.94C174.02 282.516 173.312 282.94 172.488 283.212C171.656 283.492 170.528 283.632 169.104 283.632V281.028ZM184.824 283.632C182.176 283.632 180.324 283.004 179.268 281.748C178.212 280.492 177.684 278.712 177.684 276.408C177.684 274.064 178.212 272.268 179.268 271.02C180.324 269.772 182.176 269.148 184.824 269.148C187.184 269.148 188.824 269.66 189.744 270.684C190.664 271.708 191.2 272.784 191.352 273.912L187.764 275.16C187.7 274.064 187.412 273.252 186.9 272.724C186.396 272.196 185.704 271.932 184.824 271.932C183.96 271.932 183.24 272.232 182.664 272.832C182.088 273.424 181.8 274.616 181.8 276.408C181.8 278.136 182.088 279.312 182.664 279.936C183.248 280.552 183.968 280.86 184.824 280.86C185.696 280.86 186.388 280.584 186.9 280.032C187.412 279.472 187.7 278.688 187.764 277.68L191.352 278.976C191.2 280.024 190.664 281.064 189.744 282.096C188.824 283.12 187.184 283.632 184.824 283.632ZM203.564 283.5L202.64 281.232V269.28H206.66V283.5H203.564ZM197.276 269.268V276.792C197.276 278.376 197.46 279.448 197.828 280.008C198.204 280.568 198.792 280.848 199.592 280.848C200.432 280.848 201.152 280.52 201.752 279.864C202.352 279.208 202.652 278.336 202.652 277.248L204.632 278.076C204.632 279.324 204.06 280.56 202.916 281.784C201.78 283.008 200.176 283.62 198.104 283.62C196.248 283.62 194.976 283.02 194.288 281.82C193.6 280.62 193.256 279.012 193.256 276.996V269.268H197.276ZM215.993 283.68C214.729 283.68 213.657 283.412 212.777 282.876C211.905 282.34 211.469 281.38 211.469 279.996V272.052H208.217V269.28H211.469V266.028H215.513V269.28H219.893V272.052H215.513V279.108C215.513 279.876 215.677 280.38 216.005 280.62C216.333 280.86 216.789 280.98 217.373 280.98C217.965 280.98 218.545 280.88 219.113 280.68V283.344C218.121 283.568 217.081 283.68 215.993 283.68ZM222.024 283.5V269.268H226.068V283.5H222.024ZM222.024 264.996H226.068V267.816H222.024V264.996ZM232.428 283.5L227.976 269.268H232.212L235.176 280.776H235.2L238.188 269.268H242.4L237.936 283.5H232.428ZM250.596 283.632C247.908 283.632 246.028 282.984 244.956 281.688C243.876 280.384 243.336 278.612 243.336 276.372C243.336 274.084 243.88 272.304 244.968 271.032C246.048 269.76 247.9 269.124 250.524 269.124C253.22 269.124 255.088 269.768 256.128 271.056C257.16 272.352 257.676 274.124 257.676 276.372C257.676 276.812 257.648 277.212 257.592 277.572H246.864V275.136H253.596C253.508 273.92 253.26 273.068 252.852 272.58C252.3 272.012 251.524 271.728 250.524 271.728C249.556 271.728 248.764 272.04 248.148 272.664C247.54 273.28 247.236 274.52 247.236 276.384C247.236 278.208 247.54 279.436 248.148 280.068C248.748 280.708 249.564 281.028 250.596 281.028V283.632ZM250.596 281.028C251.196 281.028 251.692 280.952 252.084 280.8C252.484 280.632 252.804 280.364 253.044 279.996C253.268 279.612 253.464 279.168 253.632 278.664L257.244 279.684C257.068 280.62 256.688 281.372 256.104 281.94C255.512 282.516 254.804 282.94 253.98 283.212C253.148 283.492 252.02 283.632 250.596 283.632V281.028Z" fill="white"/>
<path d="M371 284L376.5 271.904H384.357L389.071 268.346L392.214 262.654L396.143 268.346L402.429 262.654V259.808L406.357 262.654L416.571 268.346L421.286 259.808L431.5 268.346L441.714 259.808L448 253.404L455.857 250.558L462.143 247H470" stroke="#EDCB50" stroke-width="2.5" stroke-linecap="round" stroke-linejoin="round"/>
<path d="M423.05 299.903V291.057H425.057V299.903H423.05ZM419.63 296.484V294.477H428.477V296.484H419.63ZM431.038 299.571V297.685L436.593 288.909H438.165V291.594H437.206L433.467 297.519V297.621H441.221V299.571H431.038ZM437.283 302V298.996L437.309 298.152V288.909H439.546V302H437.283ZM447.961 302.179C447.041 302.179 446.222 302.021 445.507 301.706C444.795 301.391 444.232 300.952 443.819 300.389C443.406 299.827 443.186 299.177 443.161 298.44H445.564C445.585 298.793 445.703 299.102 445.916 299.366C446.129 299.626 446.412 299.829 446.766 299.974C447.119 300.119 447.516 300.191 447.955 300.191C448.423 300.191 448.839 300.11 449.201 299.948C449.563 299.782 449.847 299.552 450.051 299.258C450.256 298.964 450.356 298.625 450.352 298.241C450.356 297.845 450.254 297.496 450.045 297.193C449.836 296.891 449.534 296.654 449.137 296.484C448.745 296.313 448.272 296.228 447.718 296.228H446.561V294.4H447.718C448.174 294.4 448.573 294.321 448.914 294.163C449.259 294.006 449.529 293.784 449.725 293.499C449.921 293.209 450.017 292.874 450.013 292.495C450.017 292.124 449.934 291.803 449.764 291.53C449.597 291.253 449.361 291.038 449.054 290.884C448.752 290.731 448.396 290.654 447.987 290.654C447.586 290.654 447.215 290.727 446.874 290.871C446.534 291.016 446.259 291.223 446.05 291.491C445.841 291.756 445.73 292.071 445.718 292.438H443.436C443.453 291.705 443.664 291.061 444.068 290.507C444.477 289.949 445.023 289.514 445.705 289.203C446.387 288.888 447.151 288.73 447.999 288.73C448.873 288.73 449.632 288.894 450.275 289.222C450.923 289.546 451.423 289.983 451.777 290.533C452.131 291.082 452.308 291.69 452.308 292.354C452.312 293.092 452.095 293.71 451.656 294.208C451.221 294.707 450.65 295.033 449.943 295.186V295.288C450.863 295.416 451.568 295.757 452.058 296.311C452.553 296.861 452.798 297.545 452.794 298.363C452.794 299.096 452.585 299.752 452.167 300.332C451.754 300.907 451.183 301.359 450.454 301.687C449.73 302.015 448.899 302.179 447.961 302.179ZM461.987 299.545V298.855C461.987 298.348 462.093 297.881 462.306 297.455C462.524 297.029 462.839 296.686 463.252 296.426C463.666 296.166 464.167 296.036 464.755 296.036C465.36 296.036 465.867 296.166 466.276 296.426C466.685 296.682 466.994 297.023 467.203 297.449C467.416 297.875 467.522 298.344 467.522 298.855V299.545C467.522 300.053 467.416 300.519 467.203 300.945C466.99 301.371 466.676 301.714 466.263 301.974C465.854 302.234 465.351 302.364 464.755 302.364C464.158 302.364 463.653 302.234 463.24 301.974C462.826 301.714 462.513 301.371 462.3 300.945C462.091 300.519 461.987 300.053 461.987 299.545ZM463.655 298.855V299.545C463.655 299.882 463.736 300.191 463.898 300.472C464.06 300.754 464.346 300.894 464.755 300.894C465.168 300.894 465.451 300.756 465.605 300.479C465.762 300.197 465.841 299.886 465.841 299.545V298.855C465.841 298.514 465.767 298.203 465.618 297.922C465.468 297.636 465.181 297.494 464.755 297.494C464.354 297.494 464.071 297.636 463.904 297.922C463.738 298.203 463.655 298.514 463.655 298.855ZM455.333 292.054V291.364C455.333 290.852 455.441 290.384 455.659 289.957C455.876 289.531 456.191 289.19 456.605 288.935C457.018 288.675 457.519 288.545 458.107 288.545C458.708 288.545 459.213 288.675 459.622 288.935C460.035 289.19 460.346 289.531 460.555 289.957C460.764 290.384 460.868 290.852 460.868 291.364V292.054C460.868 292.565 460.762 293.034 460.549 293.46C460.34 293.882 460.029 294.221 459.615 294.477C459.202 294.732 458.699 294.86 458.107 294.86C457.506 294.86 456.999 294.732 456.586 294.477C456.176 294.221 455.865 293.88 455.652 293.454C455.439 293.028 455.333 292.561 455.333 292.054ZM457.014 291.364V292.054C457.014 292.395 457.093 292.706 457.25 292.987C457.412 293.264 457.698 293.403 458.107 293.403C458.516 293.403 458.797 293.264 458.951 292.987C459.108 292.706 459.187 292.395 459.187 292.054V291.364C459.187 291.023 459.113 290.712 458.963 290.43C458.814 290.145 458.529 290.002 458.107 290.002C457.702 290.002 457.419 290.145 457.257 290.43C457.095 290.716 457.014 291.027 457.014 291.364ZM456.061 302L465.061 288.909H466.659L457.659 302H456.061Z" fill="#EDCB50"/>
<defs>
<linearGradient id="paint0_linear_63_261" x1="376.77" y1="52.5278" x2="-87.6252" y2="-118.098" gradientUnits="userSpaceOnUse">
<stop stop-color="#093725"/>
<stop offset="1" stop-color="#7BC277"/>
</linearGradient>
<linearGradient id="paint1_linear_63_261" x1="23" y1="161.5" x2="668.552" y2="64.8479" gradientUnits="userSpaceOnUse">
<stop stop-color="#093725"/>
<stop offset="1" stop-color="#1A9D6A"/>
</linearGradient>
<linearGradient id="paint2_linear_63_261" x1="523.317" y1="331.181" x2="-204.423" y2="151.457" gradientUnits="userSpaceOnUse">
<stop stop-color="#093725"/>
<stop offset="1" stop-color="#7BC277"/>
</linearGradient>
</defs>
</svg>
