<svg width="900" height="800" viewBox="0 0 900 800" fill="none" xmlns="http://www.w3.org/2000/svg">
<g clip-path="url(#clip0_496_960)">
<g filter="url(#filter0_f_496_960)">
<ellipse cx="537.936" cy="591.388" rx="438.611" ry="178.196" transform="rotate(2.1318 537.936 591.388)" fill="url(#paint0_radial_496_960)"/>
</g>
<path d="M311.09 284L782.81 552.22L558.31 686.35L102.33 427C100.724 426.088 99.3846 424.771 98.4466 423.18C97.5086 421.589 97.0043 419.779 96.984 417.932C96.9638 416.086 97.4283 414.266 98.3313 412.654C99.2342 411.043 100.544 409.697 102.13 408.75L311.09 284Z" fill="url(#paint1_linear_496_960)"/>
<path d="M821.05 641.64C847.725 641.64 869.35 633.375 869.35 623.18C869.35 612.985 847.725 604.72 821.05 604.72C794.375 604.72 772.75 612.985 772.75 623.18C772.75 633.375 794.375 641.64 821.05 641.64Z" fill="#E6E6E6"/>
<path d="M369.93 363.67L676.96 532.02L572.67 592.74L265.64 424.39L369.93 363.67Z" fill="#B3B3B3"/>
<path d="M414.42 180C405.42 163.84 402.33 144.19 414.06 131.12C420.87 124.54 431.28 117.91 439.37 118.34C452.95 119.06 466.3 124.94 474.96 137.25C478.827 142.679 481.522 148.853 482.871 155.38C484.221 161.907 484.197 168.643 482.8 175.16C480.71 185.37 474.71 192.45 463.63 199.11C447.89 207.28 424.62 198.4 414.42 180Z" fill="url(#paint2_linear_496_960)"/>
<path d="M461.26 189.52V189.45C462.691 186.581 463.94 183.625 465 180.6C464.08 179.68 464.6 177.87 465.85 177.85C467.166 173.446 467.508 168.809 466.85 164.26C465.54 156.2 460.52 149.26 454.31 144.21C443.73 135.54 431.31 134.38 418.5 134.09C415.69 134.6 412.937 135.384 410.28 136.43C403.19 149.16 406.55 165.94 414.39 180.05C421.39 192.59 434.39 200.71 447.04 202C450.619 200.522 453.886 198.381 456.67 195.69C458.462 193.842 460.006 191.768 461.26 189.52Z" fill="url(#paint3_linear_496_960)"/>
<path d="M461.18 192.6C452.53 194.41 437.75 192.29 427.29 178.7C415.92 163.92 415.29 141.57 422.68 130.7L422.21 131C434.21 121.54 454.55 128.33 465.28 143.59C476.01 158.85 477.1 182.75 461.18 192.6Z" fill="url(#paint4_linear_496_960)"/>
<path d="M450.81 139.18C447.6 137.56 439.72 135.18 436.74 138.3C432.83 142.4 439.99 145.97 443.05 146.91C445.82 147.607 448.545 148.472 451.21 149.5C462.08 154.34 465.45 164.76 466.8 175.5C469.287 169.052 469.219 161.899 466.61 155.5C464.3 150 461.17 144.4 450.81 139.18Z" fill="white"/>
<path d="M478.45 229C478.38 232.66 481.86 236.29 486.06 239C490.26 241.71 498.88 242.4 502.06 241.3C505.24 240.2 506.73 232.3 506.28 228.79C505.72 224.32 504.65 223.57 501.15 222.12C497.65 220.67 493.15 220.87 487.95 221.91C482.75 222.95 478.51 225.38 478.45 229Z" fill="url(#paint5_linear_496_960)"/>
<path d="M490.95 169.62C488.32 175.94 488.27 185.24 490.25 191.49C491.95 196.88 494.93 196.95 498.03 196.93C497.72 195.78 497.43 194.55 497.17 193.24C495.41 184.59 497.17 172.51 501.8 163.33C501.296 163.206 500.785 163.109 500.27 163.04C498.33 162.87 493.58 163.31 490.95 169.62Z" fill="#3A714B"/>
<path d="M511.52 230.34C510.15 237.88 511.78 251.34 515.89 260C520.37 269.42 527.12 281.24 538.77 282.27C547.68 283.05 561.56 274.21 568.42 265.81C575.28 257.41 578.71 244.74 575.96 236.68C575.378 234.919 574.666 233.205 573.83 231.55C573.675 231.592 573.518 231.626 573.36 231.65C575.17 237.46 572.36 245.83 562.94 248.2C552.51 250.8 534.37 247.32 525.51 242.2C517.51 237.62 512.22 231.5 516.2 222.9C513.56 225.37 511.95 228 511.52 230.34Z" fill="url(#paint6_linear_496_960)"/>
<path d="M518.08 243.35C518.127 242.847 518.231 242.35 518.39 241.87C520.25 243.575 522.304 245.055 524.51 246.28L524.65 246.36C524.995 249.471 525.086 252.605 524.92 255.73C524.933 260.858 525.567 265.965 526.81 270.94C526.87 271.2 526.94 271.47 527 271.73C523.682 267.252 521.301 262.15 520 256.73C518.91 252.49 517.68 247.76 518.08 243.35Z" fill="#D9F2DC"/>
<path d="M555.62 249.07C558.088 249.05 560.546 248.758 562.95 248.2C572.36 245.84 575.18 237.47 573.37 231.65C573.529 231.626 573.685 231.592 573.84 231.55C574.676 233.205 575.388 234.919 575.97 236.68C578.71 244.73 575.29 257.41 568.43 265.81C561.7 274.05 548.21 282.71 539.29 282.3C547.35 274.91 552.71 261.67 555.62 249.07Z" fill="url(#paint7_linear_496_960)"/>
<path d="M516.21 222.94C512.21 231.54 517.53 237.66 525.52 242.24C534.38 247.32 552.52 250.81 562.95 248.24C572.36 245.88 575.18 237.51 573.37 231.69C569.57 232.444 565.713 232.865 561.84 232.95C549.33 233.31 532.36 225.69 520.84 219.63C519.182 220.564 517.63 221.673 516.21 222.94Z" fill="url(#paint8_linear_496_960)"/>
<path d="M519.31 182C512.6 178.47 510.56 196.15 518.19 199.51C523.84 202 528.08 186.6 519.31 182Z" fill="white"/>
<path d="M497.16 193.25C497.43 194.56 497.72 195.79 498.02 196.94C500.5 206.18 504.56 210.61 513.9 215.87C515.84 216.97 518.18 218.25 520.79 219.61C532.34 225.66 549.31 233.29 561.79 232.93C565.663 232.846 569.521 232.424 573.32 231.67C573.479 231.646 573.635 231.613 573.79 231.57C579.9 230.442 585.633 227.809 590.47 223.91C589.368 223.589 588.291 223.184 587.25 222.7C586.335 222.403 585.555 221.789 585.05 220.97C581.56 215.97 581.66 208.16 583.51 203.02C585.36 197.88 590.32 192.07 597.6 192.07L603.16 196.07C603.78 186.91 601.16 177.48 592.7 170.48C584.24 163.48 571.53 156.78 558.27 152.06V160.37H555.4V151C553.673 150.427 551.943 149.887 550.21 149.38C538.15 145.91 518.43 145.21 508.13 154.64C505.516 157.126 503.372 160.063 501.8 163.31C497.12 172.52 495.4 184.6 497.16 193.25ZM503.5 194.32C503.265 193.665 503.065 192.997 502.9 192.32C501.43 186.2 502.29 178.97 503.14 172.12C503.274 170.892 503.651 169.703 504.248 168.621C504.846 167.54 505.652 166.588 506.62 165.82C507.78 164.88 509.141 164.218 510.598 163.887C512.054 163.556 513.567 163.564 515.02 163.91L522.37 166.73L522.68 167.11L524.8 177.33L544.85 184.27L554.3 177.14C554.3 177.14 565.48 179.84 569.3 188.71C573.12 197.58 572.02 216.01 567.09 221.71C566.789 222.06 566.454 222.378 566.09 222.66C561.93 225.97 554.53 224.73 545.59 222.31C542.77 221.55 536.59 218.94 530.4 216.02C524.994 213.577 519.729 210.833 514.63 207.8C509.11 204.12 505.31 199.57 503.5 194.32Z" fill="#51BA65"/>
<path d="M551.83 160.66C551.591 160.649 551.352 160.692 551.131 160.783C550.91 160.875 550.712 161.013 550.55 161.19C544.75 159.65 539.19 157.14 533.3 155.92C527.15 154.65 521.35 155.92 515.36 156.09C520.79 152.09 530.36 151.55 536.17 151.24C540.019 150.926 543.894 151.128 547.69 151.84C550.008 152.244 552.241 153.042 554.29 154.2C554.677 154.446 555.051 154.713 555.41 155V160.34H556.09C554.695 160.664 553.258 160.772 551.83 160.66Z" fill="#D9F2DC"/>
<path d="M501.79 163.34C503.362 160.093 505.506 157.156 508.12 154.67L508.37 154.46C506.726 157.285 505.452 160.31 504.58 163.46C503.99 165.695 503.655 167.99 503.58 170.3C503.397 170.881 503.267 171.476 503.19 172.08C502.33 178.93 501.48 186.16 502.95 192.28C503.115 192.957 503.315 193.624 503.55 194.28C505.35 199.53 509.16 204.08 514.7 207.66C519.799 210.693 525.064 213.437 530.47 215.88C536.7 218.8 542.84 221.4 545.66 222.17C554.6 224.6 562 225.83 566.16 222.52C566.524 222.237 566.859 221.919 567.16 221.57C571.35 216.76 572.8 202.73 570.77 193.18C570.95 192.196 571.4 191.282 572.07 190.54C573.55 188.89 576.16 187.94 578.14 187.14C584.9 184.4 590.96 180.91 592.14 172.93C592.285 171.936 592.305 170.929 592.2 169.93L592.8 170.41C601.3 177.41 603.89 186.84 603.26 196L597.7 192C590.42 192 585.46 197.79 583.61 202.95C581.76 208.11 581.67 215.87 585.15 220.9C585.655 221.719 586.435 222.332 587.35 222.63C588.391 223.114 589.468 223.518 590.57 223.84C585.733 227.739 580 230.372 573.89 231.5C573.736 231.542 573.579 231.576 573.42 231.6C569.621 232.354 565.763 232.775 561.89 232.86C549.38 233.22 532.41 225.6 520.89 219.54C518.28 218.18 515.94 216.9 514 215.8C504.65 210.55 500.6 206.12 498.12 196.87C497.81 195.72 497.52 194.49 497.26 193.18C495.4 184.6 497.12 172.52 501.79 163.34Z" fill="url(#paint9_linear_496_960)"/>
<path d="M569.33 188.66C565.47 179.79 554.33 177.09 554.33 177.09L544.88 184.22L524.83 177.28L522.71 167.06L522.4 166.68L515 163.87C513.547 163.524 512.034 163.516 510.578 163.847C509.121 164.178 507.76 164.84 506.6 165.78C505.632 166.548 504.825 167.5 504.228 168.581C503.631 169.663 503.254 170.852 503.12 172.08C502.26 178.93 501.41 186.16 502.88 192.28C503.045 192.957 503.245 193.625 503.48 194.28C505.28 199.53 509.09 204.08 514.63 207.66C519.729 210.693 524.994 213.437 530.4 215.88C536.63 218.8 542.77 221.4 545.59 222.17C554.53 224.6 561.93 225.83 566.09 222.52C566.454 222.238 566.789 221.919 567.09 221.57C572 216 573.19 197.53 569.33 188.66ZM518.2 199.48C510.56 196.12 512.61 178.48 519.32 181.97C528.08 186.6 523.84 202 518.2 199.48ZM546.32 211C538.68 207.64 540.73 190 547.44 193.49C556.21 198.15 552 213.5 546.32 211Z" fill="url(#paint10_linear_496_960)"/>
<path d="M547.44 193.52C540.73 189.99 538.69 207.67 546.32 211.03C552 213.5 556.21 198.15 547.44 193.52Z" fill="white"/>
<path d="M557.17 127.07C556.044 127.077 554.955 127.475 554.09 128.196C553.224 128.917 552.636 129.916 552.426 131.023C552.216 132.129 552.397 133.274 552.937 134.262C553.478 135.251 554.345 136.02 555.39 136.44V135.54H558.3V136.64C559.459 136.366 560.476 135.676 561.158 134.701C561.841 133.725 562.141 132.533 562.001 131.351C561.862 130.169 561.292 129.079 560.401 128.29C559.511 127.501 558.36 127.066 557.17 127.07Z" fill="url(#paint11_linear_496_960)"/>
<path d="M555.4 151V160.31H558.31V152C557.34 151.67 556.37 151.34 555.4 151Z" fill="url(#paint12_linear_496_960)"/>
<path d="M555.4 136.44V151C556.4 151.32 557.34 151.65 558.31 152V136.64C557.941 136.734 557.561 136.781 557.18 136.78C556.571 136.778 555.967 136.663 555.4 136.44Z" fill="url(#paint13_linear_496_960)"/>
<path d="M575 255.34C570.8 260.75 570.53 267.65 576.79 270.12C583.05 272.59 589.66 276.27 594.13 272.02C598.6 267.77 592.58 258.02 588.13 252.44C585.29 249 580.48 248.29 575 255.34Z" fill="url(#paint14_linear_496_960)"/>
<path d="M583.55 203C581.71 208.14 581.61 215.92 585.09 220.95C585.595 221.769 586.375 222.382 587.29 222.68C588.331 223.164 589.408 223.569 590.51 223.89C591.21 223.296 591.878 222.665 592.51 222C589.51 217.49 589.7 211 591.45 206.58C593.3 201.97 595.57 198.65 599.95 197.02C600.958 196.654 602.062 196.654 603.07 197.02C603.07 196.69 603.14 196.34 603.15 196.02L597.59 192.02C590.36 192.06 585.4 197.85 583.55 203Z" fill="#226048"/>
<path d="M607.46 202.59C607.221 201.597 606.886 200.629 606.46 199.7C605.683 198.478 604.522 197.549 603.16 197.06C602.152 196.694 601.048 196.694 600.04 197.06C595.66 198.69 593.39 202.01 591.54 206.62C589.79 211.01 589.61 217.53 592.6 222.04C592.746 222.283 592.906 222.516 593.08 222.74C596.57 227.25 602.72 221.74 605.39 216.58C607.634 212.282 608.363 207.354 607.46 202.59Z" fill="#3AB451"/>
<path d="M466.52 216.52C468.42 207.98 476.81 204.88 481.41 209.39L500.41 247.22C501.77 256.31 492.41 260.66 484.13 256.31C474.1 234.38 466.52 216.52 466.52 216.52Z" fill="#51BA65"/>
<path d="M500.44 247.21L481.44 209.38C478.18 206.18 473.02 206.83 469.61 210.5C481.34 215.25 487.72 227.4 491.76 239.81C493.76 245.86 495.16 251.81 493.85 257.59C498.19 256.41 501.25 252.67 500.44 247.21Z" fill="#3A714B"/>
<path d="M467.78 213.06L461 200.33C459.55 195.13 468.1 192.57 469.88 194.94C473.73 203 475.46 207.32 475.46 207.32C475.46 207.32 474.78 212.08 467.78 213.06Z" fill="#3A714B"/>
<path d="M775.6 367.89L762.6 375.42L664.82 431.85L578.6 481.07L564.6 489.64C563.263 490.38 562.087 491.38 561.14 492.58C558.3 496.11 557.98 499.1 558.27 505.58C558.27 505.69 558.27 505.8 558.27 505.91V685C558.272 685.416 558.382 685.825 558.59 686.185C558.799 686.545 559.098 686.845 559.458 687.053C559.819 687.261 560.227 687.372 560.643 687.373C561.06 687.374 561.469 687.266 561.83 687.06L777.08 562.89C779.474 561.509 781.461 559.523 782.843 557.13C784.224 554.737 784.951 552.023 784.95 549.26V373.26C784.943 372.169 784.65 371.099 784.101 370.156C783.551 369.214 782.764 368.432 781.818 367.889C780.872 367.345 779.8 367.059 778.709 367.06C777.618 367.06 776.546 367.346 775.6 367.89Z" fill="#3A714B"/>
<path d="M559.47 506C559.47 505.79 559.47 505.62 559.47 505.45C559.19 499.25 559.6 497.81 561.24 495.77C561.646 495.26 562.12 494.809 562.65 494.43L577.31 485.43L663.41 436.25L774.26 372.25C774.442 372.141 774.649 372.082 774.86 372.08C775.191 372.083 775.507 372.215 775.741 372.449C775.975 372.683 776.108 372.999 776.11 373.33V549.33C776.107 551.215 775.609 553.065 774.667 554.697C773.725 556.329 772.371 557.685 770.74 558.63L559.47 680.5V506Z" fill="url(#paint15_linear_496_960)" fill-opacity="0.7"/>
<path d="M840.35 541.12L842.13 516.9C842.191 516.035 842.04 515.168 841.692 514.374C841.343 513.579 840.808 512.881 840.13 512.34L834 510.4C832.003 511.037 829.951 511.486 827.87 511.74C826.29 511.4 825.11 511.12 823.37 510.83H823.29C820.786 512.02 818.384 513.414 816.11 515C815.4 515.46 814.95 515.77 814.95 515.77C814.95 515.77 813.32 519.88 811.67 524.02C810.13 527.9 808.57 531.8 808.33 532.31C807.84 533.38 804.13 528.76 796.06 524.24C796.35 526.35 794.93 527.47 792.5 527.33C791.999 527.963 791.545 528.632 791.14 529.33C791.14 529.33 802.49 540.18 804.67 541.7C807.83 543.91 811.14 542.91 813.56 540.84L813.94 541.01L810.42 560.53C810.863 560.849 811.327 561.136 811.81 561.39C814.32 562.77 820.16 565.23 828.67 564.2C834.67 563.48 839.61 559.84 841.93 557.82C842.436 557.391 842.92 556.937 843.38 556.46L840.35 541.12Z" fill="#33475B"/>
<path d="M839.38 616.58V624.72C836.68 627.32 832.6 626.72 829.63 624.72C826.54 621.25 824.56 619.18 824.56 619.18L824.51 618.61C824.451 617.899 824.637 617.188 825.038 616.597C825.438 616.006 826.028 615.57 826.71 615.36L829.6 614.46C829.617 615.09 829.732 615.714 829.94 616.31C832.73 619.44 836.84 618.15 838.94 616.07C839.109 616.219 839.257 616.391 839.38 616.58Z" fill="#1E3946"/>
<path d="M841.16 488.08C837.8 484.08 828.65 483.78 826.39 488.08C826.223 488.442 826.18 488.851 826.27 489.24C826.63 491.24 829.11 493.79 829.11 493.79C829.11 493.79 827.59 497.4 827.59 497.52L826.39 499.9L830.05 497.52C830.05 497.52 832.52 497.05 832.7 499.43C832.88 501.81 829.7 501.72 827.96 502.69L827.58 504.89L832.67 505.39C832.6 505.71 839.33 504.89 841.84 501.39C843.136 499.38 843.767 497.014 843.645 494.625C843.523 492.237 842.654 489.947 841.16 488.08Z" fill="black"/>
<path d="M834 510.4C832.051 511.203 829.976 511.657 827.87 511.74C826.342 511.596 824.834 511.291 823.37 510.83H823.29L824.19 508.38C824.19 508.38 826.19 508.44 828.35 508.32H828.42C829.506 508.342 830.591 508.231 831.65 507.99H831.71C832.229 507.909 832.736 507.765 833.22 507.56C833.645 508.453 833.909 509.415 834 510.4Z" fill="#33475B"/>
<path d="M832.7 499.43C832.87 501.8 829.7 501.72 827.96 502.69L827.58 504.89L832.67 505.39V507.53C832.364 507.73 832.026 507.875 831.67 507.96H831.61C830.541 508.132 829.462 508.242 828.38 508.29H828.31C826.25 508.29 824.1 508.48 824.1 508.48C824.271 507.285 824.341 506.077 824.31 504.87C823.288 504.797 822.304 504.452 821.46 503.87L821.91 499.28C821.572 499.135 821.305 498.863 821.165 498.523C821.025 498.183 821.023 497.801 821.16 497.46C821.62 496.4 823.49 491.85 826.25 489.18C826.61 491.18 829.09 493.73 829.09 493.73C829.09 493.73 827.57 497.34 827.57 497.46L826.37 499.84L830.03 497.46C830.03 497.46 832.52 497.05 832.7 499.43Z" fill="#FFC39E"/>
<path d="M824.19 623.54C824.31 624.013 824.328 624.506 824.241 624.986C824.155 625.466 823.966 625.922 823.689 626.322C823.411 626.723 823.05 627.06 822.632 627.31C822.213 627.56 821.745 627.717 821.26 627.77L810.26 629.27C805.19 628.76 797.93 630.82 799.55 626.1C800.78 622.51 807.88 620.63 807.88 620.63L811.77 617.63V618C813.407 618.936 815.289 619.352 817.167 619.195C819.045 619.038 820.832 618.315 822.29 617.12C822.586 617.542 822.822 618.003 822.99 618.49C822.998 618.756 823.032 619.021 823.09 619.28C823.31 620.24 823.76 622 824.19 623.54Z" fill="#1E3946"/>
<path d="M839.16 578.44C843.93 573.11 841.91 557.84 841.91 557.84C839.59 559.84 834.67 563.5 828.65 564.22C820.14 565.22 814.3 562.79 811.79 561.41C811.62 562.68 811.79 588.62 811.79 588.62V618C813.427 618.935 815.309 619.352 817.187 619.195C819.066 619.038 820.852 618.314 822.31 617.12C822.675 616.819 823.01 616.485 823.31 616.12C824.22 602.53 825.87 583.8 825.87 583.8C826.098 582.16 826.432 580.536 826.87 578.94C826.93 579.83 828.77 607.06 829.66 614.48C829.678 615.11 829.792 615.734 830 616.33C832.79 619.46 836.9 618.17 839 616.09C839.36 615.736 839.667 615.332 839.91 614.89C839.88 604.37 838.74 586.57 839.16 578.44Z" fill="#1E3946"/>
<path d="M816.09 515C815.38 515.46 814.93 515.77 814.93 515.77C814.93 515.77 813.3 519.88 811.65 524.02L810.57 523.61C810.57 523.61 801.93 516.22 797.57 512.43C797.68 512.08 797.81 511.73 797.94 511.43C798.232 510.539 798.737 509.732 799.412 509.08C800.086 508.428 800.909 507.951 801.81 507.69C802.164 507.608 802.527 507.568 802.89 507.57C807.127 510.326 811.536 512.808 816.09 515Z" fill="#33475B"/>
<path d="M801.77 507.53V507.65C800.87 507.911 800.046 508.389 799.372 509.04C798.697 509.692 798.192 510.499 797.9 511.39L797.53 511.22C797.53 511.22 790.39 510.37 790.21 510C789.67 508.958 789.424 507.787 789.5 506.615C789.576 505.443 789.97 504.314 790.64 503.35L786.91 498.35C786.767 498.156 786.69 497.921 786.69 497.68C786.691 497.411 786.783 497.15 786.95 496.94C787.048 496.821 787.168 496.723 787.304 496.652C787.44 496.581 787.59 496.538 787.743 496.526C787.896 496.513 788.05 496.532 788.196 496.581C788.341 496.63 788.476 496.708 788.59 496.81C791.79 499.54 798.83 503.24 801.77 507.53Z" fill="#FFC39E"/>
<path d="M796 524.23C796.29 526.34 794.87 527.46 792.44 527.32C793.36 526.018 794.582 524.957 796 524.23Z" fill="url(#paint16_linear_496_960)"/>
<path d="M792 515.56L796 524.23C794.581 524.957 793.36 526.018 792.44 527.32L791.68 527.23L788.68 524.23C788.015 524.29 787.345 524.29 786.68 524.23C786.68 524.1 784.91 521.29 784.91 521.29L785.68 515.02L792 515.56Z" fill="#FFC39E"/>
<path d="M757.53 523.65L754.14 529.28L755.14 534.93L750.73 533.84L746.47 538.4L747.13 532.09L743.5 529.26L748.32 526.45L750.34 520.15L752.66 524.72L757.53 523.65Z" fill="white"/>
<path d="M755.34 477.32L755.91 496.52L750.15 502.84C749.79 497.55 746.35 494.53 742.15 496.04C737.95 497.55 734.82 502.63 734.27 507.96L729.03 506.12L728.46 486.92L741.59 472.51L755.34 477.32ZM743.51 492C745.59 491.25 747.27 488.4 747.27 485.64C747.27 482.88 745.58 481.24 743.5 481.99C741.42 482.74 739.73 485.6 739.74 488.36C739.75 491.12 741.43 492.8 743.51 492Z" fill="#3AB451"/>
<path d="M762.55 433.59L712.11 462.94V569L762.55 539.64L767.95 536.5V430.45L762.55 433.59ZM741.63 472.51L755.34 477.32L755.91 496.52L750.15 502.84L742.77 510.93L734.31 507.93L729.07 506.09L728.5 486.89L741.63 472.51ZM736.63 544.05L732.2 543L727.95 547.55L728.6 541.25L725 538.39L729.82 535.58L731.82 529.27L734.14 533.84L739.01 532.77L735.63 538.41L736.63 544.05ZM755.16 534.93L750.75 533.84L746.49 538.4L747.15 532.09L743.52 529.26L748.34 526.45L750.34 520.15L752.66 524.72L757.53 523.65L754.14 529.28L755.16 534.93Z" fill="#093725"/>
<path d="M750.15 502.84L742.77 510.93L734.31 507.93C734.86 502.6 738.18 497.47 742.19 496.01C746.2 494.55 749.79 497.55 750.15 502.84Z" fill="white"/>
<path d="M747.27 485.68C747.27 488.44 745.59 491.29 743.51 492.04C741.43 492.79 739.74 491.17 739.74 488.4C739.74 485.63 741.42 482.78 743.5 482.03C745.58 481.28 747.27 482.91 747.27 485.68Z" fill="white"/>
<path d="M739 532.77L735.62 538.41L736.61 544.05L732.201 542.97L727.951 547.52L728.6 541.22L724.98 538.39L729.8 535.58L731.81 529.27L734.13 533.84L739 532.77Z" fill="white"/>
<path d="M700.31 572.72L696.92 578.36L697.92 584L693.51 582.92L689.25 587.47L689.91 581.17L686.28 578.34L691.1 575.53L693.11 569.22L695.44 573.79L700.31 572.72Z" fill="white"/>
<path d="M694.67 498.73L695.54 527.84L689.64 534.31C687.71 527.31 682.26 523.78 675.85 526.1C669.44 528.42 663.75 536.28 661.97 544.89L654.86 542.4L654 513.28L673.91 491.44L694.67 498.73ZM676 520.51C679.79 519.14 682.85 513.95 682.84 508.91C682.83 503.87 679.76 500.91 675.97 502.28C672.18 503.65 669.12 508.84 669.13 513.87C669.14 518.9 672.26 521.88 676 520.51Z" fill="#3AB451"/>
<path d="M639.66 468.41V626.26L712.11 584.36V426.25L639.66 468.41ZM673.9 491.41L694.67 498.7L695.54 527.81L689.64 534.28L675.64 549.65L662 544.89L654.89 542.4L654 513.28L673.9 491.41ZM660.9 603.41L656.49 602.32L652.24 606.88L652.89 600.57L649.27 597.74L654.09 593.74L656.09 588.58L658.41 593.15L663.28 592.08L659.89 597.71L660.9 603.41ZM679.43 593.14L675 592L670.74 596.56L671.4 590.25L667.77 587.43L672.59 584.61L674.59 578.31L676.91 582.88L681.78 581.81L678.39 587.44L679.43 593.14ZM697.92 584L693.51 582.92L689.25 587.47L689.91 581.17L686.28 578.34L691.1 575.53L693.1 569.22L695.43 573.79L700.3 572.72L696.91 578.36L697.92 584Z" fill="url(#paint17_linear_496_960)"/>
<path d="M689.64 534.31L675.64 549.68L662 544.89C663.78 536.28 669.32 528.48 675.88 526.1C682.44 523.72 687.71 527.34 689.64 534.31Z" fill="white"/>
<path d="M682.88 508.91C682.88 513.91 679.88 519.14 676.04 520.51C672.2 521.88 669.18 518.91 669.17 513.87C669.16 508.83 672.17 503.65 676.01 502.28C679.85 500.91 682.87 503.88 682.88 508.91Z" fill="white"/>
<path d="M681.78 581.85L678.39 587.48L679.39 593.13L674.98 592.04L670.72 596.6L671.38 590.29L667.75 587.47L672.57 584.65L674.59 578.35L676.91 582.92L681.78 581.85Z" fill="white"/>
<path d="M663.25 592.12L659.86 597.75L660.86 603.4L656.451 602.31L652.201 606.87L652.85 600.56L649.23 597.73L654.05 593.78L656.06 588.62L658.38 593.19L663.25 592.12Z" fill="white"/>
<path d="M631.83 592.9L628.45 598.54L629.45 604.18L625.03 603.1L620.78 607.66L621.44 601.35L617.81 598.52L622.63 594.57L624.64 589.4L626.96 593.97L631.83 592.9Z" fill="white"/>
<path d="M626.16 550.26L626.73 569.46L621.26 575.46C621.04 569.93 617.55 566.74 613.26 568.28C608.97 569.82 605.61 575.37 605.32 580.98L599.86 579.06L599.29 559.86L612.42 545.45L626.16 550.26ZM613.93 564.26C616.01 563.51 617.69 560.66 617.69 557.89C617.69 555.12 615.99 553.5 613.91 554.25C611.83 555 610.15 557.85 610.15 560.62C610.15 563.39 611.85 565 613.93 564.28V564.26Z" fill="#3AB451"/>
<path d="M583.82 536.68V642.78L639.66 610.29V504.19L583.82 536.68ZM612.45 545.45L626.16 550.26L626.73 569.46L621.26 575.46L613.6 583.87L605.35 581L599.89 579.08L599.32 559.88L612.45 545.45ZM610.92 612.17L606.5 611.08L602.25 615.64L602.91 609.33L599.28 606.5L604.1 603.69L606.1 597.39L608.42 601.96L613.3 600.89L609.91 606.52L610.92 612.17ZM629.45 604.17L625 603.1L620.75 607.66L621.41 601.35L617.78 598.52L622.6 594.52L624.6 589.35L627 594L631.87 592.93L628.49 598.57L629.45 604.17Z" fill="#093725"/>
<path d="M621.26 575.46L613.6 583.87L605.35 581C605.64 575.39 609.08 569.82 613.29 568.3C617.5 566.78 621 569.93 621.26 575.46Z" fill="white"/>
<path d="M617.69 557.91C617.69 560.68 616.01 563.53 613.93 564.28C611.85 565.03 610.16 563.4 610.15 560.64C610.14 557.88 611.83 555.02 613.91 554.27C615.99 553.52 617.68 555.15 617.69 557.91Z" fill="white"/>
<path d="M613.31 600.89L609.92 606.52L610.92 612.17L606.5 611.08L602.25 615.64L602.91 609.33L599.28 606.5L604.1 603.69L606.11 597.39L608.43 601.96L613.31 600.89Z" fill="white"/>
<path d="M590.23 459V459.38L569.74 470.85H569.66L590.23 459Z" fill="url(#paint18_linear_496_960)"/>
<path d="M590.23 402.85V458.94L569.63 470.76L562.18 466.67L562.53 394.01C562.53 392.85 562.53 391.71 562.42 390.58V390.28C562.337 384.921 561.074 379.645 558.72 374.83C554.72 365.93 547.58 359.56 537.58 358.27C532.16 357.56 525.9 358.35 518.83 361.03C516.946 361.747 515.109 362.582 513.33 363.53L513.02 362.96V332.71C513.73 332.45 514.45 332.2 515.18 331.97L515.62 331.83L515.82 331.77C541.82 324.44 564.6 329.65 576.92 345.46C589.24 361.27 590.23 378.31 590.23 402.85Z" fill="#093725"/>
<path d="M562.2 461.22V466.67L569.65 470.76L590.25 458.94V442.22C580.7 448.25 571.43 454.69 562.2 461.22Z" fill="url(#paint19_linear_496_960)"/>
<path d="M569.74 470.82L563.48 474.32L569.66 470.78L569.74 470.82Z" fill="url(#paint20_linear_496_960)"/>
<path d="M569.63 470.76L569.49 470.84L562.18 466.83V466.67L569.63 470.76Z" fill="url(#paint21_linear_496_960)"/>
<path d="M562.42 390.58C562.42 400.93 562.24 447.41 562.17 466.67L537.57 453.18V358.25C547.83 359.72 554.83 366.75 558.71 374.81C560.884 379.801 562.141 385.143 562.42 390.58Z" fill="#3A714B"/>
<path d="M562.17 466.67V466.82L537.57 453.33V453.18L562.17 466.67Z" fill="url(#paint22_linear_496_960)"/>
<path d="M767.89 362.39C766.232 361.667 764.428 361.342 762.622 361.441C760.816 361.54 759.059 362.06 757.49 362.96C757.49 362.96 553.07 480.1 551.59 481.15C549.48 482.738 547.677 484.696 546.27 486.93C546.11 487.38 544.68 490.56 544.56 491.03C544.44 491.5 544.38 491.75 544.31 492.11C544.169 492.824 544.072 493.545 544.02 494.27C544.02 494.65 544.02 495.04 544.02 495.42V679.54L558.35 687.42V671.42V500.61C558.355 497.692 559.369 494.866 561.22 492.61C561.33 492.46 561.46 492.32 561.58 492.18C561.7 492.04 561.88 491.85 562.04 491.7L562.17 491.57L560 492.75L562.08 491.54C562.828 490.812 563.665 490.181 564.57 489.66L575.71 483.23L664.71 431.87L762.57 375.87L778.56 367L767.89 362.39Z" fill="#3A714B"/>
<path d="M477.09 420.15C476.562 423.172 476.281 426.232 476.25 429.3V439L552.56 480.58L557.85 477.58L562.14 475.12L569.49 470.91L477.09 420.15Z" fill="#3AB451"/>
<path d="M552.56 480.55C552.27 480.71 551.99 480.89 551.72 481.07L551.59 481.15C549.04 483.24 546.25 485.98 544.98 489.65C544.82 490.097 544.68 490.557 544.56 491.03C544.457 491.385 544.373 491.746 544.31 492.11C544.163 492.822 544.066 493.544 544.02 494.27C544.02 494.65 544.02 495.04 544.02 495.42V538.53L532.54 532.14L476.25 500.8V439L552.56 480.55ZM535.91 501.65C543.34 494.48 526.25 485.19 518.79 492.08C511.33 498.97 528.48 508.82 535.91 501.65ZM504.5 484C511.93 476.83 494.85 467.54 487.39 474.44C479.93 481.34 497.08 491.21 504.5 484Z" fill="url(#paint23_linear_496_960)"/>
<path d="M527 314.83L552.46 329.75C540.263 327.473 527.697 328.159 515.82 331.75L515.62 331.81H515.46L515.18 331.91C514.46 332.13 513.74 332.37 513.02 332.62L482.18 314C497.81 308.36 514.16 309.13 527 314.83Z" fill="#3AB451"/>
<path d="M543.98 538.53V565.39L476.25 527.65V501.25L532.5 532.14L543.98 538.53Z" fill="#3AB451"/>
<path d="M489.4 508.47L476.25 501.25V527.65L489.4 534.98V508.47Z" fill="url(#paint24_linear_496_960)"/>
<path d="M518.79 492.08C526.25 485.19 543.34 494.48 535.91 501.65C528.48 508.82 511.21 499.09 518.79 492.08Z" fill="url(#paint25_linear_496_960)"/>
<path d="M532.5 532.14L476.25 501.25V500.8L532.5 532.14Z" fill="url(#paint26_linear_496_960)"/>
<path d="M482.18 314L513 332.68C511 333.38 509 334.19 506.91 335.12C501.233 337.688 495.843 340.849 490.83 344.55C490.26 344.96 489.69 345.39 489.13 345.83L488.13 346.59C487.78 346.86 487.44 347.13 487.13 347.42C486.59 347.85 486.06 348.29 485.53 348.76C472.2 360.08 461.74 375.4 454.72 393.37C453.087 397.291 451.665 401.297 450.46 405.37L417.4 387.24C427.75 352.51 450.11 324.54 481.33 314.29L482.18 314Z" fill="#33CC66"/>
<path d="M487.39 474.48C494.85 467.58 511.93 476.87 504.5 484.04C497.07 491.21 479.81 481.48 487.39 474.48Z" fill="url(#paint27_linear_496_960)"/>
<path d="M513 362.94V332.71C505 335.6 497.8 339.88 490.83 344.55C475.68 354.7 466.47 369.46 459.34 383.4C457.67 386.67 456.13 389.97 454.72 393.4C453.18 397.31 451.81 401.4 450.61 405.51C450.615 405.553 450.615 405.597 450.61 405.64C449.744 408.7 448.957 411.82 448.25 415L455.99 419.19V477.9L446.55 485L444.48 486.55C444.57 517.49 444.48 562.43 444.48 562.43V562.85C444.91 561.56 476.25 542.67 476.25 542.67V527.67V500.79V429.3C476.282 426.232 476.562 423.172 477.09 420.15C477.086 420.103 477.086 420.057 477.09 420.01C480.2 401.42 491.91 374.89 513.3 363.51L513 362.94Z" fill="#093725"/>
<path d="M450.62 405.48C450.624 405.523 450.624 405.567 450.62 405.61L450.47 405.53C450.464 405.487 450.464 405.443 450.47 405.4L450.62 405.48Z" fill="url(#paint28_linear_496_960)"/>
<path d="M450.47 405.4C450.465 405.443 450.465 405.487 450.47 405.53L417.47 387.4V387.27L450.47 405.4Z" fill="url(#paint29_linear_496_960)"/>
<path d="M417.38 387.4L450.38 405.53C449.49 408.53 448.7 411.63 448.01 414.88L414.84 396.88C415.614 393.687 416.46 390.527 417.38 387.4Z" fill="#3A714B"/>
<path d="M444.68 483.92C444.68 484.72 444.68 485.52 444.68 486.34L444.47 486.5V483.81L444.68 483.92Z" fill="url(#paint30_linear_496_960)"/>
<path d="M440.13 428.07V481.42V489.77L455.96 477.87V427.91V419.16L440.13 428.07Z" fill="#093725"/>
<path d="M423.49 248.61V275.22L402.33 287.88L269.39 367.07V340.86L423.49 248.61Z" fill="#51BA65"/>
<path d="M423.49 248.61L372.15 279.33V217.41L423.49 248.61Z" fill="#3A714B"/>
<path d="M440.13 489.77L415.62 476.49L410.97 473.98V492.02V541.14L444.48 562.38V486.5L440.13 489.77Z" fill="#33CC66"/>
<path d="M415.62 467.71V467.97L410.97 465.41V465.17L415.62 467.71Z" fill="url(#paint31_linear_496_960)"/>
<path d="M456 419.13L448.26 414.94L448.1 414.85L414.93 396.85L412.35 395.44L404 399.58L395.36 403.81L412.15 412.91L440.15 428.1L456 419.13Z" fill="#093725"/>
<path d="M412.06 451.28L410.97 454.02V451.18L412.06 451.28Z" fill="url(#paint32_linear_496_960)"/>
<path d="M410.97 473.98V492.02L287.77 424.62L287.54 397.4L395.34 456.83V465.51L410.97 473.98Z" fill="#3AB451"/>
<path d="M395.34 403.81V465.51L440.13 489.77V481.42V428.07L395.34 403.81Z" fill="white"/>
<path d="M411 465.17V465.41L410 464.85C410.105 464.837 410.209 464.813 410.31 464.78L411 465.17Z" fill="url(#paint33_linear_496_960)"/>
<path d="M410.97 459.42V461.84L409.59 462.89L410.97 459.42Z" fill="url(#paint34_linear_496_960)"/>
<path d="M410.97 461.84L431.1 446.51L418.73 445.03L423.69 430.69L410.97 442.58L404.53 448.6L410.97 449.17L414.91 449.52L410.97 459.42V461.84Z" fill="url(#paint35_linear_496_960)"/>
<path d="M433 446C432.897 445.614 432.682 445.268 432.38 445.006C432.079 444.744 431.706 444.578 431.31 444.53L421.4 443.35L425.55 431.35C425.696 430.928 425.697 430.469 425.552 430.047C425.407 429.625 425.124 429.263 424.75 429.02C424.427 428.807 424.048 428.692 423.66 428.69C423.155 428.692 422.669 428.885 422.3 429.23L411 439.84L403.19 447.14C402.909 447.404 402.711 447.744 402.619 448.118C402.526 448.493 402.544 448.886 402.67 449.25C402.796 449.614 403.024 449.935 403.327 450.172C403.631 450.41 403.996 450.555 404.38 450.59L411 451.18L412.09 451.28L411 454L407.77 462.13C407.616 462.507 407.582 462.922 407.67 463.32C407.67 463.42 407.73 463.51 407.77 463.61C407.904 463.942 408.125 464.232 408.41 464.45C408.758 464.715 409.183 464.859 409.62 464.86C409.74 464.875 409.861 464.875 409.98 464.86C410.086 464.846 410.189 464.823 410.29 464.79C410.487 464.718 410.673 464.617 410.84 464.49L411 464.37L432.34 448.11C432.645 447.862 432.871 447.53 432.988 447.154C433.106 446.779 433.11 446.378 433 446ZM411 461.84L409.62 462.84L411 459.37L414.94 449.47L411 449.12L404.56 448.55L411 442.55L423.72 430.66L418.72 445L431.09 446.48L411 461.84Z" fill="url(#paint36_linear_496_960)"/>
<path d="M407.74 463.64L395.34 456.83V456.62L407.64 463.34C407.67 463.45 407.7 463.54 407.74 463.64Z" fill="url(#paint37_linear_496_960)"/>
<path d="M269.39 367.07L402.33 287.48L405.38 285.67L359.38 355.44L359.26 355.51H359.25L354.63 352.97L362.73 338.62L330.15 358.38L329.3 358.89L306.83 372.52L301.3 389.77L255.4 415.27L268.68 367.09L269.03 367.31L269.35 367.09L269.39 367.07Z" fill="#3A714B"/>
<path d="M404 399.58L395.36 403.81V456.62L287.54 397.4L327 374.57L342 365.79L404 399.58ZM391.17 424.94C398.6 417.77 381.52 408.48 374.05 415.37C366.58 422.26 383.72 432.11 391.15 424.94H391.17ZM359.76 407.33C367.19 400.16 350.11 390.88 342.65 397.77C335.19 404.66 352.32 414.5 359.74 407.33H359.76Z" fill="url(#paint38_linear_496_960)"/>
<path d="M395.34 456.62V456.83L287.54 397.4L395.34 456.62Z" fill="url(#paint39_linear_496_960)"/>
<path d="M374 415.37C381.47 408.48 398.55 417.77 391.12 424.94C383.69 432.11 366.45 422.38 374 415.37Z" fill="url(#paint40_linear_496_960)"/>
<path d="M372.15 270.58V279.33L345.63 295.41V286.78L372.15 270.58Z" fill="#3A714B"/>
<path d="M372.15 256.08V270.58L345.63 286.78V272.28L372.15 256.08Z" fill="url(#paint41_linear_496_960)"/>
<path d="M372.15 241.58V256.08L345.63 272.28V257.78L372.15 241.58Z" fill="#3A714B"/>
<path d="M372.15 227.07V241.58L345.63 257.78V257.58L340.27 261.05L345.63 257.57L333.83 250.51L372.15 227.07Z" fill="url(#paint42_linear_496_960)"/>
<path d="M368.15 215L333.83 236V250.5L372.15 227.09V212.59L368.15 215Z" fill="#3A714B"/>
<path d="M372.15 154.56V169.06L333.83 192.47V178L372.15 154.56Z" fill="#3A714B"/>
<path d="M372.15 140.06V154.56L333.83 178V163.5L372.15 140.06Z" fill="url(#paint43_linear_496_960)"/>
<path d="M372.15 124.78V140.06L333.83 163.47V149.66L372.15 124.78Z" fill="#3A714B"/>
<path d="M356.15 207.84L333.83 221.48V236L368.15 215L372.15 212.56V198.06L356.15 207.84Z" fill="url(#paint44_linear_496_960)"/>
<path d="M342.63 397.77C350.09 390.88 367.17 400.16 359.74 407.33C352.31 414.5 335 404.77 342.63 397.77Z" fill="url(#paint45_linear_496_960)"/>
<path d="M359.26 355.51L354.63 353L349.27 358.41L341.97 365.82L403.97 399.61L412.29 395.54L414.88 396.95C415.614 393.73 416.444 390.557 417.37 387.43L359.26 355.51Z" fill="#3AB451"/>
<path d="M344.16 200.67L333.83 207V221.5L356.15 207.86L372.15 198.09V183.59L344.16 200.67Z" fill="#3A714B"/>
<path d="M341 114.18L344.94 116.18L322.75 130.62L318.8 128.62L341 114.18Z" fill="url(#paint46_linear_496_960)"/>
<path d="M333.83 192.47V207L344.16 200.69L372.16 183.59V169.06L333.83 192.47Z" fill="url(#paint47_linear_496_960)"/>
<path d="M330.15 358.38L329.3 358.89L306.83 372.52L301.3 389.77L341.97 365.79L348.45 359.71L354.63 352.97L362.73 338.62L330.15 358.38Z" fill="#3AB451"/>
<path d="M333.83 250.48V250.51L286.24 222.06L274.49 229.7V214.52L333.83 250.48Z" fill="url(#paint48_linear_496_960)"/>
<path d="M333.83 235.98V250.48L274.49 214.52V200.01L333.83 235.98Z" fill="url(#paint49_linear_496_960)"/>
<path d="M333.83 221.48V235.98L274.49 200.01V194.5V194.43V185.51L333.83 221.48Z" fill="url(#paint50_linear_496_960)"/>
<path d="M333.83 206.98V221.48L274.49 185.51V171.01L333.83 206.98Z" fill="url(#paint51_linear_496_960)"/>
<path d="M333.83 194.49V206.98L274.49 171.01V159.01L333.83 194.49Z" fill="url(#paint52_linear_496_960)"/>
<path d="M333.83 192.47V194.49L274.49 159.01V156.51L333.83 192.47Z" fill="url(#paint53_linear_496_960)"/>
<path d="M333.83 177.97V192.47L274.49 156.51V142L333.83 177.97Z" fill="url(#paint54_linear_496_960)"/>
<path d="M333.83 163.47V177.97L274.49 142V127.5L333.83 163.47Z" fill="url(#paint55_linear_496_960)"/>
<path d="M333.83 149.66V163.47L274.49 127.5V114.18L333.83 149.66Z" fill="url(#paint56_linear_496_960)"/>
<path d="M340.27 261.05L340.23 261.08L339.14 261.79L333.83 265.24L307.37 282.44L307.33 282.42L307.31 282.43V287.82V290.93V305.43V318.16L333.06 302.76L333.83 302.29V302.35L345.63 295.29V286.78V272.28V257.78L340.27 261.05Z" fill="#3A714B"/>
<path d="M320.47 250.13L324.42 252.13L302.22 266.57L298.28 264.57L320.47 250.13Z" fill="url(#paint57_linear_496_960)"/>
<path d="M307.31 287.82V290.93L274.49 271.04V269.09L307.31 287.82Z" fill="url(#paint58_linear_496_960)"/>
<path d="M301.11 246.1C301.379 247.791 301.042 249.522 300.16 250.99V251.04C299.82 251.533 299.42 252.053 298.96 252.6C298.96 252.6 298.96 252.6 298.96 252.65C296.388 255.13 292.964 256.533 289.39 256.57H288.75C287.83 253.25 287.84 249.79 290.48 247.24L290.79 246.95C293.67 244.49 297.61 245.11 301.08 245.72C301 245.86 301.08 246 301.11 246.1Z" fill="white"/>
<path d="M288.67 237.92C286.821 237.912 284.984 238.223 283.24 238.84C279.04 240.35 276.15 243.55 276.15 247.25C276.15 252.4 281.75 256.58 288.67 256.58C287.75 253.26 287.76 249.8 290.4 247.25L290.71 246.96C293.59 244.5 297.53 245.12 301 245.73C301 245.86 301.08 245.98 301.11 246.1C300.35 241.49 295.07 237.92 288.67 237.92ZM284.61 247.77C281.93 247.77 279.77 246.26 279.77 244.39C279.77 242.75 281.42 241.39 283.63 241.07C283.961 241.021 284.296 240.997 284.63 241C287.3 241 289.47 242.51 289.47 244.39C289.444 244.873 289.301 245.343 289.054 245.759C288.807 246.176 288.462 246.526 288.05 246.78C287.031 247.452 285.831 247.798 284.61 247.77Z" fill="#3A714B"/>
<path d="M284.61 241C287.28 241 289.45 242.51 289.45 244.39C289.424 244.873 289.281 245.343 289.034 245.759C288.786 246.176 288.442 246.526 288.03 246.78C287.018 247.452 285.825 247.801 284.61 247.78C281.93 247.78 279.77 246.27 279.77 244.4C279.77 242.76 281.42 241.4 283.63 241.08C283.954 241.028 284.282 241.001 284.61 241Z" fill="white"/>
<path d="M287.54 397.4L287.77 424.62L255.33 442.64V415.52L255.4 415.27L287.54 397.4Z" fill="#3A714B"/>
<path d="M280.48 332.68L281.75 333.46L269.39 340.86L262.93 336.54L262.73 336.42L247.97 327.47V314.89V312.97L280.48 332.68Z" fill="#29AADE"/>
<path d="M274.49 285.54L247.97 269.46V283.97L272.69 298.95L305.76 319.11L307.31 318.16V305.43L274.49 285.54Z" fill="#3AB451"/>
<path d="M274.49 271.04L247.97 254.96V269.46L274.49 285.54L307.31 305.43V290.93L274.49 271.04Z" fill="#29AADE"/>
<path d="M274.49 262.81L247.97 246.95V254.96L274.49 271.04V269.09L307.31 287.82V282.43L274.49 262.81Z" fill="url(#paint59_linear_496_960)"/>
<path d="M247.97 246.95V254.96V269.46V283.97V298.47V312.97V314.89L237.75 321.48L236.17 320.54V306.55V292.05V277.55V263.04V248.54V234.04V219.33L236.23 219.37L274.49 194.5V200.01V214.52V229.7L247.97 246.93V246.95Z" fill="#3A714B"/>
<path d="M274.49 185.51V194.43L274.43 194.47L233.44 169.96L263.11 152.2L274.49 159.01V171.01V185.51Z" fill="#3A714B"/>
<path d="M272.69 298.95L247.97 283.97V298.47L261.1 306.43L293.73 326.3L305.76 319.11L272.69 298.95Z" fill="#29AADE"/>
<path d="M191.67 294.08L236.17 320.69L236.78 321.02H236.84L269.35 340.46V367.07L268.99 367.31L133.14 285.64L132.52 285.27L109 271.19V244.58L176.86 285.16V285.21L191.67 294.08Z" fill="#33CC66"/>
<path d="M268.68 367.09L255.33 415.31V415.52L162.35 362.26L132.52 285.27L133.14 285.64L268.68 367.09Z" fill="#51BA65"/>
<path d="M267.1 372.53H267.16L268.68 367.05L132.52 285.27L135.46 292.86C135.46 292.86 250 361.76 267.1 372.53Z" fill="url(#paint60_linear_496_960)"/>
<path d="M261.1 306.43L247.97 298.47V312.97L249.5 313.9L280.48 332.68L281.75 333.46L293.73 326.3L261.1 306.43Z" fill="#3AB451"/>
<path d="M255.33 415.52V442.64L167.02 395.4V365.23L255.33 415.52Z" fill="url(#paint61_linear_496_960)"/>
<path d="M248 187.06L251.94 189.06L229.75 203.5L225.81 201.5L248 187.06Z" fill="url(#paint62_linear_496_960)"/>
<path d="M247.97 327.47V327.59L237.75 321.48L247.97 314.89V327.47Z" fill="url(#paint63_linear_496_960)"/>
<path d="M236.17 306.55V320.54L176.83 285.05V270.58L236.17 306.55Z" fill="url(#paint64_linear_496_960)"/>
<path d="M236.17 292.05V306.55L176.83 270.58V256.08L236.17 292.05Z" fill="url(#paint65_linear_496_960)"/>
<path d="M236.17 277.55V292.05L176.83 256.08V241.58L236.17 277.55Z" fill="url(#paint66_linear_496_960)"/>
<path d="M236.17 263.04V277.55L176.83 241.58V227.07L236.17 263.04Z" fill="url(#paint67_linear_496_960)"/>
<path d="M236.17 248.54V263.04L176.83 227.07V212.57L236.17 248.54Z" fill="url(#paint68_linear_496_960)"/>
<path d="M236.17 234.04V248.54L176.83 212.57V203.85L181.63 200.98L236.17 234.04Z" fill="url(#paint69_linear_496_960)"/>
<path d="M236.17 219.33V234.04L181.63 200.98L193.54 193.85L236.17 219.33Z" fill="url(#paint70_linear_496_960)"/>
<path d="M372.11 124.76L312.76 89.27L274.49 114.14L333.86 149.64L372.11 124.76ZM309.83 120.62H309.19C302.27 120.62 296.66 116.44 296.66 111.29C296.66 107.42 299.82 104.11 304.31 102.69C305.891 102.201 307.536 101.955 309.19 101.96C315.53 101.96 320.78 105.47 321.6 110.04C321.865 110.886 321.919 111.784 321.757 112.656C321.595 113.527 321.222 114.346 320.67 115.04C320.665 115.066 320.665 115.094 320.67 115.12C320.344 115.655 319.962 116.155 319.53 116.61C317.2 119.39 313.32 120.55 309.83 120.62ZM318.83 128.62L341 114.18L344.94 116.18L322.75 130.62L318.83 128.62Z" fill="#D9F2DC"/>
<path d="M333.83 250.51L286.24 222.06L274.49 229.7L248 246.93L274.52 262.78L307.36 282.42L333.86 265.24V265L340.26 261.09L345.62 257.61L333.82 250.55L333.83 250.51ZM289.31 256.57H288.67C281.75 256.57 276.15 252.39 276.15 247.24C276.15 243.54 279.04 240.34 283.24 238.83C284.984 238.213 286.821 237.902 288.67 237.91C295.07 237.91 300.35 241.48 301.11 246.09C301.357 246.921 301.399 247.8 301.234 248.651C301.068 249.503 300.7 250.302 300.16 250.98C299.82 251.543 299.417 252.067 298.96 252.54C296.63 255.37 292.77 256.5 289.31 256.57ZM302.22 266.57L298.28 264.57L320.47 250.13L324.42 252.13L302.22 266.57Z" fill="#D9F2DC"/>
<path d="M233.44 170L215.1 159L177 183.75L193.71 193.75L236.17 219.14L274.43 194.48L233.44 170ZM216.86 193.5H216.22C210.78 193.5 206.16 190.92 204.42 187.32C203.945 186.338 203.695 185.261 203.69 184.17C203.69 179.02 209.3 174.84 216.22 174.84C218.518 174.822 220.792 175.31 222.88 176.27C225.99 177.72 228.18 180.17 228.65 183.01C228.902 183.842 228.949 184.722 228.785 185.576C228.621 186.43 228.252 187.231 227.71 187.91V187.98C227.373 188.534 226.978 189.051 226.53 189.52C226.53 189.52 226.53 189.52 226.48 189.52C224.18 192.3 220.32 193.43 216.86 193.5ZM229.77 203.5L225.83 201.5L248 187.06L251.94 189.06L229.77 203.5Z" fill="#D9F2DC"/>
<path d="M309.19 102C307.536 101.995 305.891 102.241 304.31 102.73C299.82 104.15 296.66 107.46 296.66 111.33C296.66 116.48 302.27 120.66 309.19 120.66C308.26 117.33 308.27 113.88 310.91 111.33L311.22 111.04C314.1 108.57 318.05 109.2 321.52 109.81C321.551 109.899 321.578 109.989 321.6 110.08C320.78 105.48 315.53 102 309.19 102ZM308.55 110.86C307.533 111.53 306.338 111.878 305.12 111.86C302.45 111.86 300.28 110.34 300.28 108.47C300.28 106.6 302.16 105.3 304.56 105.11C304.747 105.1 304.934 105.1 305.12 105.11C307.8 105.11 309.97 106.63 309.97 108.5C309.935 108.973 309.787 109.431 309.54 109.836C309.294 110.241 308.954 110.582 308.55 110.83V110.86Z" fill="#3A714B"/>
<path d="M222.88 176.28C220.792 175.32 218.518 174.832 216.22 174.85C209.3 174.85 203.69 179.03 203.69 184.18C203.696 185.271 203.945 186.348 204.42 187.33C206.16 190.93 210.78 193.51 216.22 193.51C215.29 190.19 215.31 186.73 217.95 184.18L218.26 183.89C221.14 181.43 225.08 182.05 228.55 182.66C228.593 182.777 228.626 182.898 228.65 183.02C228.18 180.18 226 177.73 222.88 176.28ZM212.16 184.7C211.298 184.707 210.444 184.537 209.65 184.2C209.02 184.006 208.461 183.628 208.046 183.115C207.631 182.602 207.379 181.977 207.32 181.32C207.32 179.44 209.48 177.93 212.16 177.93C213.021 177.878 213.88 178.042 214.661 178.407C215.442 178.772 216.119 179.327 216.63 180.02C216.87 180.411 216.998 180.861 217 181.32C216.974 181.803 216.831 182.273 216.584 182.689C216.337 183.106 215.992 183.456 215.58 183.71C214.567 184.379 213.374 184.724 212.16 184.7Z" fill="#3A714B"/>
<path d="M321.6 110.05C321.578 109.959 321.551 109.868 321.52 109.78C318.05 109.17 314.1 108.54 311.22 111.01L310.91 111.3C308.27 113.85 308.26 117.3 309.19 120.63H309.83C313.432 120.584 316.877 119.151 319.45 116.63C319.88 116.1 320.26 115.63 320.59 115.14C320.585 115.113 320.585 115.086 320.59 115.06C321.251 113.925 321.596 112.633 321.59 111.32C321.63 110.898 321.633 110.473 321.6 110.05Z" fill="white"/>
<path d="M310 108.43C310 106.56 307.83 105.04 305.15 105.04C304.964 105.03 304.777 105.03 304.59 105.04C302.19 105.23 300.31 106.66 300.31 108.4C300.31 110.14 302.48 111.79 305.15 111.79C306.368 111.809 307.563 111.46 308.58 110.79C308.988 110.539 309.33 110.193 309.577 109.783C309.824 109.372 309.969 108.908 310 108.43Z" fill="white"/>
<path d="M228.55 182.66C225.08 182.05 221.14 181.43 218.26 183.89L217.95 184.18C215.31 186.73 215.29 190.18 216.22 193.51H216.86C220.434 193.472 223.857 192.07 226.43 189.59C226.88 189.04 227.28 188.59 227.61 188.05V187.98C228.271 186.845 228.616 185.553 228.61 184.24C228.612 183.851 228.579 183.463 228.51 183.08C228.536 182.941 228.549 182.801 228.55 182.66Z" fill="white"/>
<path d="M217 181.32C216.998 180.861 216.87 180.412 216.63 180.02C216.118 179.327 215.441 178.773 214.661 178.408C213.88 178.043 213.021 177.878 212.16 177.93C209.48 177.93 207.32 179.44 207.32 181.32C207.379 181.977 207.631 182.602 208.046 183.115C208.461 183.628 209.02 184.006 209.65 184.2C210.444 184.537 211.298 184.708 212.16 184.7C213.375 184.721 214.568 184.372 215.58 183.7C215.991 183.447 216.334 183.098 216.582 182.684C216.829 182.27 216.972 181.802 217 181.32Z" fill="white"/>
<path d="M193.54 193.85L181.63 200.98L176.83 198.07V183.86L193.54 193.85Z" fill="url(#paint71_linear_496_960)"/>
<path d="M181.63 200.98L176.83 203.85V198.07L181.63 200.98Z" fill="url(#paint72_linear_496_960)"/>
<path d="M176.83 270.58V285.05L108.97 244.47L176.83 203.85V212.57V227.07V241.58V256.08V270.58Z" fill="#3A714B"/>
<path d="M687.26 488.65L693.5 475.14" stroke="white" stroke-width="3" stroke-miterlimit="10"/>
<path d="M660.64 496.91L651.37 488.75" stroke="white" stroke-width="3" stroke-miterlimit="10"/>
<path d="M673.07 486.93V472.51" stroke="white" stroke-width="3" stroke-miterlimit="10"/>
<path d="M624.98 543.44L628.26 536.33" stroke="white" stroke-width="3" stroke-miterlimit="10"/>
<path d="M598.35 551.7L592.33 546.4" stroke="white" stroke-width="3" stroke-miterlimit="10"/>
<path d="M610.79 541.72V530.94" stroke="white" stroke-width="3" stroke-miterlimit="10"/>
<path d="M754.86 470.76L759.02 461.73" stroke="white" stroke-width="3" stroke-miterlimit="10"/>
<path d="M728.23 479.02L722.76 474.2" stroke="white" stroke-width="3" stroke-miterlimit="10"/>
<path d="M740.67 469.04V457.25" stroke="white" stroke-width="3" stroke-miterlimit="10"/>
<path d="M275.76 126.72L335.1 162.69" stroke="white" stroke-miterlimit="10"/>
<path d="M275.76 141.22L335.1 177.19" stroke="white" stroke-miterlimit="10"/>
<path d="M275.76 155.73L335.1 191.69" stroke="white" stroke-miterlimit="10"/>
<path d="M275.76 170.23L335.1 206.2" stroke="white" stroke-miterlimit="10"/>
<path d="M275.76 184.73L335.1 220.7" stroke="white" stroke-miterlimit="10"/>
<path d="M275.76 199.23L335.1 235.2" stroke="white" stroke-miterlimit="10"/>
<path d="M275.76 213.74L335.1 249.7" stroke="white" stroke-miterlimit="10"/>
<path d="M176.83 196.68L236.17 232.65" stroke="white" stroke-miterlimit="10"/>
<path d="M176.83 211.19L236.17 247.15" stroke="white" stroke-miterlimit="10"/>
<path d="M176.83 225.69L236.17 261.66" stroke="white" stroke-miterlimit="10"/>
<path d="M176.83 240.19L236.17 276.16" stroke="white" stroke-miterlimit="10"/>
<path d="M176.83 254.69L236.17 290.66" stroke="white" stroke-miterlimit="10"/>
<path d="M176.83 269.2L236.17 305.16" stroke="white" stroke-miterlimit="10"/>
<path d="M247.97 253.53L307.31 289.5" stroke="white" stroke-miterlimit="10"/>
<path d="M247.97 268.04L307.31 304.01" stroke="white" stroke-miterlimit="10"/>
<path d="M247.97 282.54L305.42 317.36" stroke="white" stroke-miterlimit="10"/>
<path d="M247.97 297.04L293.38 324.57" stroke="white" stroke-miterlimit="10"/>
<path d="M247.97 311.55L280.48 331.25" stroke="white" stroke-miterlimit="10"/>
<path d="M373.42 139.28L335.1 162.69" stroke="white" stroke-miterlimit="10"/>
<path d="M373.42 153.78L335.1 177.19" stroke="white" stroke-miterlimit="10"/>
<path d="M373.42 168.28L335.1 191.69" stroke="white" stroke-miterlimit="10"/>
<path d="M373.42 182.79L335.1 206.2" stroke="white" stroke-miterlimit="10"/>
<path d="M373.42 197.29L335.1 220.7" stroke="white" stroke-miterlimit="10"/>
<path d="M373.42 211.79L335.1 235.2" stroke="white" stroke-miterlimit="10"/>
<path d="M373.42 226.29L335.1 249.7" stroke="white" stroke-miterlimit="10"/>
<path d="M373.42 240.8L345.63 257.78" stroke="white" stroke-miterlimit="10"/>
<path d="M373.42 255.3L346.9 271.5" stroke="white" stroke-miterlimit="10"/>
<path d="M373.42 269.8L346.9 286" stroke="white" stroke-miterlimit="10"/>
<path d="M274.21 194.49L235.89 220.7" stroke="white" stroke-miterlimit="10"/>
<path d="M274.21 208.99L235.89 235.2" stroke="white" stroke-miterlimit="10"/>
<path d="M274.21 223.5L235.89 249.7" stroke="white" stroke-miterlimit="10"/>
<path d="M247.97 254.59L235.6 262.42" stroke="white" stroke-miterlimit="10"/>
<path d="M247.97 269.09L236.87 276.14" stroke="white" stroke-miterlimit="10"/>
<path d="M247.97 283.59L236.87 290.64" stroke="white" stroke-miterlimit="10"/>
<path d="M345.56 258.41L306.67 283" stroke="white" stroke-miterlimit="10"/>
<path d="M345.56 272.91L307.94 296.72" stroke="white" stroke-miterlimit="10"/>
<path d="M345.56 287.41L307.94 311.22" stroke="white" stroke-miterlimit="10"/>
<path d="M177.33 424.37C177.91 425.5 178.8 425.85 179.53 426.64C183.231 430.609 185.409 435.759 185.68 441.18C185.724 442.916 185.661 444.652 185.49 446.38C185.27 450.38 184.99 454.38 184.73 458.38L179.41 455.5C179.73 450.46 180.063 445.417 180.41 440.37C180.64 436.72 178.41 432.24 175.54 430.68C173.54 429.57 171.48 428.52 169.46 427.37C168.72 426.95 168.46 427.13 168.41 428.1C168 435.02 167.54 441.91 167.1 448.82L161.78 445.94L163.64 416.94L177.33 424.37Z" fill="url(#paint73_linear_496_960)"/>
<path d="M151.61 410.45C151.698 410.935 151.725 411.429 151.69 411.92C151.09 421.113 150.5 430.31 149.92 439.51L144.09 436.36C144.09 436.13 144.09 435.9 144.09 435.68C144.617 427.32 145.15 418.967 145.69 410.62C145.657 409.54 145.748 408.459 145.96 407.4L151.61 410.45Z" fill="url(#paint74_linear_496_960)"/>
<path d="M146 407.39C145.788 408.45 145.697 409.53 145.73 410.61C145.177 418.95 144.643 427.303 144.13 435.67C144.13 435.89 144.13 436.12 144.13 436.35C143.85 436.18 143.58 436.2 143.63 435.52C144.257 426.247 144.853 416.953 145.42 407.64C145.42 407 145.67 407.25 146 407.39Z" fill="url(#paint75_linear_496_960)"/>
<path d="M201.42 452.62C201.28 454.74 201.11 456.84 201.02 458.99C200.97 460.26 200.32 459.44 199.85 459.27C199.38 459.1 199.01 458.74 199.1 457.92C199.24 456.6 199.28 455.22 199.39 453.92C199.462 453.589 199.42 453.243 199.269 452.939C199.118 452.635 198.868 452.392 198.56 452.25C197.1 451.5 195.64 450.71 194.19 449.89C193.55 449.53 193.29 449.8 193.24 450.54C193.16 451.9 193.08 453.25 193.03 454.62C193.03 455.22 192.92 455.69 192.36 455.25C191.8 454.81 190.98 455.1 191.06 453.73C191.32 449.33 191.62 444.96 191.9 440.57C191.9 440.07 192.09 439.95 192.5 440.12C193.83 440.69 193.89 440.78 193.77 442.43C193.69 443.63 193.62 444.84 193.53 446.04C193.458 446.374 193.501 446.722 193.652 447.029C193.803 447.336 194.052 447.583 194.36 447.73C195.82 448.48 197.28 449.28 198.73 450.09C199.36 450.44 199.63 450.23 199.67 449.45C199.75 447.98 199.87 446.53 199.93 445.05C199.93 444.4 200.08 444.2 200.63 444.51C201.89 445.21 201.89 445.17 201.79 446.75L201.42 452.62Z" fill="white"/>
<path d="M248.81 490.3C247.69 489.69 247.7 489.71 248.18 488.81C248.66 487.91 248.97 487.27 249.35 486.48C249.73 485.69 249.17 484.68 249 483.79C248.44 480.91 247.77 478.03 247.12 475.14C246.95 474.37 247.01 474.14 247.62 474.43C249.02 475.16 249.01 475.14 249.35 477.22C249.643 479.007 249.953 480.793 250.28 482.58C250.34 482.9 250.35 483.36 250.67 483.58C250.99 483.8 251.03 483.34 251.14 483.09C251.8 481.62 252.48 480.18 253.14 478.72C253.56 477.79 254.29 477.72 255.14 478.59C255.198 478.63 255.247 478.681 255.284 478.74C255.322 478.8 255.346 478.866 255.356 478.936C255.367 479.005 255.363 479.076 255.344 479.144C255.326 479.212 255.294 479.275 255.25 479.33C253.45 483 251.67 486.69 249.87 490.33C249.63 490.88 249.14 490.51 248.81 490.3Z" fill="white"/>
<path d="M235.14 473.08C235.05 474.47 234.96 475.85 234.87 477.24C234.87 477.64 234.87 478.17 234.43 477.95C233.99 477.73 233.43 477.77 233.27 476.89C233.11 476.01 232.83 475.82 232.33 476.02C230.21 476.88 227.63 474.26 227.24 470.79C227.108 468.577 227.195 466.356 227.5 464.16C227.57 463.16 228.28 464.1 228.7 464.24C229.12 464.38 229.31 464.85 229.27 465.45C229.083 467.13 228.996 468.82 229.01 470.51C229.004 471.25 229.184 471.979 229.533 472.631C229.883 473.282 230.39 473.836 231.01 474.24C232.11 474.77 233.23 473.99 233.35 472.53C233.47 471.07 233.61 469.53 233.65 467.93C233.65 466.78 234.2 467.19 234.76 467.48C235.32 467.77 235.54 468.1 235.43 468.91C235.26 470.24 235.23 471.67 235.14 473.06V473.08Z" fill="white"/>
<path d="M218.94 464.38C219.07 459.18 223.14 459.93 225.42 462.79C225.69 463.13 226.35 463.67 225.96 464.15C225.57 464.63 225.34 465.26 224.51 464.25C223.03 462.44 221.39 462.49 220.82 464.25C220.619 464.89 220.556 465.565 220.637 466.231C220.718 466.897 220.941 467.537 221.29 468.11C222.04 469.42 222.96 470.21 224.02 470.11C224.26 470.11 224.48 469.98 224.75 470.17C225.235 470.586 225.566 471.153 225.69 471.78C225.88 472.45 225.33 472.32 225.07 472.37C222.9 472.8 219.33 470.09 218.91 465.87C218.895 465.373 218.905 464.876 218.94 464.38Z" fill="white"/>
<path d="M241.59 476.42C241.59 475.73 241.66 475.02 241.73 474.34C241.8 473.66 241.59 473.11 240.99 472.89C240.39 472.67 240.24 472.19 240.29 471.47C240.34 470.75 240.53 470.57 241.1 470.97C241.91 471.54 241.93 470.8 242.02 470.08C242.08 469.6 241.73 468.63 242.58 468.89C243.82 469.28 243.83 469.25 243.73 470.89C243.64 472.32 243.73 472.43 244.87 473.01C245.45 473.29 246.07 473.45 245.96 474.63C245.89 475.32 245.69 475.48 245.13 475.15C243.21 474.02 243.53 474.25 243.37 476.41C243.31 477.21 243.25 478.01 243.21 478.82C243.109 479.368 243.201 479.934 243.471 480.421C243.741 480.908 244.172 481.286 244.69 481.49C245.43 481.76 245.38 482.44 245.49 483.08C245.64 483.97 245.08 483.64 244.81 483.56C242.54 482.95 241.31 480.81 241.5 477.85L241.59 476.42Z" fill="white"/>
<path d="M205.06 456.74C204.97 458.17 204.84 459.57 204.8 461.02C204.8 462.18 204.19 461.53 203.71 461.35C203.23 461.17 202.96 460.79 203.02 460.06C203.227 457.187 203.413 454.3 203.58 451.4C203.58 450.64 203.93 450.7 204.37 451.02C204.81 451.34 205.44 451.26 205.37 452.34C205.23 453.81 205.15 455.28 205.06 456.74Z" fill="white"/>
<path d="M238.82 475.13C238.73 476.52 238.61 477.89 238.56 479.29C238.56 480.18 238.16 480.03 237.64 479.72C237.12 479.41 236.75 479.34 236.82 478.4C237.047 475.54 237.233 472.66 237.38 469.76C237.38 468.81 237.85 469.16 238.32 469.39C238.602 469.474 238.842 469.662 238.991 469.917C239.139 470.171 239.186 470.473 239.12 470.76C238.98 472.19 238.92 473.67 238.83 475.13H238.82Z" fill="white"/>
<path d="M238.58 465C238.896 465.182 239.156 465.447 239.332 465.766C239.508 466.085 239.594 466.446 239.58 466.81C239.584 466.952 239.553 467.094 239.489 467.221C239.424 467.348 239.329 467.457 239.211 467.538C239.094 467.618 238.958 467.668 238.816 467.682C238.674 467.697 238.531 467.675 238.4 467.62C238.109 467.369 237.871 467.064 237.699 466.72C237.528 466.377 237.426 466.003 237.4 465.62C237.408 465.486 237.451 465.357 237.524 465.245C237.597 465.132 237.697 465.04 237.816 464.978C237.934 464.916 238.067 464.885 238.201 464.889C238.334 464.893 238.465 464.931 238.58 465Z" fill="white"/>
<path d="M204.9 446.75C205.189 446.938 205.421 447.202 205.573 447.511C205.724 447.821 205.789 448.166 205.76 448.51C205.76 449.2 205.1 449.69 204.61 449.32C204.305 449.123 204.059 448.847 203.898 448.521C203.738 448.195 203.669 447.832 203.7 447.47C203.75 446.55 204.11 446.33 204.9 446.75Z" fill="white"/>
<path d="M156.54 426.27C157.4 426.73 158.25 427.27 159.11 427.65C159.312 427.717 159.482 427.856 159.587 428.041C159.692 428.225 159.726 428.442 159.68 428.65C159.51 430.94 159.37 433.24 159.23 435.55C159.23 436.07 159.03 436.19 158.63 435.97L153.25 433.08C153.051 432.967 152.893 432.794 152.798 432.586C152.703 432.378 152.676 432.145 152.72 431.92C152.873 429.7 153.017 427.473 153.15 425.24C153.15 424.62 153.4 424.52 153.88 424.79C154.76 425.3 155.65 425.79 156.53 426.24L156.54 426.27Z" fill="url(#paint76_linear_496_960)"/>
<path d="M174.13 435.78C175.111 436.406 175.907 437.284 176.434 438.321C176.962 439.359 177.202 440.518 177.13 441.68C177 443.89 175.38 445.02 173.63 444.12C171.88 443.22 170.41 440.39 170.55 438.05C170.7 436.25 172.2 434.6 174.13 435.78Z" fill="url(#paint77_linear_496_960)"/>
<path d="M217.94 468C216.76 463.1 215.58 458.197 214.4 453.29C214.15 452.23 213.87 451.29 213.05 451.22C211.73 450.5 211.74 450.52 211.16 451.67C210.16 453.59 209.16 455.49 208.22 457.39L206 461.64C205.74 462.15 205.78 462.41 206.42 462.86C207.5 463.62 208.09 463.32 208.42 462.22C208.69 461.31 209.21 461.28 210.01 461.75C211.43 462.6 212.86 463.37 214.29 464.06C214.676 464.238 215.006 464.519 215.244 464.871C215.482 465.224 215.619 465.635 215.64 466.06C215.644 466.632 215.812 467.192 216.124 467.672C216.436 468.152 216.878 468.533 217.4 468.77C218.26 469.2 218.12 468.71 217.94 468ZM213.94 461.62C213.4 461.38 212.86 461.05 212.31 460.75C211.8 460.47 211.31 460.24 210.77 459.9C210.23 459.56 209.9 459.15 210.28 458.47C211.014 457.225 211.649 455.924 212.18 454.58C212.27 454.33 212.44 454.19 212.71 454.35C212.84 454.436 212.949 454.55 213.03 454.683C213.111 454.816 213.162 454.965 213.18 455.12C213.51 457.03 214.01 458.93 214.5 460.84C214.66 461.64 214.38 461.8 213.9 461.59L213.94 461.62Z" fill="white"/>
<path d="M699.65 555.57L651.78 577.52C651.431 577.681 651.047 577.752 650.664 577.726C650.28 577.699 649.91 577.577 649.586 577.37C649.262 577.163 648.996 576.877 648.811 576.54C648.627 576.203 648.53 575.825 648.53 575.44C648.531 575.002 648.658 574.572 648.895 574.204C649.133 573.835 649.471 573.542 649.87 573.36L697.74 551.41C698.089 551.249 698.473 551.178 698.857 551.205C699.24 551.231 699.611 551.353 699.935 551.56C700.258 551.768 700.525 552.053 700.709 552.39C700.894 552.727 700.99 553.106 700.99 553.49C700.99 553.929 700.863 554.358 700.625 554.727C700.388 555.095 700.049 555.388 699.65 555.57Z" fill="white"/>
</g>
<defs>
<filter id="filter0_f_496_960" x="95.5776" y="408.558" width="884.717" height="365.66" filterUnits="userSpaceOnUse" color-interpolation-filters="sRGB">
<feFlood flood-opacity="0" result="BackgroundImageFix"/>
<feBlend mode="normal" in="SourceGraphic" in2="BackgroundImageFix" result="shape"/>
<feGaussianBlur stdDeviation="2" result="effect1_foregroundBlur_496_960"/>
</filter>
<radialGradient id="paint0_radial_496_960" cx="0" cy="0" r="1" gradientUnits="userSpaceOnUse" gradientTransform="translate(450.107 559.779) rotate(90.4511) scale(208.464 343.37)">
<stop stop-color="#313131"/>
<stop offset="1" stop-color="#D9D9D9" stop-opacity="0"/>
</radialGradient>
<linearGradient id="paint1_linear_496_960" x1="340.5" y1="304.5" x2="485" y2="644" gradientUnits="userSpaceOnUse">
<stop stop-color="#093725"/>
<stop offset="1" stop-color="#1A9D6A"/>
</linearGradient>
<linearGradient id="paint2_linear_496_960" x1="406.42" y1="160.27" x2="483.84" y2="160.27" gradientUnits="userSpaceOnUse">
<stop offset="0.05" stop-color="#3AB451"/>
<stop offset="1" stop-color="#29AADE"/>
</linearGradient>
<linearGradient id="paint3_linear_496_960" x1="406.42" y1="168.04" x2="467.22" y2="168.04" gradientUnits="userSpaceOnUse">
<stop offset="0.05" stop-color="#3AB451"/>
<stop offset="1" stop-color="#29AADE"/>
</linearGradient>
<linearGradient id="paint4_linear_496_960" x1="417.81" y1="159.89" x2="473.26" y2="159.89" gradientUnits="userSpaceOnUse">
<stop offset="0.18" stop-color="#CCCCCC"/>
<stop offset="1" stop-color="white"/>
</linearGradient>
<linearGradient id="paint5_linear_496_960" x1="478.45" y1="231.45" x2="506.35" y2="231.45" gradientUnits="userSpaceOnUse">
<stop offset="0.05" stop-color="#3AB451"/>
<stop offset="1" stop-color="#29AADE"/>
</linearGradient>
<linearGradient id="paint6_linear_496_960" x1="539.5" y1="226" x2="532" y2="278.5" gradientUnits="userSpaceOnUse">
<stop stop-color="#093725"/>
<stop offset="1" stop-color="#1A9D6A"/>
</linearGradient>
<linearGradient id="paint7_linear_496_960" x1="558.103" y1="231.55" x2="541.5" y2="282" gradientUnits="userSpaceOnUse">
<stop offset="0.316296" stop-color="#3A714B"/>
<stop offset="1" stop-color="#6ED78F"/>
</linearGradient>
<linearGradient id="paint8_linear_496_960" x1="544" y1="222.5" x2="530" y2="254.5" gradientUnits="userSpaceOnUse">
<stop stop-color="#3A714B"/>
<stop offset="1" stop-color="#6ED78F"/>
</linearGradient>
<linearGradient id="paint9_linear_496_960" x1="552" y1="144" x2="577" y2="233" gradientUnits="userSpaceOnUse">
<stop stop-color="#3AB451"/>
<stop offset="0.966955" stop-color="#194E23"/>
</linearGradient>
<linearGradient id="paint10_linear_496_960" x1="502.1" y1="194.07" x2="571.64" y2="194.07" gradientUnits="userSpaceOnUse">
<stop offset="0.18"/>
<stop offset="0.296521" stop-color="#111010"/>
<stop offset="1" stop-color="#7A7474"/>
</linearGradient>
<linearGradient id="paint11_linear_496_960" x1="552.32" y1="131.85" x2="562.03" y2="131.85" gradientUnits="userSpaceOnUse">
<stop offset="0.05" stop-color="#3AB451"/>
<stop offset="1" stop-color="#29AADE"/>
</linearGradient>
<linearGradient id="paint12_linear_496_960" x1="555.4" y1="155.68" x2="558.31" y2="155.68" gradientUnits="userSpaceOnUse">
<stop offset="0.05" stop-color="#3AB451"/>
<stop offset="1" stop-color="#29AADE"/>
</linearGradient>
<linearGradient id="paint13_linear_496_960" x1="555.4" y1="144.23" x2="558.31" y2="144.23" gradientUnits="userSpaceOnUse">
<stop offset="0.05" stop-color="#3AB451"/>
<stop offset="1" stop-color="#29AADE"/>
</linearGradient>
<linearGradient id="paint14_linear_496_960" x1="571.94" y1="261.93" x2="595.71" y2="261.93" gradientUnits="userSpaceOnUse">
<stop offset="0.05" stop-color="#3AB451"/>
<stop offset="1" stop-color="#29AADE"/>
</linearGradient>
<linearGradient id="paint15_linear_496_960" x1="559.38" y1="526.27" x2="776.11" y2="526.27" gradientUnits="userSpaceOnUse">
<stop stop-color="#CCCCCC"/>
<stop offset="1" stop-color="white"/>
</linearGradient>
<linearGradient id="paint16_linear_496_960" x1="792.48" y1="525.78" x2="796.08" y2="525.78" gradientUnits="userSpaceOnUse">
<stop offset="0.05" stop-color="#3AB451"/>
<stop offset="1" stop-color="#29AADE"/>
</linearGradient>
<linearGradient id="paint17_linear_496_960" x1="675.885" y1="426.25" x2="675.885" y2="626.26" gradientUnits="userSpaceOnUse">
<stop stop-color="#093725"/>
<stop offset="1" stop-color="#1A9D6A"/>
</linearGradient>
<linearGradient id="paint18_linear_496_960" x1="569.66" y1="464.9" x2="590.23" y2="464.9" gradientUnits="userSpaceOnUse">
<stop offset="0.05" stop-color="#3AB451"/>
<stop offset="1" stop-color="#29AADE"/>
</linearGradient>
<linearGradient id="paint19_linear_496_960" x1="574.93" y1="478.94" x2="577.52" y2="440.83" gradientUnits="userSpaceOnUse">
<stop offset="0.05" stop-color="#3AB451"/>
<stop offset="1" stop-color="#29AADE"/>
</linearGradient>
<linearGradient id="paint20_linear_496_960" x1="563.48" y1="472.55" x2="569.74" y2="472.55" gradientUnits="userSpaceOnUse">
<stop offset="0.05" stop-color="#3AB451"/>
<stop offset="1" stop-color="#29AADE"/>
</linearGradient>
<linearGradient id="paint21_linear_496_960" x1="562.18" y1="468.76" x2="569.63" y2="468.76" gradientUnits="userSpaceOnUse">
<stop offset="0.05" stop-color="#3AB451"/>
<stop offset="1" stop-color="#29AADE"/>
</linearGradient>
<linearGradient id="paint22_linear_496_960" x1="537.57" y1="460" x2="562.17" y2="460" gradientUnits="userSpaceOnUse">
<stop offset="0.05" stop-color="#3AB451"/>
<stop offset="1" stop-color="#29AADE"/>
</linearGradient>
<linearGradient id="paint23_linear_496_960" x1="514.405" y1="439" x2="514.405" y2="538.53" gradientUnits="userSpaceOnUse">
<stop stop-color="#093725"/>
<stop offset="1" stop-color="#3AB451"/>
</linearGradient>
<linearGradient id="paint24_linear_496_960" x1="466.24" y1="475.36" x2="496.17" y2="552.45" gradientUnits="userSpaceOnUse">
<stop offset="0.05" stop-color="#3AB451"/>
<stop offset="1" stop-color="#29AADE"/>
</linearGradient>
<linearGradient id="paint25_linear_496_960" x1="516.91" y1="496.91" x2="537.74" y2="496.91" gradientUnits="userSpaceOnUse">
<stop offset="0.05" stop-color="#3AB451"/>
<stop offset="1" stop-color="#29AADE"/>
</linearGradient>
<linearGradient id="paint26_linear_496_960" x1="476.25" y1="516.47" x2="532.5" y2="516.47" gradientUnits="userSpaceOnUse">
<stop offset="0.05" stop-color="#3AB451"/>
<stop offset="1" stop-color="#29AADE"/>
</linearGradient>
<linearGradient id="paint27_linear_496_960" x1="485.51" y1="479.31" x2="506.33" y2="479.31" gradientUnits="userSpaceOnUse">
<stop offset="0.05" stop-color="#3AB451"/>
<stop offset="1" stop-color="#29AADE"/>
</linearGradient>
<linearGradient id="paint28_linear_496_960" x1="450.43" y1="405.51" x2="450.62" y2="405.51" gradientUnits="userSpaceOnUse">
<stop offset="0.05" stop-color="#3AB451"/>
<stop offset="1" stop-color="#29AADE"/>
</linearGradient>
<linearGradient id="paint29_linear_496_960" x1="417.38" y1="396.4" x2="450.47" y2="396.4" gradientUnits="userSpaceOnUse">
<stop offset="0.05" stop-color="#3AB451"/>
<stop offset="1" stop-color="#29AADE"/>
</linearGradient>
<linearGradient id="paint30_linear_496_960" x1="444.48" y1="485.16" x2="444.69" y2="485.16" gradientUnits="userSpaceOnUse">
<stop offset="0.05" stop-color="#3AB451"/>
<stop offset="1" stop-color="#29AADE"/>
</linearGradient>
<linearGradient id="paint31_linear_496_960" x1="410.97" y1="466.57" x2="415.62" y2="466.57" gradientUnits="userSpaceOnUse">
<stop offset="0.05" stop-color="#3AB451"/>
<stop offset="1" stop-color="#29AADE"/>
</linearGradient>
<linearGradient id="paint32_linear_496_960" x1="410.97" y1="452.6" x2="412.06" y2="452.6" gradientUnits="userSpaceOnUse">
<stop offset="0.05" stop-color="#3AB451"/>
<stop offset="1" stop-color="#29AADE"/>
</linearGradient>
<linearGradient id="paint33_linear_496_960" x1="409.95" y1="465.1" x2="410.97" y2="465.1" gradientUnits="userSpaceOnUse">
<stop offset="0.05" stop-color="#3AB451"/>
<stop offset="1" stop-color="#29AADE"/>
</linearGradient>
<linearGradient id="paint34_linear_496_960" x1="409.59" y1="461.16" x2="410.97" y2="461.16" gradientUnits="userSpaceOnUse">
<stop offset="0.05" stop-color="#3AB451"/>
<stop offset="1" stop-color="#29AADE"/>
</linearGradient>
<linearGradient id="paint35_linear_496_960" x1="404.53" y1="446.27" x2="431.1" y2="446.27" gradientUnits="userSpaceOnUse">
<stop offset="0.05" stop-color="#3AB451"/>
<stop offset="1" stop-color="#29AADE"/>
</linearGradient>
<linearGradient id="paint36_linear_496_960" x1="402.53" y1="446.79" x2="433.1" y2="446.79" gradientUnits="userSpaceOnUse">
<stop offset="0.05" stop-color="#3AB451"/>
<stop offset="1" stop-color="#29AADE"/>
</linearGradient>
<linearGradient id="paint37_linear_496_960" x1="395.34" y1="460.13" x2="407.74" y2="460.13" gradientUnits="userSpaceOnUse">
<stop offset="0.05" stop-color="#3AB451"/>
<stop offset="1" stop-color="#29AADE"/>
</linearGradient>
<linearGradient id="paint38_linear_496_960" x1="345.77" y1="365.79" x2="345.77" y2="456.62" gradientUnits="userSpaceOnUse">
<stop stop-color="#093725"/>
<stop offset="1" stop-color="#3AB451"/>
</linearGradient>
<linearGradient id="paint39_linear_496_960" x1="287.54" y1="427.12" x2="395.34" y2="427.12" gradientUnits="userSpaceOnUse">
<stop offset="0.05" stop-color="#3AB451"/>
<stop offset="1" stop-color="#29AADE"/>
</linearGradient>
<linearGradient id="paint40_linear_496_960" x1="372.15" y1="420.2" x2="392.98" y2="420.2" gradientUnits="userSpaceOnUse">
<stop offset="0.05" stop-color="#3AB451"/>
<stop offset="1" stop-color="#29AADE"/>
</linearGradient>
<linearGradient id="paint41_linear_496_960" x1="345.63" y1="271.43" x2="415.71" y2="271.43" gradientUnits="userSpaceOnUse">
<stop offset="0.05" stop-color="#3AB451"/>
<stop offset="1" stop-color="#29AADE"/>
</linearGradient>
<linearGradient id="paint42_linear_496_960" x1="333.83" y1="244.06" x2="418.72" y2="244.06" gradientUnits="userSpaceOnUse">
<stop offset="0.05" stop-color="#3AB451"/>
<stop offset="1" stop-color="#29AADE"/>
</linearGradient>
<linearGradient id="paint43_linear_496_960" x1="333.83" y1="159.02" x2="404.13" y2="159.02" gradientUnits="userSpaceOnUse">
<stop offset="0.05" stop-color="#3AB451"/>
<stop offset="1" stop-color="#29AADE"/>
</linearGradient>
<linearGradient id="paint44_linear_496_960" x1="333.83" y1="217.03" x2="408.37" y2="217.03" gradientUnits="userSpaceOnUse">
<stop offset="0.05" stop-color="#3AB451"/>
<stop offset="1" stop-color="#29AADE"/>
</linearGradient>
<linearGradient id="paint45_linear_496_960" x1="340.75" y1="402.6" x2="361.57" y2="402.6" gradientUnits="userSpaceOnUse">
<stop offset="0.05" stop-color="#3AB451"/>
<stop offset="1" stop-color="#29AADE"/>
</linearGradient>
<linearGradient id="paint46_linear_496_960" x1="318.79" y1="122.4" x2="344.93" y2="122.4" gradientUnits="userSpaceOnUse">
<stop offset="0.05" stop-color="#3AB451"/>
<stop offset="1" stop-color="#29AADE"/>
</linearGradient>
<linearGradient id="paint47_linear_496_960" x1="333.83" y1="188.02" x2="402.38" y2="188.02" gradientUnits="userSpaceOnUse">
<stop offset="0.05" stop-color="#3AB451"/>
<stop offset="1" stop-color="#29AADE"/>
</linearGradient>
<linearGradient id="paint48_linear_496_960" x1="274.49" y1="232.52" x2="333.83" y2="232.52" gradientUnits="userSpaceOnUse">
<stop offset="0.05" stop-color="#3AB451"/>
<stop offset="1" stop-color="#29AADE"/>
</linearGradient>
<linearGradient id="paint49_linear_496_960" x1="274.49" y1="225.25" x2="333.83" y2="225.25" gradientUnits="userSpaceOnUse">
<stop offset="0.05" stop-color="#3AB451"/>
<stop offset="1" stop-color="#29AADE"/>
</linearGradient>
<linearGradient id="paint50_linear_496_960" x1="274.49" y1="210.75" x2="333.83" y2="210.75" gradientUnits="userSpaceOnUse">
<stop offset="0.05" stop-color="#3AB451"/>
<stop offset="1" stop-color="#29AADE"/>
</linearGradient>
<linearGradient id="paint51_linear_496_960" x1="274.49" y1="196.25" x2="333.83" y2="196.25" gradientUnits="userSpaceOnUse">
<stop offset="0.05" stop-color="#3AB451"/>
<stop offset="1" stop-color="#29AADE"/>
</linearGradient>
<linearGradient id="paint52_linear_496_960" x1="274.49" y1="183" x2="333.83" y2="183" gradientUnits="userSpaceOnUse">
<stop offset="0.05" stop-color="#3AB451"/>
<stop offset="1" stop-color="#29AADE"/>
</linearGradient>
<linearGradient id="paint53_linear_496_960" x1="274.49" y1="175.5" x2="333.83" y2="175.5" gradientUnits="userSpaceOnUse">
<stop offset="0.05" stop-color="#3AB451"/>
<stop offset="1" stop-color="#29AADE"/>
</linearGradient>
<linearGradient id="paint54_linear_496_960" x1="274.49" y1="167.24" x2="333.83" y2="167.24" gradientUnits="userSpaceOnUse">
<stop offset="0.05" stop-color="#3AB451"/>
<stop offset="1" stop-color="#29AADE"/>
</linearGradient>
<linearGradient id="paint55_linear_496_960" x1="274.49" y1="152.74" x2="333.83" y2="152.74" gradientUnits="userSpaceOnUse">
<stop offset="0.05" stop-color="#3AB451"/>
<stop offset="1" stop-color="#29AADE"/>
</linearGradient>
<linearGradient id="paint56_linear_496_960" x1="274.49" y1="138.83" x2="333.83" y2="138.83" gradientUnits="userSpaceOnUse">
<stop offset="0.05" stop-color="#3AB451"/>
<stop offset="1" stop-color="#29AADE"/>
</linearGradient>
<linearGradient id="paint57_linear_496_960" x1="298.28" y1="258.36" x2="324.42" y2="258.36" gradientUnits="userSpaceOnUse">
<stop offset="0.05" stop-color="#3AB451"/>
<stop offset="1" stop-color="#29AADE"/>
</linearGradient>
<linearGradient id="paint58_linear_496_960" x1="274.49" y1="280.01" x2="307.31" y2="280.01" gradientUnits="userSpaceOnUse">
<stop offset="0.05" stop-color="#3AB451"/>
<stop offset="1" stop-color="#29AADE"/>
</linearGradient>
<linearGradient id="paint59_linear_496_960" x1="247.97" y1="267.39" x2="307.31" y2="267.39" gradientUnits="userSpaceOnUse">
<stop offset="0.05" stop-color="#3AB451"/>
<stop offset="1" stop-color="#29AADE"/>
</linearGradient>
<linearGradient id="paint60_linear_496_960" x1="132.52" y1="328.92" x2="268.68" y2="328.92" gradientUnits="userSpaceOnUse">
<stop offset="0.05" stop-color="#3AB451"/>
<stop offset="1" stop-color="#29AADE"/>
</linearGradient>
<linearGradient id="paint61_linear_496_960" x1="264.07" y1="446.61" x2="182.5" y2="375" gradientUnits="userSpaceOnUse">
<stop offset="0.05" stop-color="#3AB451"/>
<stop offset="1" stop-color="#093725"/>
</linearGradient>
<linearGradient id="paint62_linear_496_960" x1="225.83" y1="195.29" x2="251.96" y2="195.29" gradientUnits="userSpaceOnUse">
<stop offset="0.05" stop-color="#3AB451"/>
<stop offset="1" stop-color="#29AADE"/>
</linearGradient>
<linearGradient id="paint63_linear_496_960" x1="237.75" y1="321.24" x2="247.97" y2="321.24" gradientUnits="userSpaceOnUse">
<stop offset="0.05" stop-color="#3AB451"/>
<stop offset="1" stop-color="#29AADE"/>
</linearGradient>
<linearGradient id="paint64_linear_496_960" x1="176.83" y1="295.56" x2="236.17" y2="295.56" gradientUnits="userSpaceOnUse">
<stop offset="0.05" stop-color="#3AB451"/>
<stop offset="1" stop-color="#29AADE"/>
</linearGradient>
<linearGradient id="paint65_linear_496_960" x1="176.83" y1="281.32" x2="236.17" y2="281.32" gradientUnits="userSpaceOnUse">
<stop offset="0.05" stop-color="#3AB451"/>
<stop offset="1" stop-color="#29AADE"/>
</linearGradient>
<linearGradient id="paint66_linear_496_960" x1="176.83" y1="266.82" x2="236.17" y2="266.82" gradientUnits="userSpaceOnUse">
<stop offset="0.05" stop-color="#3AB451"/>
<stop offset="1" stop-color="#29AADE"/>
</linearGradient>
<linearGradient id="paint67_linear_496_960" x1="176.83" y1="252.31" x2="236.17" y2="252.31" gradientUnits="userSpaceOnUse">
<stop offset="0.05" stop-color="#3AB451"/>
<stop offset="1" stop-color="#29AADE"/>
</linearGradient>
<linearGradient id="paint68_linear_496_960" x1="176.83" y1="237.81" x2="236.17" y2="237.81" gradientUnits="userSpaceOnUse">
<stop offset="0.05" stop-color="#3AB451"/>
<stop offset="1" stop-color="#29AADE"/>
</linearGradient>
<linearGradient id="paint69_linear_496_960" x1="176.83" y1="224.76" x2="236.17" y2="224.76" gradientUnits="userSpaceOnUse">
<stop offset="0.05" stop-color="#3AB451"/>
<stop offset="1" stop-color="#29AADE"/>
</linearGradient>
<linearGradient id="paint70_linear_496_960" x1="181.63" y1="213.95" x2="236.17" y2="213.95" gradientUnits="userSpaceOnUse">
<stop offset="0.05" stop-color="#3AB451"/>
<stop offset="1" stop-color="#29AADE"/>
</linearGradient>
<linearGradient id="paint71_linear_496_960" x1="176.83" y1="192.42" x2="193.54" y2="192.42" gradientUnits="userSpaceOnUse">
<stop offset="0.05" stop-color="#3AB451"/>
<stop offset="1" stop-color="#29AADE"/>
</linearGradient>
<linearGradient id="paint72_linear_496_960" x1="176.83" y1="200.96" x2="181.63" y2="200.96" gradientUnits="userSpaceOnUse">
<stop offset="0.05" stop-color="#3AB451"/>
<stop offset="1" stop-color="#29AADE"/>
</linearGradient>
<linearGradient id="paint73_linear_496_960" x1="161.75" y1="437.65" x2="185.71" y2="437.65" gradientUnits="userSpaceOnUse">
<stop offset="0.05" stop-color="#3AB451"/>
<stop offset="1" stop-color="#29AADE"/>
</linearGradient>
<linearGradient id="paint74_linear_496_960" x1="144.07" y1="423.45" x2="151.71" y2="423.45" gradientUnits="userSpaceOnUse">
<stop offset="0.05" stop-color="#3AB451"/>
<stop offset="1" stop-color="#29AADE"/>
</linearGradient>
<linearGradient id="paint75_linear_496_960" x1="143.58" y1="421.78" x2="145.95" y2="421.78" gradientUnits="userSpaceOnUse">
<stop offset="0.05" stop-color="#3AB451"/>
<stop offset="1" stop-color="#29AADE"/>
</linearGradient>
<linearGradient id="paint76_linear_496_960" x1="152.72" y1="430.38" x2="159.69" y2="430.38" gradientUnits="userSpaceOnUse">
<stop offset="0.05" stop-color="#3AB451"/>
<stop offset="1" stop-color="#29AADE"/>
</linearGradient>
<linearGradient id="paint77_linear_496_960" x1="170.58" y1="439.91" x2="177.18" y2="439.91" gradientUnits="userSpaceOnUse">
<stop offset="0.05" stop-color="#3AB451"/>
<stop offset="1" stop-color="#29AADE"/>
</linearGradient>
<clipPath id="clip0_496_960">
<rect width="900" height="800" fill="white"/>
</clipPath>
</defs>
</svg>
